<svg width="208" height="151" viewBox="0 0 208 151" fill="none" xmlns="http://www.w3.org/2000/svg">
<path d="M150.123 143.729C149.998 144.094 149.848 144.454 149.68 144.804C147.66 148.994 142.73 151.587 138.004 150.68C133.664 149.848 130.041 146.055 129.423 141.651C128.966 138.379 130.119 134.922 132.457 132.582C134.424 130.614 137.155 129.468 139.96 129.443C140.007 129.443 140.053 129.443 140.096 129.443C144.094 129.479 147.949 131.922 149.68 135.511C149.848 135.861 149.998 136.218 150.123 136.586H204.283C204.548 136.615 204.812 136.643 205.076 136.675C205.329 136.765 205.59 136.822 205.833 136.94C207.96 137.965 208.57 141.304 206.507 142.951C206.09 143.283 205.601 143.519 205.076 143.64C204.819 143.697 204.548 143.697 204.283 143.729H150.123ZM93.0101 136.586H109.994L130.365 116.199L130.908 115.756C131.45 115.467 131.579 115.346 132.193 115.224C132.421 115.178 132.657 115.178 132.889 115.156H204.283C204.548 115.185 204.812 115.214 205.076 115.246C205.329 115.331 205.59 115.392 205.833 115.51C207.285 116.21 208.121 117.946 207.764 119.521C207.464 120.832 206.386 121.91 205.076 122.21C204.819 122.268 204.548 122.268 204.283 122.3H134.367L113.995 142.683L113.456 143.126C113.249 143.237 113.053 143.369 112.839 143.458C112.257 143.697 112.086 143.669 111.472 143.729H93.0101C92.8816 144.094 92.7317 144.454 92.5639 144.804C90.5364 149.015 85.5676 151.608 80.8273 150.669C76.4903 149.808 72.8886 145.994 72.2997 141.583C71.8606 138.29 73.0564 134.815 75.4337 132.49C77.3934 130.575 80.0884 129.468 82.8476 129.443C82.8905 129.443 82.9369 129.443 82.9833 129.443C86.9526 129.479 90.7934 131.893 92.5354 135.45C92.7174 135.818 92.8745 136.2 93.0101 136.586V136.586ZM44.2823 136.586C44.8285 135.047 45.7102 133.632 46.8774 132.49C48.8371 130.575 51.5321 129.468 54.2878 129.443C54.3342 129.443 54.3806 129.443 54.427 129.443C58.3963 129.479 62.2371 131.893 63.9791 135.45C65.3997 138.351 65.4069 141.901 64.0076 144.804C61.9801 149.015 57.0078 151.608 52.2674 150.669C48.6515 149.951 45.5495 147.176 44.2788 143.729H4.38204C4.1643 143.722 4.11075 143.726 3.89658 143.697C1.73701 143.397 0.19497 140.836 1.10877 138.733C1.59423 137.615 2.68651 136.786 3.89658 136.618C4.11075 136.59 4.1643 136.593 4.38204 136.586H44.2823V136.586ZM82.8905 136.586C81.3199 136.6 79.8242 137.761 79.4459 139.308C79.0497 140.936 79.9742 142.79 81.5269 143.451C83.5009 144.287 86.1031 142.919 86.4422 140.704C86.7456 138.726 85.15 136.633 82.9833 136.586C82.9547 136.586 82.9226 136.586 82.8905 136.586V136.586ZM54.3342 136.586C52.7529 136.6 51.2537 137.772 50.8824 139.329C50.4969 140.951 51.425 142.794 52.9706 143.451C54.9446 144.287 57.5468 142.919 57.8859 140.704C58.1893 138.726 56.5901 136.633 54.427 136.586C54.3949 136.586 54.3663 136.586 54.3342 136.586ZM140.007 136.586C138.422 136.6 136.926 137.772 136.555 139.329C136.169 140.954 137.094 142.794 138.643 143.451C140.613 144.287 143.219 142.919 143.558 140.704C143.862 138.718 142.238 136.633 140.099 136.586C140.067 136.586 140.035 136.586 140.007 136.586ZM111.472 122.3H4.38204C4.11789 122.268 3.84661 122.268 3.5896 122.21C1.5157 121.735 0.187831 119.214 1.16588 117.178C1.62992 116.21 2.54373 115.485 3.5896 115.246C3.84661 115.185 4.11789 115.185 4.38204 115.156H111.472C111.736 115.185 112 115.214 112.268 115.246C112.518 115.331 112.782 115.392 113.021 115.51C114.474 116.21 115.313 117.946 114.952 119.521C114.652 120.832 113.574 121.91 112.268 122.21C112.007 122.268 111.736 122.268 111.472 122.3V122.3ZM30.0042 93.7232C30.5575 92.1695 31.4534 90.7337 32.6457 89.5872C34.5982 87.6979 37.2539 86.6085 40.0096 86.5799C40.056 86.5799 40.1024 86.5799 40.1488 86.5799C44.1503 86.6192 48.0018 89.0658 49.7295 92.6481C51.1216 95.5376 51.1216 99.0556 49.7295 101.945C47.7091 106.138 42.7796 108.728 38.0571 107.82C34.4161 107.12 31.2821 104.342 29.9971 100.866H4.38204C2.02614 100.802 0.137857 98.2163 1.08378 95.9304C1.56924 94.7589 2.71863 93.891 3.98225 93.7482C4.16073 93.7267 4.20356 93.7303 4.38204 93.7232H30.0042V93.7232ZM78.732 100.866C78.6035 101.234 78.4535 101.595 78.2858 101.945C76.2583 106.152 71.2895 108.749 66.5456 107.806C62.2086 106.945 58.6105 103.134 58.0215 98.7234C57.586 95.4554 58.7568 92.0017 61.1092 89.6765C63.0724 87.7336 65.8102 86.6085 68.5659 86.5799C68.6123 86.5799 68.6587 86.5799 68.7051 86.5799C72.6602 86.6192 76.476 89.0051 78.2287 92.5338C78.4214 92.9196 78.5892 93.316 78.7284 93.7232H204.283C204.548 93.7553 204.812 93.7839 205.076 93.8125C205.329 93.9018 205.59 93.9625 205.833 94.0768C207.96 95.1054 208.57 98.4413 206.507 100.088C206.09 100.424 205.601 100.659 205.076 100.777C204.819 100.838 204.548 100.838 204.283 100.866H78.732V100.866ZM68.6123 93.7232C67.0382 93.741 65.5425 94.9054 65.1677 96.4448C64.7715 98.0734 65.696 99.9307 67.2488 100.588C69.2227 101.424 71.8249 100.059 72.164 97.8448C72.4674 95.8697 70.8826 93.7732 68.7051 93.7267C68.6766 93.7232 68.6444 93.7232 68.6123 93.7232V93.7232ZM40.056 93.7232C38.4711 93.741 36.9755 94.9161 36.6043 96.4662C36.2188 98.0913 37.1433 99.9342 38.6925 100.588C40.6664 101.424 43.2686 100.059 43.6077 97.8448C43.9111 95.8626 42.3155 93.7732 40.1488 93.7267C40.1167 93.7232 40.0881 93.7232 40.056 93.7232V93.7232ZM108.53 79.4367H82.9155C82.2087 79.3689 81.5126 79.2224 80.9308 78.8367C80.738 78.7045 80.5703 78.5402 80.3918 78.3902L60.0169 58.007H4.38204L3.5896 57.9177C3.33616 57.8284 3.07202 57.7677 2.83286 57.6534C0.683997 56.6176 0.134288 53.2568 2.15822 51.6424C2.57585 51.3102 3.06488 51.0745 3.5896 50.9531C3.84661 50.8923 4.11789 50.8924 4.38204 50.8638H61.4982C61.7303 50.8852 61.9623 50.9102 62.1943 50.9316C62.7833 51.1102 62.9582 51.1174 63.4793 51.4674C63.6721 51.596 63.8399 51.7603 64.0219 51.9103L84.3933 72.2935H108.538C109.091 70.7363 109.987 69.304 111.176 68.154C113.132 66.2682 115.787 65.1788 118.543 65.1502C118.589 65.1502 118.632 65.1502 118.679 65.1502C122.684 65.1895 126.532 67.6289 128.263 71.2184C129.651 74.1079 129.651 77.6259 128.263 80.5118C126.232 84.7263 121.263 87.3157 116.523 86.3764C112.907 85.6585 109.805 82.8869 108.53 79.4367ZM157.262 79.4367C157.137 79.8046 156.987 80.1617 156.819 80.5118C154.788 84.7263 149.819 87.3157 145.079 86.3764C140.76 85.5192 137.176 81.7297 136.562 77.3616C136.094 74.0257 137.308 70.497 139.735 68.154C141.688 66.2682 144.344 65.1788 147.099 65.1502C147.146 65.1502 147.192 65.1502 147.239 65.1502C151.24 65.1895 155.088 67.6289 156.819 71.2184C156.987 71.5684 157.137 71.9292 157.262 72.2935H204.283L205.076 72.3828C205.329 72.4721 205.59 72.5328 205.833 72.6471C207.96 73.6757 208.57 77.0116 206.507 78.6581C206.09 78.9938 205.601 79.2296 205.076 79.3474C204.819 79.4081 204.548 79.4081 204.283 79.4367H157.262ZM54.3556 79.4367H4.38204C4.11789 79.4081 3.84661 79.4081 3.5896 79.3474C1.52998 78.8795 0.177122 76.3687 1.16588 74.315C1.62992 73.3507 2.54373 72.6221 3.5896 72.3828C3.84661 72.3256 4.11789 72.3256 4.38204 72.2935H54.3556C54.6233 72.3256 54.8874 72.3542 55.1516 72.3828C55.4015 72.4721 55.6656 72.5328 55.9048 72.6471C57.3576 73.3471 58.1964 75.0865 57.8359 76.6616C57.5396 77.9723 56.458 79.051 55.1516 79.3474C54.891 79.4081 54.6233 79.4081 54.3556 79.4367V79.4367ZM118.586 72.2935C117.005 72.3078 115.505 73.4828 115.138 75.0365C114.752 76.6616 115.677 78.5045 117.226 79.1581C119.193 79.9903 121.784 78.6438 122.138 76.4366C122.452 74.4507 120.845 72.3435 118.682 72.2935C118.65 72.2935 118.618 72.2935 118.586 72.2935V72.2935ZM147.146 72.2935C145.561 72.3078 144.065 73.4828 143.694 75.0365C143.308 76.6616 144.233 78.5045 145.782 79.1581C147.749 79.9903 150.34 78.6438 150.694 76.4366C151.008 74.4507 149.405 72.3435 147.239 72.2935C147.206 72.2935 147.174 72.2935 147.146 72.2935V72.2935ZM107.288 58.007C107.16 58.3749 107.013 58.7321 106.842 59.0821C104.815 63.2966 99.8458 65.886 95.1054 64.9467C90.7685 64.0859 87.1668 60.2714 86.5778 55.864C86.1423 52.5924 87.3131 49.1423 89.6655 46.8136C91.6287 44.8742 94.3666 43.7455 97.1258 43.7205C97.1686 43.7205 97.215 43.7205 97.2614 43.7205C101.238 43.7598 105.114 46.1992 106.842 49.7887C107.013 50.1387 107.16 50.4959 107.288 50.8638H204.283C204.548 50.8924 204.812 50.9245 205.076 50.9531C205.329 51.0424 205.59 51.1031 205.833 51.2174C207.96 52.2424 208.57 55.5819 206.507 57.2284C206.09 57.5641 205.601 57.7999 205.076 57.9177C204.819 57.9784 204.548 57.9784 204.283 58.007H107.288ZM97.1686 50.8638C95.5838 50.8781 94.0774 52.0603 93.7133 53.6282C93.3385 55.2497 94.2702 57.0784 95.8051 57.7284C97.7755 58.5606 100.367 57.2141 100.717 55.0033C101.034 53.021 99.4282 50.9138 97.265 50.8638C97.2329 50.8638 97.2008 50.8638 97.1686 50.8638ZM51.425 29.4341C51.9818 27.859 52.8956 26.4053 54.1093 25.2517C56.0583 23.3909 58.7176 22.3158 61.4268 22.2908C61.4733 22.2908 61.5197 22.2908 61.5661 22.2908C65.5211 22.3266 69.3369 24.7124 71.0896 28.2412C72.5352 31.152 72.5602 34.7236 71.1467 37.6524C69.1263 41.8419 64.2004 44.4349 59.4743 43.5277C55.8334 42.8312 52.7029 40.0489 51.4179 36.5773H4.38204C4.11789 36.5487 3.84661 36.5452 3.5896 36.488C1.5157 36.013 0.187831 33.4914 1.16588 31.4556C1.62992 30.4877 2.54373 29.7627 3.5896 29.5234C3.84661 29.4626 4.11789 29.4627 4.38204 29.4341H51.425V29.4341ZM158.879 21.1979C156.862 22.1623 154.549 22.5337 152.286 22.098C147.945 21.2658 144.319 17.4727 143.701 13.0689C143.244 9.79733 144.401 6.33643 146.735 4.0006C148.702 2.03263 151.433 0.886146 154.238 0.861145C154.285 0.861145 154.331 0.861145 154.378 0.861145C158.379 0.896861 162.227 3.33627 163.958 6.92932C165.343 9.80447 165.35 13.3118 163.973 16.1941L177.205 29.4341H204.283L204.526 29.4412C204.74 29.4626 204.797 29.4627 205.008 29.5091C207.264 29.977 208.652 33.0057 207.2 35.0665C206.636 35.863 205.736 36.4094 204.769 36.5452C204.555 36.5737 204.498 36.5702 204.283 36.5773H175.727C174.785 36.5452 173.896 36.1809 173.2 35.5308L158.922 21.2444L158.879 21.1979V21.1979ZM154.306 36.5773H82.9155C82.6513 36.5487 82.38 36.5452 82.1195 36.488C79.6101 35.913 78.2679 32.1449 80.6881 30.2127C81.1093 29.877 81.5983 29.6412 82.1195 29.5234C82.38 29.4626 82.6513 29.4627 82.9155 29.4341H154.306C154.574 29.4627 154.838 29.4948 155.102 29.5234C155.352 29.6127 155.616 29.6698 155.855 29.7877C157.986 30.8127 158.597 34.1522 156.534 35.7987C156.112 36.1309 155.623 36.3666 155.102 36.488C154.842 36.5452 154.574 36.5487 154.306 36.5773V36.5773ZM61.4732 29.4341C59.8848 29.4484 58.3785 30.6306 58.0179 32.1985C57.6431 33.82 58.5748 35.6487 60.1097 36.2987C62.0765 37.1309 64.668 35.7844 65.0214 33.5736C65.3391 31.5913 63.7328 29.4805 61.5661 29.4341C61.5339 29.4341 61.5054 29.4341 61.4732 29.4341ZM115.677 8.00438C116.205 6.5043 117.055 5.12208 118.179 4.0006C120.146 2.03263 122.876 0.886146 125.682 0.861145C125.729 0.861145 125.775 0.861145 125.818 0.861145C129.823 0.896861 133.671 3.33627 135.402 6.92932C136.791 9.81519 136.791 13.3332 135.402 16.2227C133.382 20.4122 128.452 23.0052 123.726 22.098C120.089 21.4015 116.951 18.6228 115.67 15.1476H4.38204C4.11789 15.1155 3.84661 15.1155 3.5896 15.0583C2.02971 14.7012 0.8125 13.2118 0.8125 11.576C0.8125 9.95805 2.019 8.45083 3.5896 8.09367C3.84661 8.03295 4.11789 8.03295 4.38204 8.00438H115.677V8.00438ZM204.455 8.00795C205.915 8.11152 207.235 9.11158 207.678 10.4724C208.345 12.5332 206.753 15.0297 204.455 15.144C204.398 15.144 204.34 15.144 204.283 15.1476H182.866C180.557 15.0905 178.665 12.5832 179.529 10.3081C180.035 8.96157 181.428 8.03652 182.866 8.00438H204.283C204.34 8.00438 204.398 8.00438 204.455 8.00795V8.00795ZM125.729 8.00438C124.144 8.01866 122.644 9.19373 122.277 10.7438C121.891 12.3725 122.816 14.2118 124.365 14.869C126.332 15.7012 128.923 14.3547 129.277 12.1439C129.591 10.1616 127.984 8.05081 125.821 8.00438C125.789 8.00438 125.757 8.00438 125.729 8.00438V8.00438ZM154.285 8.00438C152.7 8.01866 151.204 9.19373 150.833 10.7438C150.448 12.3725 151.372 14.2118 152.921 14.869C154.888 15.7012 157.48 14.3547 157.833 12.1439C158.147 10.1616 156.544 8.05081 154.378 8.00438C154.346 8.00438 154.317 8.00438 154.285 8.00438V8.00438Z" fill="#3B464E"/>
</svg>
