<svg width="200" height="200" viewBox="0 0 200 200" fill="none" xmlns="http://www.w3.org/2000/svg">
<rect width="200" height="200" fill="white"/>
<path d="M100 173.174H119.995V153.195H100V173.174ZM106.665 159.855H113.33V166.515H106.665V159.855Z" fill="#3B464E"/>
<path d="M186.644 153.195H166.649V173.174H186.644V153.195ZM179.979 166.515H173.314V159.855H179.979V166.515Z" fill="#3B464E"/>
<path d="M196.642 113.237H193.309V63.2884C193.309 62.4052 192.958 61.5583 192.333 60.9338C191.708 60.3093 190.86 59.9585 189.977 59.9585H176.647C175.763 59.9585 174.915 60.3093 174.29 60.9338C173.665 61.5583 173.314 62.4052 173.314 63.2884V113.237H166.649V63.2884C166.649 62.4052 166.298 61.5583 165.673 60.9338C165.048 60.3093 164.201 59.9585 163.317 59.9585H149.987C149.103 59.9585 148.256 60.3093 147.631 60.9338C147.006 61.5583 146.655 62.4052 146.655 63.2884V113.237H139.99V63.2884C139.99 62.4052 139.639 61.5583 139.014 60.9338C138.389 60.3093 137.541 59.9585 136.657 59.9585H123.327C122.443 59.9585 121.596 60.3093 120.971 60.9338C120.346 61.5583 119.995 62.4052 119.995 63.2884V113.237H113.33V73.278H80.0052V0.020752H53.3454V73.278H46.6805V26.6598H26.6857V73.278H20.0208V139.876H0.0259399V199.813H199.974V116.566C199.974 115.683 199.623 114.836 198.998 114.212C198.373 113.587 197.525 113.237 196.642 113.237ZM20.0208 193.154H6.69088V146.535H20.0208V193.154ZM179.979 66.6183H186.644V73.278H179.979V66.6183ZM179.979 79.9378H186.644V86.5975H179.979V79.9378ZM179.979 93.2573H186.644V113.237H179.979V93.2573ZM153.32 66.6183H159.984V73.278H153.32V66.6183ZM153.32 79.9378H159.984V86.5975H153.32V79.9378ZM153.32 93.2573H159.984V113.237H153.32V93.2573ZM126.66 66.6183H133.325V73.278H126.66V66.6183ZM126.66 79.9378H133.325V86.5975H126.66V79.9378ZM126.66 93.2573H133.325V113.237H126.66V93.2573ZM60.0104 6.6805H73.3403V13.3403H60.0104V6.6805ZM60.0104 20H73.3403V26.6598H60.0104V20ZM60.0104 33.3195H73.3403V39.9793H60.0104V33.3195ZM60.0104 46.639H73.3403V73.278H60.0104V46.639ZM33.3506 33.3195H40.0156V39.9793H33.3506V33.3195ZM33.3506 46.639H40.0156V53.2988H33.3506V46.639ZM33.3506 59.9585H40.0156V73.278H33.3506V59.9585ZM86.6701 153.195H40.0156V146.535H86.6701V153.195ZM33.3506 139.876V159.855H86.6701V193.154H26.6857V79.9378H106.665V139.876H33.3506ZM153.32 193.154H133.325V166.515H153.32V193.154ZM193.309 193.154H159.984V159.855H126.66V193.154H93.3351V146.535H193.309V193.154ZM193.309 139.876H113.33V119.896H193.309V139.876Z" fill="#3B464E"/>
<path d="M100 86.5975H33.3506V106.577H100V86.5975ZM93.3351 99.917H40.0156V93.2573H93.3351V99.917Z" fill="#3B464E"/>
<path d="M100 113.237H33.3506V133.216H100V113.237ZM93.3351 126.556H40.0156V119.896H93.3351V126.556Z" fill="#3B464E"/>
<path d="M129.992 126.556H123.327V133.216H129.992V126.556Z" fill="#3B464E"/>
<path d="M143.322 126.556H136.657V133.216H143.322V126.556Z" fill="#3B464E"/>
<path d="M156.652 126.556H149.987V133.216H156.652V126.556Z" fill="#3B464E"/>
<path d="M169.982 126.556H163.317V133.216H169.982V126.556Z" fill="#3B464E"/>
<path d="M183.312 126.556H176.647V133.216H183.312V126.556Z" fill="#3B464E"/>
<path d="M33.3506 186.494H50.013V179.834H40.0156V166.515H33.3506V186.494Z" fill="#3B464E"/>
<path d="M63.3429 179.834H56.6779V186.494H63.3429V179.834Z" fill="#3B464E"/>
</svg>
