<svg width="519" height="50" viewBox="0 0 519 50" fill="none" xmlns="http://www.w3.org/2000/svg">
<rect width="519" height="50" fill="white"/>
<path opacity="0.6" d="M357.923 0.314465C357.923 0.314465 357.844 0.314465 357.844 0.393082C357.687 0.471698 357.608 0.550314 357.45 0.550314L345.252 7.54717L359.418 15.7233V0C358.946 0 358.395 0.157233 357.923 0.314465Z" fill="#00A9CE"/>
<path opacity="0.8" d="M332.976 49.6069L345.882 42.1384L331.716 33.9623V49.9214C332.11 50 332.503 49.8428 332.976 49.6069Z" fill="#00A9CE"/>
<path opacity="0.5" d="M373.898 41.2736L344.859 24.5283L343.521 23.7421L317.315 8.56918C317.157 9.04088 317 9.51258 317 10.0629C317 10.1415 317 10.2987 317 10.3774V40.4088C317 41.3522 317.551 42.217 318.338 42.6887L330.3 49.6855C330.693 49.9214 331.166 50 331.638 50V34.6698V34.0409L358.788 49.6855C358.867 49.7642 358.946 49.7642 359.024 49.7642H359.103C359.89 50.0786 360.52 49.8428 361.228 49.3711L365.792 46.7767L373.033 42.4528C373.426 42.217 373.741 41.7453 373.898 41.2736Z" fill="#00A9CE"/>
<path d="M374.056 21.4623V10.0629C374.056 8.56918 373.269 7.2327 372.009 6.52516L361.464 0.471698C360.834 0.157233 360.126 0 359.418 0V15.8019L335.73 2.04403L333.054 0.550314C331.874 -0.0786164 330.851 -0.157233 329.67 0.393082C329.67 0.393082 329.592 0.393082 329.592 0.471698C329.434 0.550315 329.355 0.628931 329.198 0.707547L325.027 3.14465L319.046 6.60377C318.259 7.07547 317.63 7.78302 317.236 8.6478L343.442 23.7421L344.78 24.5283L373.82 41.2736C373.977 40.7233 373.977 39.7799 373.977 39.7799V21.4623H374.056Z" fill="#00A9CE"/>
<path d="M215.836 0.00184631H213.035L202.706 16.6204L192.376 0.00184631H189.567V49.9993H192.376L202.707 33.3807L213.035 49.9993L215.865 49.9984L215.836 49.957V0.00184631Z" fill="#6DACDE"/>
<path d="M189.567 0.00184631H174.248L189.548 25.0001L174.248 49.9993H189.568V0.00184631H189.567Z" fill="#938647"/>
<path d="M231.166 0.00184088H215.839V49.957L215.868 49.9984L231.165 49.9956L215.867 24.9992L231.166 0V0.00184088Z" fill="#6D9A45"/>
<path d="M253.007 0.00184631H231.168L215.869 25.0001L231.167 49.9965H231.174L231.167 38.9531H257.017C267.868 38.9531 271.116 30.4086 271.116 22.9669V17.0917C271.116 7.30739 267.59 0.00276675 253.007 0.00276675V0.00184631ZM256.828 20.1742C256.828 23.1381 255.447 26.5483 251.852 26.5483H231.188V12.4048H250.538C255.169 12.4048 256.828 14.335 256.828 17.7111V20.1742V20.1742Z" fill="#BFD730"/>
<path d="M189.549 25.0008L174.25 0.00253787H174.243L174.241 30.2151L148.319 0.00161743H133V50L148.332 49.9963L148.327 19.7865L174.25 50L189.549 25.0008Z" fill="#FCB316"/>
<path fill-rule="evenodd" clip-rule="evenodd" d="M510.779 50L513.349 44.3312H420V50H510.779ZM431.829 42.3663V37.9065H429.713L434.097 30.6879V42.3663H442.26V12.5098H435.155L420.34 42.3663H431.829Z" fill="#0D6FAB"/>
<path fill-rule="evenodd" clip-rule="evenodd" d="M444.641 42.3663V9.93934H435.873L441.542 0H518.11V9.93934H451.973V42.3663H444.641Z" fill="#0D6FAB"/>
<path fill-rule="evenodd" clip-rule="evenodd" d="M454.58 42.3664V12.5098H475.215C480.43 12.5098 481.829 17.0451 481.829 19.4256V42.3664H474.271V18.1786C474.271 19.2748 474.573 16.3646 473.326 16.3646H471.891V42.3664H464.557V16.0998H461.95V42.3664H454.58ZM483.983 42.3664V12.5098H500.347V20.862H489.274V23.1296H500.422V31.1415H489.35V33.1818H500.347V42.3664H483.983ZM502.615 42.3664V12.5098H510.362V33.2572H518.185L514.405 42.3664H502.615Z" fill="#0D6FAB"/>
<path fill-rule="evenodd" clip-rule="evenodd" d="M56.3223 49.8485H0.453613L19.6148 0H75.4839L56.3223 49.8485Z" fill="#1E71B8"/>
<path fill-rule="evenodd" clip-rule="evenodd" d="M27.2972 8.00602C24.1289 8.00602 21.2604 9.29008 19.1844 11.3666C17.1084 13.443 15.8239 16.311 15.8239 19.4798C15.8219 20.9869 16.1178 22.4795 16.6945 23.8718C17.2712 25.2642 18.1174 26.5288 19.1844 27.5931L28.5621 36.8984C28.8149 37.1506 29.0155 37.4503 29.1521 37.7803C29.2888 38.1103 29.359 38.464 29.3585 38.8211C29.359 39.1784 29.2888 39.5322 29.1522 39.8622C29.0155 40.1922 28.8149 40.492 28.5621 40.7443C28.3098 40.9971 28.01 41.1975 27.6801 41.3341C27.3501 41.4707 26.9964 41.5408 26.6393 41.5403H3.32343L0 50H26.2299C27.737 50.0019 29.2296 49.706 30.622 49.1292C32.0143 48.5524 33.279 47.7061 34.3432 46.639C36.4197 44.5625 37.7037 41.6941 37.7037 38.5257C37.7037 35.3574 36.4197 32.4889 34.3432 30.4133L24.9655 21.1067C24.4735 20.6146 24.1691 19.9344 24.1691 19.184C24.1691 18.4336 24.4735 17.7533 24.9655 17.2612C25.2179 17.0085 25.5176 16.8081 25.8475 16.6716C26.1775 16.535 26.5312 16.4648 26.8883 16.4652H49.4466L36.556 49.9995H45.4469L58.3375 16.4652H69.6907L73.1647 8.00602H27.2972Z" fill="white"/>
</svg>
