<svg width="340" height="200" viewBox="0 0 340 200" fill="none" xmlns="http://www.w3.org/2000/svg">
<g clip-path="url(#clip0)">
<rect width="340" height="200" fill="white"/>
<g clip-path="url(#clip1)">
<path d="M340.028 -9.15527e-05H2.00043V200H340.028V-9.15527e-05Z" fill="white"/>
<path d="M10.7958 23.1236C10.8564 23.1236 10.9819 23.1236 11.1722 23.1236C11.1722 23.1067 11.1722 23.0627 11.1722 22.9916C11.2586 22.68 11.2087 23.2919 11.0227 24.8274C10.8366 26.3628 10.7563 28.2152 10.7816 30.3847C10.807 32.5537 10.8074 34.158 10.7829 35.1976C10.7589 36.2377 10.7421 36.9467 10.7326 37.3246C10.7236 37.7029 10.7681 38.0234 10.8661 38.286C10.9645 38.5491 11.0903 38.7023 11.2437 38.7456C11.3971 38.789 11.4923 38.8405 11.5292 38.9003C11.5662 38.9597 11.8874 38.7313 12.4928 38.2152C13.0986 37.6995 13.7349 36.7879 14.4018 35.4804C15.0686 34.1729 15.5838 33.0557 15.9473 32.1287C16.3112 31.2022 16.8623 29.4362 17.6005 26.8308C17.7466 26.641 17.8114 27.2358 17.7951 28.6152C17.7792 29.9946 17.7977 31.1914 17.8505 32.2055C17.9034 33.22 17.9812 34.0005 18.0838 34.5469C18.187 35.0934 18.3279 35.4561 18.5066 35.6351C18.6858 35.8137 18.9337 35.9149 19.2504 35.9387C19.5675 35.9621 19.7778 35.8678 19.8814 35.6559C19.9849 35.444 20.1516 35.247 20.3815 35.065C20.6118 34.883 21.3751 33.5179 22.6714 30.9697C23.9673 28.4215 25.1719 25.3017 26.2851 21.6103C26.1803 21.807 26.1038 21.9281 26.0557 21.9736C26.0071 22.0191 25.9403 22.0841 25.8552 22.1687" stroke="#0086B6" stroke-width="2" stroke-linecap="round" stroke-linejoin="round"/>
<path d="M26.9303 33.382C27.014 33.457 27.0113 33.4817 26.9219 33.4562C26.8325 33.4302 27.0892 33.5157 27.6921 33.7129C28.2949 33.9101 29.0457 33.8241 29.9446 33.4549C30.843 33.0852 31.4895 32.7482 31.8839 32.444C32.2779 32.1394 32.6878 31.7862 33.1136 31.3844C33.539 30.9831 33.8649 30.5288 34.0913 30.0213C34.3178 29.5138 34.4114 28.7517 34.3723 27.735C34.1609 27.3537 33.4559 27.6204 32.2571 28.5353C31.0583 29.4497 30.0881 30.4208 29.3465 31.4488C28.6053 32.4767 28.1123 33.4471 27.8674 34.3597C27.6225 35.2724 27.4888 36.0059 27.4665 36.5602C27.4441 37.1144 27.5112 37.5972 27.6676 38.0085C27.8244 38.4202 28.1991 38.6161 28.7916 38.5961C29.3841 38.5762 29.8683 38.5233 30.2443 38.4375C30.6207 38.3517 30.9655 38.2083 31.2787 38.0072C31.5924 37.8065 32.2837 37.2661 33.3527 36.3859C34.4222 35.5053 35.4517 34.6936 36.4412 33.9508C36.4274 33.9508 36.3993 33.9654 36.3568 33.9944C36.3142 34.023 36.2573 34.0661 36.186 34.1238" stroke="#0086B6" stroke-width="2" stroke-linecap="round" stroke-linejoin="round"/>
<path d="M53.6764 26.3537C53.6764 26.3402 53.6764 26.2386 53.6764 26.0488C53.2223 26.1506 52.5686 29.6616 51.7152 36.5816C51.8918 36.8819 52.3703 36.3283 53.1505 34.9207C53.9308 33.5131 54.5513 32.4252 55.0119 31.6568C55.4725 30.888 55.8622 30.3062 56.181 29.9114C56.4998 29.5166 56.8779 29.2709 57.3153 29.1742C57.7531 29.0772 58.081 29.0624 58.2988 29.13C58.5171 29.1976 58.8383 29.4837 59.2623 29.9881C59.6868 30.4921 59.5041 33.049 58.7139 37.6587C58.7453 37.628 58.8707 37.4475 59.0903 37.1172C59.3098 36.7874 59.4845 36.5515 59.6142 36.4093" stroke="#0086B6" stroke-width="2" stroke-linecap="round" stroke-linejoin="round"/>
<path d="M61.9648 32.0923C62.6011 32.241 62.8138 32.285 62.6028 32.2243C63.106 32.2243 63.2963 32.2243 63.1739 32.2243C63.717 32.2243 63.9386 32.2243 63.839 32.2243C64.5801 32.0718 64.8577 32.0057 64.6717 32.026C64.9307 32.0802 65.4689 31.8746 66.2861 31.4091C67.1029 30.9437 67.7114 30.5108 68.1114 30.1103C68.511 29.7103 68.7705 29.4031 68.8899 29.1886C69.009 28.9745 69.1015 28.8061 69.1677 28.6835C69.2339 28.5613 69.2805 28.3077 69.3076 27.9229C69.3346 27.5381 69.3172 27.244 69.2554 27.0408C69.1935 26.8375 69.1407 26.7428 69.0968 26.7567C69.053 26.7706 69.0403 26.7877 69.0588 26.8081C69.0773 26.828 69.1084 26.8326 69.1523 26.8217C69.1961 26.8105 68.8719 26.7379 68.1797 26.604C67.4871 26.47 66.8439 26.5641 66.2501 26.8861C65.6563 27.2076 65.105 27.7459 64.5962 28.5008C64.0871 29.2553 63.6632 30.179 63.3247 31.272C62.9857 32.3649 62.8162 33.2109 62.8162 33.8098C62.8162 34.4091 62.8881 34.865 63.032 35.1775C63.176 35.4899 63.3429 35.6819 63.5328 35.7534C63.7228 35.8249 63.932 35.899 64.1606 35.9757C64.3887 36.0529 64.891 36.0882 65.6674 36.0817C66.4434 36.0756 67.0389 36.0234 67.454 35.925C67.869 35.8267 68.3073 35.6462 68.7688 35.3836C69.2298 35.1209 69.5306 34.9112 69.6711 34.7543C69.8111 34.5974 69.9209 34.4496 70.0004 34.311C70.0803 34.1719 70.1055 34.0011 70.0758 33.7987C70.0466 33.5959 70.0522 33.4622 70.0926 33.3976C70.1325 33.3331 70.1817 33.2434 70.2402 33.1285" stroke="#0086B6" stroke-width="2" stroke-linecap="round" stroke-linejoin="round"/>
<path d="M72.9671 31.2291C73.2425 31.5099 73.4281 31.6841 73.5239 31.7517C73.6197 31.8193 73.9734 31.639 74.5848 31.2109C75.1962 30.7827 75.79 30.3233 76.3662 29.8328C76.9419 29.3426 77.3052 29.0601 77.456 28.9851C77.6068 28.9101 77.8816 28.6464 78.2804 28.194C78.6791 27.742 78.8514 26.9288 78.7972 25.7543C79.0477 25.8813 78.8804 25.8579 78.2951 25.6841C77.7099 25.5104 77.0721 25.5788 76.3816 25.8896C75.6916 26.2003 74.9919 26.9886 74.2825 28.2544C73.5731 29.5207 73.0983 30.6345 72.8581 31.5957C72.6184 32.5569 72.4714 33.3916 72.4173 34.0997C72.3636 34.8074 72.6057 35.2848 73.1436 35.5318C73.6812 35.7784 74.7018 35.3963 76.2057 34.3857C77.7095 33.3747 78.4973 32.8406 78.5691 32.7834" stroke="#0086B6" stroke-width="2" stroke-linecap="round" stroke-linejoin="round"/>
<path d="M84.6274 31.0562C84.8581 30.8724 85.1327 30.5864 85.4511 30.1981C85.7699 29.8094 85.9147 29.4761 85.8855 29.1983C85.8558 28.9201 85.7832 28.631 85.6676 28.3311C85.5521 28.0308 85.2861 27.8375 84.8698 27.7513C84.453 27.6646 84.1702 27.6369 84.0216 27.6681C83.8729 27.6993 83.7187 27.727 83.5588 27.7513C83.399 27.776 83.0765 27.9621 82.5914 28.3097C82.1063 28.6573 81.6133 29.5814 81.1123 31.0822C80.6113 32.5829 80.4351 34.142 80.5838 35.7593C82.2333 36.7686 83.7747 34.9842 85.2081 30.4061C86.6419 25.8276 87.6082 22.2909 88.1071 19.796C88.6055 17.3011 88.9864 15.3552 89.2498 13.9585C89.5127 12.5622 89.6625 9.51972 89.699 4.83112C89.1224 4.87142 87.7721 14.2599 85.6483 32.9966C85.5284 33.1019 85.8285 32.9866 86.5487 32.6507C86.5392 32.4757 86.5435 32.3599 86.5616 32.3036C86.5801 32.2473 86.6026 32.1769 86.6292 32.0923" stroke="#0086B6" stroke-width="2" stroke-linecap="round" stroke-linejoin="round"/>
<path d="M92.3924 21.3561C92.6261 21.4748 92.7681 21.5606 92.8183 21.6135C92.869 21.6659 92.8953 21.6969 92.897 21.7065C92.8987 21.716 92.9094 21.7314 92.9292 21.7526C92.9494 21.7734 92.958 21.779 92.955 21.7695C92.9516 21.7595 93.0074 21.8024 93.1226 21.8982C93.2377 21.994 93.1827 22.3366 92.9576 22.926C92.7328 23.5149 92.5713 23.9093 92.4729 24.109" stroke="#0086B6" stroke-width="2" stroke-linecap="round" stroke-linejoin="round"/>
<path d="M91.2368 31.4013C91.1302 32.012 91.8624 32.3998 93.4332 32.5649C93.5729 32.4891 93.5439 32.0083 93.3462 31.1225C93.1271 31.0323 92.9022 31.013 92.6714 31.0646C92.4407 31.1166 92.2491 31.1714 92.0965 31.2291" stroke="#0086B6" stroke-width="2" stroke-linecap="round" stroke-linejoin="round"/>
<path d="M15.7933 63.3657C15.807 63.3657 15.8921 63.3657 16.0485 63.3657C15.532 63.3202 14.35 67.5321 12.5024 76.0014C12.4887 76.0014 12.464 75.9583 12.4283 75.872C12.3927 75.7854 12.3592 75.6998 12.3278 75.6153" stroke="#0086B6" stroke-width="2" stroke-linecap="round" stroke-linejoin="round"/>
<path d="M17.701 57.1902C17.6877 57.1936 17.6473 57.1869 17.5798 57.17C17.5674 57.0014 17.5944 56.8017 17.661 56.5707C18.052 56.5481 18.202 56.5414 18.1109 56.5505C18.7932 56.847 19.0349 56.9824 18.836 56.9568C18.9481 57.2784 19.4008 57.8062 20.1939 58.5403C20.9867 59.274 21.646 60.0567 22.1719 60.8883C22.6978 61.7195 23.0278 62.6784 23.1619 63.7648C23.2959 64.8513 23.4362 66.0859 23.5827 67.4688C23.7292 68.8517 23.4328 70.503 22.6933 72.4228C21.9543 74.3427 21.3396 75.7697 20.8494 76.7041C20.3596 77.6384 19.7933 78.638 19.1505 79.7028C18.5081 80.7676 16.7757 83.285 13.9532 87.2551C14.0636 86.9621 14.2937 86.5977 14.6435 86.1617C14.9936 85.7262 15.2203 85.4575 15.3234 85.3556" stroke="#0086B6" stroke-width="2" stroke-linecap="round" stroke-linejoin="round"/>
<path d="M45.0253 59.6487C44.8582 59.6149 45.0148 59.4454 45.4952 59.1404C44.9967 59.003 43.8499 60.1048 42.0548 62.4459C40.2592 64.7874 38.7537 67.0829 37.5381 69.3325C36.323 71.5826 35.4295 73.2421 34.8576 74.3113C34.2862 75.3808 33.8958 76.3032 33.6866 77.0785C33.4777 77.8534 33.3663 78.3646 33.3521 78.612C33.3379 78.859 33.3656 79.0709 33.4352 79.2478C33.5053 79.4246 33.7087 79.5667 34.0456 79.6742C34.382 79.7812 34.9361 79.7563 35.7077 79.5994C36.4794 79.4421 37.1089 78.947 37.5961 78.1141C37.5828 78.1141 37.5246 78.1141 37.4215 78.1141C37.4253 78.0122 37.49 77.8683 37.6155 77.6824C37.7413 77.4961 37.8468 77.3386 37.9319 77.2098" stroke="#0086B6" stroke-width="2" stroke-linecap="round" stroke-linejoin="round"/>
<path d="M44.8906 75.1381C44.9044 75.1381 44.9312 75.1381 44.9712 75.1381C44.5325 75.2387 44.3759 75.2759 44.5013 75.2499C44.6268 75.2235 44.4631 75.2651 44.0102 75.3747C43.5578 75.4839 43.1891 75.5867 42.9042 75.6829C42.6198 75.7786 42.3704 75.8395 42.156 75.8655C41.942 75.8915 39.8087 76.7698 35.7561 78.5002C36.0551 78.5002 36.1984 78.5002 36.186 78.5002C36.6586 78.456 36.8932 78.3806 36.8898 78.274C36.8863 78.1674 36.9203 78.0701 36.9916 77.9821" stroke="#0086B6" stroke-width="2" stroke-linecap="round" stroke-linejoin="round"/>
<path d="M49.4582 74.0617C49.4582 74.0751 49.4582 74.1596 49.4582 74.3152C49.7602 74.1921 50.0002 74.004 50.1781 73.7509C50.3564 73.4983 50.7285 73.1477 51.2944 72.6991C51.8607 72.251 52.5002 71.9054 53.2131 71.6623C53.9254 71.4196 54.4636 71.3327 54.8275 71.4016C55.191 71.4705 55.472 71.5858 55.6705 71.7475C55.8686 71.9095 56.0057 72.2276 56.0817 72.7017C56.1573 73.1759 56.1702 73.6762 56.1204 74.2027C56.071 74.7297 55.6295 75.3912 54.7959 76.1873C53.9628 76.9834 52.5395 77.3802 50.5261 77.3776C50.481 77.5574 50.4284 77.3568 50.3682 76.7756C50.3081 76.1949 50.4301 75.6803 50.7343 75.2317C51.0389 74.7832 51.2405 74.4946 51.3389 74.3659" stroke="#0086B6" stroke-width="2" stroke-linecap="round" stroke-linejoin="round"/>
<path d="M58.9292 68.9217C59.3111 68.9217 59.4544 68.9217 59.359 68.9217C59.506 69.2389 59.5814 69.2805 59.5853 69.0465C59.5887 68.8125 59.5816 69.1048 59.564 69.9234C59.5468 70.7421 59.5111 71.6389 59.457 72.614C59.4033 73.5895 59.3995 74.3013 59.4454 74.7494C59.491 75.1975 59.558 75.4967 59.6465 75.6471C59.7354 75.7971 59.7913 75.8879 59.8141 75.9195C59.8368 75.9511 59.821 75.9494 59.7664 75.9143C59.7118 75.8788 59.7546 75.897 59.8946 75.9689C60.0347 76.0404 60.1902 76.1071 60.3612 76.1691C60.5318 76.2311 60.6923 76.2012 60.8427 76.0794C60.9931 75.9576 61.1244 75.8259 61.2365 75.6842C61.3486 75.5429 61.4868 75.3685 61.6509 75.1609C61.8146 74.9533 61.942 74.7847 62.0331 74.6551C62.1246 74.526 62.1933 74.425 62.2393 74.3522C62.2857 74.2799 63.0765 73.1908 64.6118 71.0851C64.6715 70.7093 64.7082 70.9269 64.7219 71.7377C64.7353 72.5485 64.8244 73.2053 64.9894 73.708C65.154 74.2103 65.302 74.6053 65.4335 74.8931C65.5649 75.1808 65.7944 75.2658 66.1218 75.1479C66.4492 75.0304 66.7641 74.8118 67.0666 74.492C67.3691 74.1722 67.6892 73.7583 68.0269 73.2504C68.3651 72.7425 68.729 72.206 69.1187 71.6409C69.5089 71.0753 69.8358 70.661 70.0997 70.398C70.3635 70.1349 70.5536 69.9611 70.67 69.8766" stroke="#0086B6" stroke-width="2" stroke-linecap="round" stroke-linejoin="round"/>
<path d="M73.357 68.6272C73.61 69.1386 73.7308 69.3095 73.7192 69.1401C73.7114 69.4578 75.4602 69.2801 78.9654 68.6071C78.9495 68.6162 79.0217 68.6972 79.182 68.8502C79.3423 69.0027 79.4649 69.1011 79.55 69.1453" stroke="#0086B6" stroke-width="2" stroke-linecap="round" stroke-linejoin="round"/>
<path d="M83.6471 66.5555C83.6604 66.5555 83.7208 66.5689 83.8282 66.5958C84.19 66.7241 83.8744 68.2656 82.8814 71.2203C81.8885 74.175 80.9615 78.5145 80.1004 84.2388C79.9032 84.2514 80.1792 83.0963 80.9286 80.7734C81.6775 78.4506 82.2887 76.6267 82.7622 75.3019C83.2357 73.9776 83.732 72.8402 84.251 71.8898C84.77 70.9394 85.4844 70.1425 86.394 69.4989C87.3031 68.8549 88.4832 68.5492 89.9342 68.5817C90.0532 68.7971 90.1035 69.4012 90.085 70.394C90.0666 71.3869 89.7692 72.2818 89.193 73.0788C88.6164 73.8762 88.0675 74.3828 87.5463 74.5986C87.0251 74.8144 86.5663 74.945 86.1697 74.9906C85.7735 75.0356 85.279 74.9622 84.686 74.7702C84.0931 74.5782 83.9876 74.1065 84.3696 73.355C84.752 72.6036 85.0349 72.1483 85.2184 71.9893" stroke="#0086B6" stroke-width="2" stroke-linecap="round" stroke-linejoin="round"/>
<path d="M91.0621 67.9368C91.1618 68.0738 91.5706 67.9832 92.2886 67.6651C93.0065 67.3466 93.5932 67.0929 94.0487 66.9039C94.5041 66.7154 94.8567 66.6073 95.1063 66.5795C95.356 66.5518 95.664 66.6283 96.0305 66.809C96.397 66.9893 96.7058 67.2465 96.9567 67.5806C97.208 67.9147 97.3189 68.0807 97.2892 68.0786C97.2596 68.0764 97.2934 68.1325 97.3905 68.2469C97.4871 68.3609 97.6122 68.8263 97.7655 69.6432C97.9185 70.4601 97.8644 71.2434 97.6031 71.9932C97.3415 72.7429 97.0332 73.2913 96.6783 73.6385C96.3234 73.9856 95.7536 74.3505 94.9691 74.7331C94.1845 75.1158 93.3741 74.6103 92.538 73.2166C91.7018 71.8229 91.313 71.0684 91.3714 70.9531" stroke="#0086B6" stroke-width="2" stroke-linecap="round" stroke-linejoin="round"/>
<path d="M99.1764 65.8242C99.2262 65.8814 99.3465 65.8963 99.5373 65.869C99.7285 65.8413 100.539 68.0675 101.97 72.5477C102.019 72.7999 102.922 71.1342 104.677 67.5507C104.908 67.5459 105.022 67.5527 105.02 67.5709C105.253 67.8916 105.436 68.2387 105.571 68.6122C105.706 68.9858 105.824 69.2801 105.924 69.495C106.024 69.71 106.107 69.8898 106.174 70.0346C106.242 70.1789 106.276 70.2651 106.278 70.2933C106.279 70.321 106.346 70.4263 106.479 70.6092C106.611 70.7921 106.727 70.9555 106.828 71.0993C106.928 71.2436 106.987 71.3035 107.003 71.2788C107.018 71.2541 107.025 71.2352 107.022 71.2222C107.019 71.2092 107.136 71.2688 107.372 71.401C107.608 71.5331 107.869 71.3045 108.154 70.7152C108.44 70.1262 108.822 69.3234 109.3 68.3067C109.778 67.29 110.244 66.6144 110.699 66.2799C111.153 65.9453 111.423 65.7628 111.508 65.7325" stroke="#0086B6" stroke-width="2" stroke-linecap="round" stroke-linejoin="round"/>
<path d="M112.57 67.5507C112.397 67.51 112.697 67.6207 113.469 67.8829C114.241 68.1455 115.062 68.0075 115.931 67.4688C116.8 66.9302 117.457 66.5213 117.903 66.2422C118.349 65.9631 118.731 65.6077 119.05 65.1761C119.369 64.7445 119.522 64.175 119.508 63.4678C119.596 63.3984 119.341 63.3557 118.744 63.3397C118.147 63.3237 117.561 63.4816 116.984 63.8136C116.407 64.1455 116.031 64.4082 115.854 64.6015C115.678 64.7952 115.34 65.3083 114.841 66.1408C114.342 66.9737 114.008 67.7754 113.837 68.546C113.668 69.3161 113.558 69.8682 113.507 70.2023C113.457 70.536 113.557 70.8575 113.808 71.167C114.06 71.476 114.599 71.6814 115.426 71.7832C116.252 71.8846 116.924 71.8549 117.443 71.6942C117.961 71.5329 118.306 71.2523 118.475 70.8523C118.645 70.4528 118.74 70.082 118.76 69.7401C118.779 69.3977 118.825 69.1689 118.897 69.0537" stroke="#0086B6" stroke-width="2" stroke-linecap="round" stroke-linejoin="round"/>
<path d="M120.805 65.6513C120.991 65.8718 121.062 67.9134 121.019 71.776C121.34 71.1433 121.47 70.869 121.409 70.9531C121.645 70.4616 122.005 69.7418 122.487 68.7936C122.969 67.845 124.916 66.8313 128.327 65.7527C128.327 65.3306 128.327 65.1663 128.327 65.2599C128.327 65.1317 128.327 65.0183 128.327 64.92" stroke="#0086B6" stroke-width="2" stroke-linecap="round" stroke-linejoin="round"/>
<path d="M142.916 71.4712C142.916 71.56 142.916 71.8343 142.916 72.2941C143.378 71.8959 143.541 71.7366 143.407 71.8164C143.484 71.692 143.645 71.4346 143.891 71.0441C144.137 70.6532 144.585 69.7908 145.236 68.4569C145.886 67.1225 147.537 63.9291 150.191 58.8764C150.218 58.8764 150.276 58.8764 150.365 58.8764C150.532 59.6396 150.595 59.9343 150.554 59.7605C150.6 59.3999 150.628 59.7549 150.639 60.8253C150.65 61.8953 150.757 62.9891 150.96 64.1067C151.163 65.224 151.618 65.903 152.327 66.144C152.497 65.9919 152.664 65.7988 152.827 65.5648C152.99 65.3308 153.446 64.248 154.194 62.3165C154.943 60.3845 155.836 58.4626 156.874 56.5505C157.261 56.9115 157.402 57.1332 157.297 57.2155C157.462 56.7393 157.634 61.3184 157.814 70.9531C157.973 70.6848 158.168 70.3884 158.4 70.0638C158.632 69.7392 158.817 69.4907 158.957 69.3182" stroke="#0086B6" stroke-width="2" stroke-linecap="round" stroke-linejoin="round"/>
<path d="M170.146 59.5265C170.062 59.5715 170.039 59.5726 170.079 59.5297C170.119 59.4868 170.129 59.4697 170.11 59.4784C170.09 59.4866 170.101 59.4831 170.141 59.468C170.181 59.4528 170.317 59.3425 170.548 59.1371C170.779 58.9321 170.895 58.8281 170.897 58.8251C170.897 58.822 170.892 58.803 170.88 58.7679C170.868 58.7328 170.877 58.6164 170.906 58.4188C170.936 58.2212 170.795 58.1204 170.483 58.1165C170.172 58.113 169.655 58.0814 168.933 58.0216C168.21 57.9618 167.304 58.3293 166.213 59.1241C165.123 59.9189 164.347 60.637 163.886 61.2784C163.425 61.9193 163.027 62.4755 162.692 62.947C162.357 63.4185 162.027 64.0786 161.7 64.9271C161.374 65.7752 161.231 66.5466 161.272 67.2413C161.312 67.936 161.306 68.5381 161.253 69.0478C161.2 69.5579 161.495 69.9956 162.139 70.3609C162.783 70.7262 163.358 70.9425 163.864 71.0096C164.371 71.0768 164.826 71.1498 165.231 71.2287C165.637 71.3076 166.329 71.2107 167.309 70.9381C168.289 70.6655 169.078 70.3173 169.675 69.8935C170.272 69.4697 170.685 69.1992 170.913 69.0822C171.141 68.9652 171.297 68.8846 171.383 68.8404" stroke="#0086B6" stroke-width="2" stroke-linecap="round" stroke-linejoin="round"/>
<path d="M178.556 57.3631C178.588 57.2652 178.694 57.0086 178.876 56.5935C179.058 56.1787 179.128 55.6093 179.087 54.8851C178.348 54.9046 178.091 54.9265 178.314 54.9508C177.741 55.73 177.437 56.1087 177.405 56.0871C177.372 56.0654 177.127 56.6437 176.672 57.8221C176.216 59.0008 175.919 60.2091 175.779 61.4468C175.639 62.6849 175.554 63.8056 175.524 64.8088C175.495 65.8121 175.633 66.6886 175.937 67.4383C176.241 68.1876 176.605 68.6864 177.028 68.9347C177.452 69.1826 178.087 69.3501 178.935 69.4372C179.782 69.5239 180.674 68.8905 181.611 67.5371C182.549 66.1837 183.295 62.5926 183.849 56.7638C183.849 56.7772 183.849 56.9059 183.849 57.1499C183.916 57.1365 183.983 57.1228 184.05 57.109" stroke="#0086B6" stroke-width="2" stroke-linecap="round" stroke-linejoin="round"/>
<path d="M196.262 62.5837C196.332 62.0025 196.359 61.8097 196.342 62.0051C196.355 61.9778 196.369 61.9406 196.383 61.8933C196.312 61.5986 196.304 61.8415 196.36 62.622C196.416 63.4021 196.431 64.0329 196.404 64.5143C196.377 64.9958 196.509 65.3581 196.8 65.6012C197.091 65.8443 197.251 65.9544 197.281 65.9314C197.311 65.9089 197.335 65.9013 197.353 65.9087C197.372 65.9165 197.347 65.9243 197.279 65.9321C197.211 65.9399 197.747 65.931 198.888 65.9054C198.998 66.1429 199.181 66.5323 199.438 67.0736C199.734 67.0766 199.878 67.0697 199.868 67.0528C199.971 67.0025 200.105 66.8966 200.27 66.7349C200.435 66.5733 200.51 66.4881 200.494 66.4794C200.478 66.4712 200.474 66.4781 200.483 66.5002C200.492 66.5223 200.511 66.4723 200.54 66.3501C200.569 66.2279 201.619 64.5865 203.69 61.4259C203.717 61.4836 203.744 61.5412 203.771 61.5988" stroke="#0086B6" stroke-width="2" stroke-linecap="round" stroke-linejoin="round"/>
<path d="M197.323 61.5482C197.323 61.5343 197.341 61.4056 197.377 61.162C197.485 61.5022 197.444 61.5508 197.252 61.3076C197.06 61.0649 197.115 63.4168 197.417 68.3633C198.161 68.1856 198.416 68.1076 198.183 68.1293C198.227 68.0517 198.415 67.8706 198.746 67.5858C199.077 67.3007 199.633 66.7252 200.414 65.8593C201.195 64.9934 201.84 64.2205 202.35 63.5406C202.86 62.8606 203.213 62.3605 203.409 62.0402C203.605 61.72 203.796 61.4077 203.981 61.1035C204.165 60.7993 204.244 60.6717 204.219 60.7206C204.193 60.7692 204.184 60.7869 204.191 60.7739C204.199 60.7605 204.255 60.6628 204.361 60.4808C204.467 60.2987 204.532 60.211 204.557 60.2175C204.57 60.2006 204.577 60.1835 204.577 60.1661C204.552 60.6888 204.532 60.9276 204.516 60.8825C204.516 60.8795 204.369 61.5293 204.075 62.832C203.781 64.1343 203.843 65.5988 204.261 67.2257C204.578 67.6049 205.168 67.3577 206.03 66.484C206.893 65.6103 208.446 63.7076 210.689 60.7759C210.703 60.8335 210.716 60.8912 210.729 60.9488" stroke="#0086B6" stroke-width="2" stroke-linecap="round" stroke-linejoin="round"/>
<path d="M228.221 45.1135C228.321 44.8661 228.386 44.7595 228.415 44.7937C228.442 44.7634 228.48 44.7346 228.529 44.7073V44.6871C227.592 45.3597 227.18 45.6238 227.293 45.4795C227.406 45.3348 226.872 45.9896 225.691 47.444C224.511 48.8979 223.138 51.0045 221.572 53.7638C220.007 56.5226 218.445 59.2272 216.888 61.8777C215.332 64.5282 212.71 69.0905 209.023 75.5646C209.076 75.5485 209.526 75.118 210.373 74.2729C211.22 73.4274 211.764 72.8963 212.006 72.6796" stroke="#0086B6" stroke-width="2" stroke-linecap="round" stroke-linejoin="round"/>
<path d="M239.41 50.5987C239.41 50.5545 239.464 50.4392 239.571 50.2529C239.591 50.434 238.996 51.9007 237.787 54.6531C236.577 57.4058 235.61 60.4658 234.883 63.8331C234.91 64.035 235.407 63.3774 236.374 61.8602C237.34 60.3425 238.056 58.5508 238.52 56.4849C238.984 54.419 239.272 52.413 239.384 50.4667C239.701 50.3146 240.028 50.1322 240.367 49.9194C240.705 49.7066 241.195 49.4897 241.836 49.2687C242.478 49.0477 243.123 48.8886 243.773 48.7915C244.423 48.694 244.928 48.6505 245.288 48.6609C245.648 48.6713 245.995 48.6589 246.329 48.6238C246.663 48.5883 246.919 48.7983 247.096 49.2537C247.273 49.7092 247.332 50.2611 247.272 50.9094C247.212 51.5582 246.848 52.4448 246.18 53.5694C245.513 54.6944 244.928 55.657 244.427 56.4569C243.925 57.2574 243.727 57.9217 243.834 58.45C243.939 58.9783 244.133 59.349 244.416 59.5622C244.698 59.7759 244.954 60.1904 245.183 60.8058C245.412 61.4212 245.346 62.0082 244.986 62.5668C244.625 63.1254 244.043 63.4732 243.241 63.6101C242.439 63.7471 241.814 63.8435 241.366 63.8994C240.919 63.9553 240.483 63.873 240.057 63.6524C239.631 63.4318 239.368 63.1928 239.266 62.9354C239.165 62.6779 239.128 62.5761 239.155 62.6298C239.272 62.3984 239.372 62.2727 239.455 62.2528C239.537 62.2333 239.634 62.1878 239.746 62.1163" stroke="#0086B6" stroke-width="2" stroke-linecap="round" stroke-linejoin="round"/>
<path d="M258.312 49.7757C258.32 49.7683 258.302 49.78 258.258 49.8108C258.214 49.842 258.545 49.6305 259.252 49.1764C259.077 50.0258 258.974 50.3493 258.941 50.1469C258.909 49.9445 257.163 55.0416 253.704 65.4381C253.566 65.6383 253.643 65.3752 253.933 64.6489C254.224 63.9221 254.447 63.4504 254.604 63.2337" stroke="#0086B6" stroke-width="2" stroke-linecap="round" stroke-linejoin="round"/>
<path d="M264.075 48.5263C263.973 48.7963 264.255 48.2919 264.921 47.013C265.103 46.6819 263.949 46.9337 261.459 47.7684C258.969 48.6026 255.646 49.4665 251.488 50.3601C251.488 50.3905 251.488 50.4191 251.488 50.4459C252.091 50.5712 252.763 50.6626 253.505 50.7202C254.247 50.7779 254.725 50.8355 254.94 50.8932" stroke="#0086B6" stroke-width="2" stroke-linecap="round" stroke-linejoin="round"/>
<path d="M270.899 44.9413C271.255 44.8516 271.411 44.8245 271.369 44.86C271.427 44.86 271.479 44.86 271.524 44.86C271.849 45.1114 271.241 46.6318 269.7 49.4214C268.159 52.211 266.929 54.4077 266.01 56.0116C265.091 57.6155 264.375 58.8964 263.863 59.8541C263.35 60.8123 262.984 61.5754 262.764 62.1436C262.544 62.7117 262.38 63.1564 262.271 63.4775C262.163 63.7986 262.117 64.1217 262.132 64.4467C262.148 64.7717 262.145 65.0136 262.122 65.1722C262.099 65.3308 262.326 65.5048 262.803 65.6942C263.28 65.884 263.881 65.9605 264.606 65.9236C265.33 65.8868 266 65.7737 266.613 65.5843C267.227 65.3949 267.737 65.1969 268.142 64.9902C268.547 64.7839 269.241 64.2422 270.223 63.365C271.206 62.4883 271.909 61.7403 272.333 61.1211C272.756 60.5018 273.004 60.126 273.075 59.9939" stroke="#0086B6" stroke-width="2" stroke-linecap="round" stroke-linejoin="round"/>
<path d="M282.896 45.7636C283.264 45.6479 283.482 45.584 283.55 45.5718C283.618 45.5601 283.626 45.5666 283.574 45.5913C283.618 45.5913 283.647 45.5913 283.661 45.5913C283.746 45.9259 283.254 46.5874 282.185 47.5759C281.116 48.5649 279.868 50.2141 278.443 52.5235C277.017 54.8333 275.833 56.9131 274.892 58.7627C273.949 60.6127 273.386 62.5924 273.203 64.7016C273.348 65.2112 274.453 65.1534 276.519 64.528C278.584 63.9022 280.166 63.4331 281.264 63.1206C282.363 62.8082 283.13 62.5339 283.566 62.2977C284.002 62.0615 284.301 61.8498 284.462 61.6626C284.623 61.4754 284.699 61.3048 284.688 61.151C284.678 60.9967 284.676 60.9005 284.684 60.8624C284.692 60.8242 284.698 60.8069 284.703 60.8104C284.707 60.8143 284.708 60.8171 284.707 60.8188C284.704 60.8205 284.665 60.6736 284.588 60.3781C284.511 60.0825 284.223 59.7982 283.724 59.5252C283.226 59.2517 282.904 59.0795 282.761 59.0084" stroke="#0086B6" stroke-width="2" stroke-linecap="round" stroke-linejoin="round"/>
<path d="M278.153 56.7638C278.085 56.8348 278.398 56.8361 279.092 56.7677C279.787 56.6992 280.654 56.2961 281.694 55.5586C282.733 54.821 283.585 54.2736 284.25 53.9165C284.914 53.559 285.614 53.33 286.348 53.2294C286.46 53.1128 286.388 52.9365 286.133 52.7003C285.878 52.4637 285.681 52.2946 285.542 52.1932" stroke="#0086B6" stroke-width="2" stroke-linecap="round" stroke-linejoin="round"/>
<path d="M281.485 49.4305C282.329 49.2407 285.571 47.8102 291.211 45.1389C290.959 44.5335 290.832 44.3389 290.828 44.5551C290.618 44.4841 290.45 44.4264 290.324 44.3822" stroke="#0086B6" stroke-width="2" stroke-linecap="round" stroke-linejoin="round"/>
<path d="M9.21097 103.385C9.23847 103.611 9.24254 103.717 9.2232 103.705C9.2043 103.693 9.19121 103.698 9.1839 103.722C9.17703 103.745 9.01997 103.838 8.71276 104.001C8.40598 104.164 8.24507 104.22 8.23003 104.167C8.19007 104.167 8.16322 104.167 8.14947 104.167C8.23669 103.634 8.34433 103.389 8.47237 103.43C8.38558 103.492 8.79871 103.174 9.71175 102.477C10.6252 101.78 11.5544 101.249 12.4992 100.885C13.4441 100.52 14.188 100.333 14.7311 100.324C15.2747 100.314 15.6564 100.331 15.8764 100.374C16.0964 100.418 16.2573 100.562 16.3591 100.807C16.461 101.053 16.5645 101.476 16.6698 102.077C16.7751 102.678 16.6973 103.582 16.4365 104.791C16.1761 106 15.6459 107.355 14.8458 108.857C14.0458 110.359 13.2634 111.648 12.4986 112.725C11.7338 113.802 10.5227 114.675 8.86551 115.344C7.20828 116.013 6.51071 116.201 6.7728 115.908C7.0349 115.615 7.07508 115.454 6.89333 115.426C6.81728 115.008 6.83747 114.438 6.95391 113.718C7.07035 112.998 7.38209 112.392 7.8891 111.9C8.39568 111.408 9.04961 111.029 9.85095 110.763C10.6523 110.497 11.8371 110.99 13.4054 112.242C14.9732 113.493 16.2743 114.585 17.3085 115.517C18.3423 116.45 19.456 117.294 20.6496 118.051C20.6943 118.454 20.748 117.959 20.8107 116.566C20.8734 115.173 20.934 114.348 20.9925 114.091" stroke="#0086B6" stroke-width="2" stroke-linecap="round" stroke-linejoin="round"/>
<path d="M19.5817 90.8811C19.4897 90.9287 19.4047 91.1151 19.3265 91.4401C19.9929 91.4401 20.284 91.4401 20.1997 91.4401C20.4034 91.4128 20.6455 91.3998 20.9261 91.4011C21.2062 91.4029 21.6475 91.4473 22.2499 91.5344C22.8519 91.6211 23.537 92.2198 24.3052 93.3305C25.0735 94.4416 25.6649 95.418 26.0795 96.2596C26.4942 97.1008 26.8375 98.5086 27.1095 100.483C27.3814 102.457 27.3535 104.543 27.0257 106.74C26.6978 108.938 26.0978 111.031 25.2256 113.019C24.3529 115.008 23.6184 116.527 23.022 117.578C22.4252 118.629 21.9889 119.362 21.713 119.779C21.4367 120.196 21.1742 120.582 20.9255 120.939C20.6762 121.297 20.3325 121.826 19.8942 122.528C19.4556 123.229 18.0237 124.757 15.5986 127.112C15.3907 126.835 15.6947 126.323 16.5106 125.576C17.3265 124.829 17.8129 124.376 17.9698 124.217" stroke="#0086B6" stroke-width="2" stroke-linecap="round" stroke-linejoin="round"/>
<path d="M50.0092 101.364C50.1566 101.221 50.2222 101.16 50.2059 101.182C50.1895 101.204 50.3388 100.963 50.6537 100.46C50.8931 100.146 50.2821 100.974 48.8208 102.943C47.3595 104.913 44.5987 109.373 40.5383 116.325C40.6019 116.438 40.9493 116.183 41.5805 115.559C42.2112 114.935 42.634 114.53 42.8488 114.344" stroke="#0086B6" stroke-width="2" stroke-linecap="round" stroke-linejoin="round"/>
<path d="M60.2188 96.5287C60.2188 96.5153 60.2188 96.5019 60.2188 96.4884V96.5086C60.2162 96.5675 58.481 97.1107 55.0132 98.1383C51.5449 99.1662 48.8745 99.9796 47.002 100.579C45.1291 101.177 43.6392 101.73 42.5324 102.236C41.4255 102.741 40.5325 103.226 39.8532 103.69C39.7187 103.796 40.03 103.707 40.7871 103.424C41.5437 103.14 42.0294 102.955 42.2443 102.867" stroke="#0086B6" stroke-width="2" stroke-linecap="round" stroke-linejoin="round"/>
<path d="M48.222 113.004C48.2706 113.434 48.2611 113.618 48.1937 113.557C48.1258 113.495 48.2564 113.509 48.5855 113.6C48.9147 113.691 49.0382 113.783 48.9561 113.876C48.8736 113.969 49.4453 113.806 50.6712 113.389C51.8974 112.972 52.8382 112.535 53.4934 112.079C54.1482 111.622 54.8239 111.196 55.5204 110.799C56.2169 110.403 56.6143 109.443 56.7127 107.92C56.7651 107.974 56.3241 107.952 55.3896 107.855C54.455 107.758 53.3993 108.32 52.2225 109.541C51.0456 110.762 50.1687 111.918 49.5916 113.01C49.0142 114.102 48.6453 115.004 48.485 115.718C48.3243 116.43 48.3028 116.939 48.4206 117.242C48.5379 117.545 48.9866 117.74 49.7669 117.825C50.5476 117.91 51.796 117.641 53.5121 117.018C55.2286 116.394 57.9611 113.949 61.7096 109.682C61.7199 109.883 61.4728 110.3 60.9684 110.932C60.4639 111.564 59.726 113.06 58.7545 115.421C58.9792 115.631 61.6436 113.677 66.7476 109.56C66.843 109.975 66.5115 111.11 65.7532 112.963C66.2645 112.993 67.0785 112.466 68.1952 111.381C69.3119 110.296 70.8108 109.499 72.6919 108.992C73.1327 109.538 72.6154 111.827 71.1399 115.857C71.1536 115.857 71.3139 115.763 71.6207 115.573C71.9275 115.383 72.1659 115.231 72.3361 115.116" stroke="#0086B6" stroke-width="2" stroke-linecap="round" stroke-linejoin="round"/>
<path d="M77.7899 106.493C77.8212 106.493 77.8794 106.499 77.9645 106.513C78.6928 106.61 75.7262 113.334 69.0646 126.685H69.0446C68.8582 126.467 69.591 124.691 71.243 121.356C72.8947 118.021 74.3072 115.305 75.4806 113.207C76.654 111.11 77.6427 109.52 78.4466 108.44C79.2506 107.359 80.0435 106.492 80.8255 105.837C81.6079 105.184 82.638 104.935 83.9159 105.091C84.0628 105.322 84.1429 105.838 84.1563 106.638C84.1696 107.439 83.8454 108.394 83.1837 109.503C82.522 110.612 81.766 111.604 80.9157 112.478C80.0654 113.352 79.3259 113.956 78.6973 114.289C78.0687 114.621 77.5916 114.833 77.2659 114.925C76.9398 115.017 76.699 115.067 76.5434 115.074C76.3875 115.081 76.2905 115.108 76.2527 115.153C76.2149 115.198 76.0476 115.177 75.7507 115.09C75.4533 115.003 75.2905 114.93 75.2621 114.869C75.2338 114.809 75.2136 114.703 75.2016 114.553C75.1891 114.402 75.2166 114.25 75.284 114.096C75.3515 113.943 75.448 113.809 75.5734 113.694" stroke="#0086B6" stroke-width="2" stroke-linecap="round" stroke-linejoin="round"/>
<path d="M89.7054 112.099C89.7046 112.17 89.7058 112.163 89.7093 112.079C89.7127 111.995 89.7026 112.283 89.679 112.943C89.7881 113.016 89.5619 112.972 89.0003 112.811C88.9587 112.878 88.9728 112.762 89.0429 112.465C89.1129 112.167 89.204 111.961 89.3161 111.845" stroke="#0086B6" stroke-width="2" stroke-linecap="round" stroke-linejoin="round"/>
<path d="M116.586 101.323C116.355 101.439 115.492 101.722 113.997 102.171C112.503 102.62 111.36 103.001 110.567 103.314C109.775 103.626 109.251 103.861 108.995 104.017C108.74 104.174 108.55 104.37 108.425 104.606C108.3 104.841 108.445 105.093 108.858 105.362C109.271 105.63 109.728 105.963 110.229 106.36C110.73 106.758 111.085 107.071 111.294 107.301C111.504 107.531 111.647 107.742 111.725 107.935C111.803 108.128 111.853 108.32 111.876 108.514C111.898 108.707 111.922 109.059 111.947 109.571C111.973 110.083 111.616 110.623 110.877 111.189C110.138 111.757 109.565 112.093 109.16 112.2C108.754 112.306 108.433 112.368 108.197 112.384C107.961 112.401 107.723 112.395 107.483 112.368C107.243 112.341 107.082 112.128 107.001 111.731C106.921 111.333 106.874 111.084 106.86 110.982" stroke="#0086B6" stroke-width="2" stroke-linecap="round" stroke-linejoin="round"/>
<path d="M116.506 106.93C116.21 106.901 116.544 106.919 117.509 106.986C118.472 107.053 119.502 106.715 120.598 105.971C121.695 105.228 122.605 104.603 123.328 104.097C124.051 103.59 124.898 102.327 125.869 100.307C124.878 99.9281 123.611 100.53 122.067 102.113C120.524 103.695 119.202 105.34 118.102 107.047C117.002 108.754 116.34 110.792 116.116 113.161C116.45 113.423 117.246 113.472 118.502 113.309C119.759 113.146 121.877 111.808 124.858 109.294C127.838 106.781 130.929 103.589 134.131 99.7179C134.241 99.7335 133.695 100.724 132.493 102.689C131.29 104.655 130.282 106.965 129.469 109.621C129.523 109.738 129.754 109.694 130.16 109.489C130.567 109.284 131.439 108.501 132.777 107.142C134.115 105.783 135.218 104.778 136.085 104.128C136.952 103.477 137.641 102.996 138.151 102.683C138.661 102.37 139.119 102.254 139.524 102.334C139.84 102.676 139.265 104.855 137.798 108.869C137.839 108.869 138.051 108.775 138.436 108.588C138.821 108.4 139.106 108.25 139.29 108.138" stroke="#0086B6" stroke-width="2" stroke-linecap="round" stroke-linejoin="round"/>
<path d="M149.445 98.6414C149.432 98.6752 149.432 98.673 149.444 98.6349C149.455 98.5963 149.455 98.5926 149.442 98.6238C149.43 98.655 149.422 98.6784 149.418 98.694C149.414 98.7101 149.466 98.6516 149.575 98.5185C149.684 98.3859 149.825 98.1476 149.996 97.8035C149.559 97.6275 148.975 97.74 148.245 98.1408C147.514 98.5417 146.957 98.9792 146.572 99.4533C146.186 99.9274 146.142 100.509 146.439 101.198C146.736 101.887 146.927 102.436 147.013 102.844C147.098 103.252 147.189 103.766 147.285 104.385C147.382 105.003 147.281 105.613 146.98 106.212C146.679 106.812 146.173 107.458 145.463 108.152C144.753 108.845 143.472 109.177 141.62 109.149C141.593 109.084 141.553 109.046 141.501 109.034C141.449 109.022 141.506 108.883 141.67 108.618C141.834 108.352 141.994 108.162 142.151 108.047" stroke="#0086B6" stroke-width="2" stroke-linecap="round" stroke-linejoin="round"/>
<path d="M158.835 100.236C158.846 100.281 159.102 100.069 159.603 99.5996C160.104 99.1298 160.31 98.3721 160.219 97.3264C160 97.1933 159.635 97.0791 159.124 96.9838C158.612 96.8889 157.912 97.057 157.022 97.4882C156.132 97.9194 155.206 98.8031 154.245 100.139C153.284 101.475 152.519 102.704 151.951 103.826C151.382 104.949 151.021 105.919 150.867 106.737C150.714 107.553 150.779 108.162 151.063 108.562C151.348 108.962 151.903 109.169 152.728 109.185C153.554 109.2 154.485 108.915 155.52 108.332C156.556 107.748 157.49 107.024 158.324 106.161C159.158 105.298 159.832 104.465 160.345 103.664C160.859 102.862 161.226 102.221 161.447 101.742C161.668 101.263 161.861 100.782 162.026 100.3C162.191 99.818 162.31 98.9773 162.382 97.7781C162.44 97.6954 162.415 97.7508 162.305 97.9446C162.195 98.1383 162.117 98.2724 162.073 98.3469" stroke="#0086B6" stroke-width="2" stroke-linecap="round" stroke-linejoin="round"/>
<path d="M166.56 97.1385C166.777 97.5012 165.68 100.491 163.268 106.107C163.411 105.853 163.523 105.665 163.602 105.542C163.682 105.421 163.741 105.343 163.78 105.31C163.82 105.276 164.092 104.917 164.597 104.232C165.101 103.548 165.733 102.717 166.493 101.74C167.252 100.763 167.953 99.9482 168.594 99.296C169.235 98.6438 170.293 98.1112 171.766 97.6982C173.239 97.2847 174.732 97.1693 176.245 97.3517C176.109 96.8213 175.855 96.4551 175.485 96.2531C175.114 96.0507 174.844 95.8988 174.673 95.7974" stroke="#0086B6" stroke-width="2" stroke-linecap="round" stroke-linejoin="round"/>
<path d="M9.97663 140.61C9.88296 140.988 8.84854 141.672 6.87335 142.662V142.682C6.82566 142.802 7.71013 142.35 9.52677 141.326C11.343 140.303 13.423 139.576 15.7668 139.147C16.1776 139.332 15.9256 140.08 15.0108 141.393C14.0965 142.706 13.2604 144.199 12.5024 145.872C12.6477 145.983 12.6608 146.014 12.5418 145.963C12.4227 145.913 12.6054 145.978 13.0896 146.158C13.5734 146.338 14.0482 146.522 14.5139 146.71C14.9793 146.898 15.2959 147.195 15.4639 147.599C15.6319 148.004 15.6622 148.62 15.5548 149.449C15.4478 150.277 13.3779 151.847 9.34503 154.16C9.69478 153.719 9.87737 153.493 9.89284 153.481C9.90831 153.47 9.98093 153.391 10.1107 153.246" stroke="#0086B6" stroke-width="2" stroke-linecap="round" stroke-linejoin="round"/>
<path d="M18.9906 132.373C18.6886 132.373 18.5588 132.373 18.6014 132.373C18.081 132.456 17.9175 132.486 18.1109 132.464C18.0838 132.464 18.0501 132.529 18.0097 132.657C18.7109 132.868 18.964 132.946 18.7689 132.891C18.9911 132.908 19.5245 133.162 20.3692 133.653C21.2135 134.143 21.8389 134.821 22.2454 135.687C22.6514 136.554 22.9154 137.723 23.0375 139.196C23.1595 140.668 23.048 142.358 22.703 144.265C22.3579 146.172 21.7145 148.26 20.7727 150.528C19.8309 152.796 18.764 154.825 17.5721 156.614C16.3806 158.404 14.7758 160.257 12.7577 162.174C12.6386 162.261 12.8275 162.009 13.3242 161.42C13.8209 160.83 14.1496 160.35 14.3103 159.978C14.4705 159.607 14.5932 159.364 14.6783 159.248" stroke="#0086B6" stroke-width="2" stroke-linecap="round" stroke-linejoin="round"/>
<path d="M42.379 139.097C42.3987 139.11 42.4971 139.025 42.6742 138.843C42.3158 138.879 41.3226 140.1 39.6946 142.508C38.0662 144.915 36.8219 147.041 35.9617 148.886C35.1015 150.731 34.4875 152.171 34.1197 153.205C33.7523 154.24 33.5319 155.219 33.4584 156.14C33.6531 155.965 33.7689 155.848 33.8058 155.79C33.8432 155.732 33.9111 155.646 34.0095 155.531" stroke="#0086B6" stroke-width="2" stroke-linecap="round" stroke-linejoin="round"/>
<path d="M36.2259 150.534C36.6461 150.702 37.2713 150.709 38.1014 150.556C38.9315 150.402 40.0639 150.005 41.4986 149.362C42.9337 148.721 44.0942 148.264 44.9802 147.993C45.8662 147.721 46.7184 147.59 47.5369 147.598C47.5236 147.598 47.5103 147.598 47.497 147.598" stroke="#0086B6" stroke-width="2" stroke-linecap="round" stroke-linejoin="round"/>
<path d="M54.3616 135.949C54.3878 135.917 54.4681 135.832 54.6026 135.693C54.7366 135.555 54.8037 135.486 54.8037 135.486C54.8037 135.485 54.8091 135.483 54.8198 135.479C54.8306 135.474 54.9779 135.302 55.2619 134.963C55.2396 135.058 54.8065 135.645 53.9626 136.723C53.1187 137.802 52.1114 139.544 50.9405 141.949C49.7693 144.355 48.8068 146.42 48.0532 148.145C47.3 149.87 46.3308 151.916 45.1458 154.282C45.3731 153.967 45.6685 153.674 46.032 153.401C46.3951 153.128 46.6683 152.921 46.8518 152.778" stroke="#0086B6" stroke-width="2" stroke-linecap="round" stroke-linejoin="round"/>
<path d="M52.5344 146.39C52.5482 146.39 52.5885 146.39 52.6556 146.39C52.8231 146.478 52.6032 146.959 51.9956 147.833C51.3881 148.706 51.0166 149.581 50.8813 150.455C50.7459 151.33 50.6817 152.121 50.6885 152.83C50.6954 153.538 50.8555 153.974 51.1687 154.136C51.4815 154.299 51.8635 154.418 52.3146 154.494C52.7654 154.57 53.4421 154.542 54.3448 154.41C55.2471 154.278 56.1024 153.249 56.9106 151.324C57.7188 149.399 58.1811 148.401 58.2976 148.33" stroke="#0086B6" stroke-width="2" stroke-linecap="round" stroke-linejoin="round"/>
<path d="M61.4008 147.253C61.4008 147.887 61.4008 148.132 61.4008 147.989C61.2698 148.734 61.2161 149.006 61.2397 148.807C61.1843 149.101 60.9946 149.549 60.6706 150.151C60.3462 150.753 59.9941 151.828 59.6143 153.378C59.2353 153.579 61.0578 152.184 65.0816 149.193C65.0468 149.842 65.0154 150.122 64.9875 150.036C64.771 150.527 64.4888 151.269 64.1412 152.26C64.1855 152.449 64.6835 152.064 65.6352 151.105C66.5873 150.146 67.8246 149.473 69.3469 149.087C69.4251 150.239 69.4657 150.73 69.4687 150.56C69.4717 150.391 69.4371 150.482 69.365 150.833C69.2932 151.184 69.1946 151.495 69.0691 151.766C68.9441 152.038 68.8691 152.199 68.8442 152.252C68.8197 152.304 68.7293 152.501 68.5729 152.843C68.4165 153.184 68.3454 153.341 68.3595 153.312C68.2087 153.617 68.146 153.734 68.1713 153.662C68.14 153.703 68.1176 153.753 68.1043 153.815C68.1043 153.77 68.3002 153.475 68.6921 152.929C69.084 152.382 69.3716 152 69.5551 151.783" stroke="#0086B6" stroke-width="2" stroke-linecap="round" stroke-linejoin="round"/>
<path d="M74.8883 146.258C74.8402 146.613 74.8772 147.284 74.9992 148.271C75.1216 149.258 74.9714 149.972 74.5487 150.412C74.1259 150.852 73.8852 151.092 73.8268 151.133" stroke="#0086B6" stroke-width="2" stroke-linecap="round" stroke-linejoin="round"/>
<path d="M74.6331 145.313C74.6331 145.3 74.6331 145.242 74.6331 145.14C74.7796 145.202 74.8399 145.163 74.8142 145.023C74.7884 144.884 74.8346 145.106 74.9528 145.688C75.0709 146.271 75.1523 146.607 75.197 146.695" stroke="#0086B6" stroke-width="2" stroke-linecap="round" stroke-linejoin="round"/>
<path d="M84.708 146.39C84.7251 146.335 84.7836 146.238 84.8833 146.098C84.983 145.959 85.0266 145.875 85.0141 145.847C85.0017 145.819 84.9969 145.791 84.9999 145.765C85.0025 145.739 85.0393 145.643 85.1101 145.478C85.1806 145.313 85.1392 145.193 84.9858 145.119C84.8319 145.045 84.5406 144.985 84.1118 144.939C83.6826 144.893 83.2514 144.851 82.8183 144.813C82.3852 144.775 81.8704 145.053 81.2741 145.649C80.6772 146.244 80.1885 146.802 79.8078 147.323C79.4272 147.844 79.0647 148.506 78.7206 149.309C78.3764 150.112 78.2384 151.094 78.3068 152.256C78.568 152.557 79.2667 152.463 80.4027 151.973C81.5392 151.484 82.7291 150.43 83.9726 148.811C85.2156 147.192 86.385 145.531 87.4806 143.828C88.5763 142.125 89.5845 140.481 90.5053 138.895C91.426 137.308 92.5073 134.213 93.749 129.611C93.8199 129.44 93.3967 130.473 92.4794 132.71C91.5616 134.947 90.6544 137.322 89.7576 139.836C88.8609 142.35 88.1223 144.304 87.5419 145.697C86.9618 147.091 86.6151 148.796 86.5016 150.813C87.1637 150.723 87.6091 150.431 87.8377 149.936C88.0667 149.441 88.2594 149.092 88.4158 148.888" stroke="#0086B6" stroke-width="2" stroke-linecap="round" stroke-linejoin="round"/>
<path d="M92.2177 146.176C92.4523 145.998 92.3247 147.356 91.8348 150.25C91.6217 150.315 91.4866 150.329 91.4295 150.291C91.3728 150.253 91.3085 150.205 91.2368 150.148" stroke="#0086B6" stroke-width="2" stroke-linecap="round" stroke-linejoin="round"/>
<path d="M92.3924 143.851C92.5071 143.44 93.031 143.555 93.9643 144.196C93.9776 144.179 93.9909 144.162 94.0042 144.145" stroke="#0086B6" stroke-width="2" stroke-linecap="round" stroke-linejoin="round"/>
<path d="M107.075 125.73C107.599 125.73 107.79 125.73 107.646 125.73C107.955 125.388 107.774 126.066 107.102 127.764C106.431 129.463 105.779 131.192 105.146 132.952C104.514 134.711 103.671 137.021 102.62 139.883C101.569 142.745 100.421 146.193 99.1764 150.229C99.2881 150.172 99.4 150.114 99.5122 150.057" stroke="#0086B6" stroke-width="2" stroke-linecap="round" stroke-linejoin="round"/>
<path d="M103.864 144.45C103.916 143.986 103.874 143.806 103.737 143.912C103.677 143.889 103.316 143.713 102.656 143.384C101.996 143.055 101.174 142.78 100.192 142.558C99.2099 142.336 98.3742 142.499 97.685 143.048C97.7254 143.133 97.7658 143.211 97.8062 143.282" stroke="#0086B6" stroke-width="2" stroke-linecap="round" stroke-linejoin="round"/>
<path d="M103.703 144.409C103.76 144.42 104.57 144.52 106.132 144.709C107.694 144.898 108.98 145.204 109.989 145.628C110.997 146.051 111.544 146.278 111.629 146.308" stroke="#0086B6" stroke-width="2" stroke-linecap="round" stroke-linejoin="round"/>
<path d="M114.155 141.951C113.987 141.87 113.775 142.052 113.518 142.499C113.261 142.946 112.454 143.9 111.098 145.361C109.741 146.822 108.53 148.348 107.464 149.94C106.398 151.532 105.051 153.637 103.42 156.256C101.79 158.875 100.12 161.569 98.4107 164.337C98.4373 164.249 98.5963 163.932 98.8876 163.385C99.1785 162.838 99.3867 162.479 99.5122 162.306" stroke="#0086B6" stroke-width="2" stroke-linecap="round" stroke-linejoin="round"/>
<path d="M138.43 136.172C138.754 136.1 138.32 136.405 137.129 137.087C135.937 137.769 134.994 138.378 134.299 138.913C133.604 139.448 133.186 139.939 133.045 140.386C132.904 140.834 132.898 141.271 133.028 141.697C133.158 142.123 133.401 142.614 133.756 143.169C134.111 143.723 134.337 144.279 134.435 144.835C134.532 145.392 134.483 146.004 134.285 146.669C134.087 147.335 133.555 148.044 132.689 148.794C131.822 149.544 130.801 150.053 129.624 150.321C129.4 150.063 129.371 149.757 129.539 149.401C129.707 149.046 129.854 148.817 129.98 148.716" stroke="#0086B6" stroke-width="2" stroke-linecap="round" stroke-linejoin="round"/>
<path d="M137.113 144.835C137.219 144.988 137.773 144.947 138.776 144.712C139.778 144.476 140.836 143.944 141.95 143.117C143.063 142.289 143.904 141.631 144.473 141.143C145.042 140.656 145.848 139.925 146.892 138.951C147.935 137.977 148.616 136.734 148.935 135.222C149.101 135.107 148.681 135.144 147.673 135.334C146.665 135.525 145.541 136.366 144.3 137.859C143.059 139.352 142.024 140.7 141.195 141.904C140.365 143.108 139.783 144.154 139.449 145.044C139.114 145.934 138.938 146.601 138.922 147.045C138.905 147.489 138.901 147.89 138.908 148.248C138.915 148.605 139.186 148.801 139.722 148.836C140.257 148.871 140.808 148.93 141.374 149.013C141.94 149.096 143.151 148.358 145.006 146.799C146.862 145.241 149.949 141.712 154.268 136.212C154.354 136.169 153.818 137.054 152.662 138.869C151.505 140.684 150.603 142.788 149.955 145.181C149.914 145.633 150.652 145.258 152.171 144.054C153.689 142.85 155.989 140.551 159.071 137.157C159.484 137.091 159.134 138.198 158.02 140.477C156.905 142.756 155.924 145.174 155.074 147.731C155.113 147.842 155.358 147.729 155.809 147.392C156.259 147.056 156.569 146.823 156.739 146.695" stroke="#0086B6" stroke-width="2" stroke-linecap="round" stroke-linejoin="round"/>
<path d="M169.542 135.004C169.574 135.1 169.166 135.413 168.317 135.945C167.468 136.476 166.767 137.109 166.216 137.843C165.665 138.578 165.454 139.166 165.581 139.608C165.708 140.05 165.949 140.588 166.302 141.222C166.655 141.856 166.745 142.53 166.573 143.243C166.401 143.957 166.051 144.546 165.522 145.011C164.993 145.476 164.546 145.865 164.181 146.177C163.817 146.489 163.141 146.646 162.152 146.647C161.163 146.648 160.626 146.634 160.541 146.603" stroke="#0086B6" stroke-width="2" stroke-linecap="round" stroke-linejoin="round"/>
<path d="M178.852 135.44C178.88 135.506 179.06 135.363 179.392 135.011C179.724 134.658 179.937 134.32 180.03 133.996C180.124 133.671 180.137 133.361 180.07 133.064C180.003 132.767 179.953 132.631 179.918 132.656C179.884 132.681 179.858 132.689 179.839 132.681C179.82 132.673 179.767 132.654 179.681 132.623C179.594 132.592 179.164 132.577 178.392 132.577C177.62 132.577 176.659 133.315 175.512 134.791C174.364 136.266 173.357 137.765 172.492 139.285C171.626 140.806 171.286 142.563 171.47 144.557C172.306 145.226 173.456 144.737 174.92 143.091C176.384 141.444 177.543 139.9 178.397 138.456C179.25 137.013 180.168 135.459 181.149 133.795C181.044 134.227 180.998 134.404 181.009 134.329C181.021 134.253 180.835 134.476 180.453 134.998C180.07 135.52 179.836 135.837 179.751 135.949" stroke="#0086B6" stroke-width="2" stroke-linecap="round" stroke-linejoin="round"/>
<path d="M185.636 133.968C186.031 134.439 184.777 137.791 181.874 144.023C182.547 143.189 183.36 142.051 184.313 140.609C185.267 139.166 186.201 137.924 187.117 136.881C188.032 135.839 189.075 134.941 190.243 134.187C191.412 133.433 193.176 132.987 195.536 132.85C195.536 132.806 195.397 132.73 195.12 132.622C194.842 132.513 194.627 132.444 194.475 132.414" stroke="#0086B6" stroke-width="2" stroke-linecap="round" stroke-linejoin="round"/>
<path d="M15.8738 172.615C15.8313 172.526 16.0597 172.353 16.5589 172.097C16.6182 172.119 16.1643 173.995 15.1971 177.725C14.2304 181.455 13.0902 185.288 11.7767 189.222C11.8283 188.759 12.1357 188.216 12.699 187.593C13.2619 186.969 13.635 186.564 13.8185 186.378" stroke="#0086B6" stroke-width="2" stroke-linecap="round" stroke-linejoin="round"/>
<path d="M19.3264 178.649C19.2805 178.625 19.3969 178.456 19.6758 178.141C19.3801 178.091 18.1562 178.84 16.004 180.389C13.8518 181.938 11.1823 183.301 7.99543 184.479C7.61861 184.246 8.96411 180.766 12.0319 174.037C12.0453 174.037 12.0721 174.037 12.1125 174.037C12.1125 174.051 12.1271 174.141 12.1563 174.306C12.1856 174.472 12.2292 174.569 12.2872 174.596" stroke="#0086B6" stroke-width="2" stroke-linecap="round" stroke-linejoin="round"/>
<path d="M21.073 163.515C21.1753 164.268 21.2492 164.541 21.2947 164.332C21.5096 164.504 21.8374 165.041 22.2782 165.941C22.7187 166.84 23.0151 168.214 23.1677 170.061C23.3198 171.908 23.2527 174.041 22.9666 176.458C22.6804 178.875 21.8522 181.486 20.482 184.29C19.1114 187.095 17.97 189.246 17.0578 190.742C16.1452 192.238 15.1372 193.715 14.0338 195.174C14.1214 194.739 14.393 194.174 14.8484 193.477C15.3039 192.78 15.5741 192.381 15.6592 192.279" stroke="#0086B6" stroke-width="2" stroke-linecap="round" stroke-linejoin="round"/>
<path d="M32.6928 179.431C32.7538 179.468 32.3239 179.973 31.4031 180.944C31.4061 180.933 31.4016 180.935 31.3896 180.952C31.3775 180.97 31.4996 180.863 31.7556 180.632C32.0117 180.402 34.469 177.929 39.1275 173.215C39.2706 173.145 39.1008 173.67 38.6183 174.787C38.1358 175.905 37.8204 176.829 37.6722 177.56C37.524 178.291 37.449 178.862 37.4473 179.273C37.446 179.685 37.5345 179.968 37.7128 180.122C37.8911 180.275 38.5541 180.399 39.7017 180.493C40.8489 180.587 42.1244 180.31 43.5281 179.662C44.9314 179.014 45.9925 178.463 46.7113 178.01C47.4297 177.556 47.9505 177.17 48.2736 176.85C48.5963 176.53 48.8126 176.25 48.9226 176.009C49.0326 175.769 49.0689 175.675 49.0315 175.727C48.9942 175.78 48.9989 175.746 49.0457 175.625C49.0925 175.504 49.145 175.408 49.203 175.337" stroke="#0086B6" stroke-width="2" stroke-linecap="round" stroke-linejoin="round"/>
<path d="M31.4031 185.941C31.245 186.246 31.2594 186.477 31.4463 186.636C31.6328 186.794 31.7791 186.822 31.8852 186.718C31.9913 186.614 33.9444 185.58 37.7444 183.616C37.8638 183.014 37.7495 184.208 37.4015 187.196C37.4071 187.712 38.773 187.465 41.4992 186.454C44.2259 185.443 47.3356 184.439 50.8284 183.443C50.7704 183.385 50.7122 183.328 50.6537 183.27" stroke="#0086B6" stroke-width="2" stroke-linecap="round" stroke-linejoin="round"/>
<path d="M73.8268 166.623C74.1568 166.187 74.2911 166.028 74.2296 166.145L74.2567 166.104C74.542 165.939 74.1834 166.586 73.181 168.048C72.1786 169.51 71.1994 170.961 70.2434 172.401C69.2869 173.841 68.4411 175.237 67.706 176.589C66.9708 177.94 66.2507 179.233 65.5456 180.469C64.841 181.705 63.6877 184.687 62.0859 189.415C62.3747 189.432 62.8946 188.977 63.6456 188.049C64.3971 187.121 64.8579 186.564 65.0281 186.378" stroke="#0086B6" stroke-width="2" stroke-linecap="round" stroke-linejoin="round"/>
<path d="M77.8305 180.64C77.8305 181.013 77.8305 181.157 77.8305 181.071C77.8305 181.115 77.8393 181.171 77.8569 181.238C77.9643 181.202 77.9664 181.226 77.8633 181.313C77.7598 181.399 78.0253 181.202 78.6599 180.722C79.2946 180.24 79.8101 179.921 80.2067 179.763C80.6033 179.604 80.8708 179.512 81.0091 179.485C81.1475 179.459 81.5035 179.42 82.0771 179.369C82.6507 179.318 83.0043 179.501 83.1379 179.917C83.2716 180.333 83.3633 180.641 83.4131 180.839C83.4634 181.038 83.4245 181.464 83.2965 182.119C83.1689 182.774 82.901 183.317 82.4928 183.749C82.0846 184.181 81.6145 184.673 81.0826 185.226C80.5511 185.779 79.8265 186.206 78.9087 186.506C77.9914 186.805 77.2867 186.986 76.7947 187.048C76.3028 187.11 75.7741 187.11 75.2086 187.047C74.6432 186.983 74.1512 186.487 73.7327 185.559C73.3146 184.631 73.0588 183.529 72.9651 182.252C72.8719 180.975 72.9662 179.692 73.248 178.403C73.5299 177.114 74.1444 176.004 75.0913 175.073C76.0383 174.142 76.8968 173.536 77.6668 173.256C78.4371 172.975 79.5006 172.81 80.857 172.76C82.2131 172.709 83.4477 172.718 84.561 172.788C85.6743 172.857 86.4036 172.942 86.7491 173.043C87.0945 173.144 87.3098 173.188 87.3949 173.174" stroke="#0086B6" stroke-width="2" stroke-linecap="round" stroke-linejoin="round"/>
<path d="M70.9659 167.354C70.828 167.337 70.9981 167.38 71.4763 167.481C71.3595 167.566 71.3567 167.554 71.468 167.445C71.5792 167.337 71.7305 167.219 71.9217 167.093C72.1129 166.966 72.2375 166.88 72.2955 166.836" stroke="#0086B6" stroke-width="2" stroke-linecap="round" stroke-linejoin="round"/>
<path d="M73.0612 166.359C73.3808 166.359 73.5353 166.359 73.5246 166.359C73.3716 166.603 73.5127 166.416 73.948 165.8C74.1826 165.736 73.7864 166.113 72.7595 166.931C71.7326 167.749 70.7027 168.5 69.6698 169.183C68.6373 169.867 67.3766 170.838 65.8878 172.097C66.602 171.893 67.0535 171.641 67.2426 171.34C67.4321 171.039 67.5625 170.845 67.6338 170.757" stroke="#0086B6" stroke-width="2" stroke-linecap="round" stroke-linejoin="round"/>
<path d="M66.8681 187.841C66.9399 187.841 67.11 187.841 67.3786 187.841C67.0181 187.801 65.7699 188.204 63.634 189.05C61.4977 189.896 59.0606 190.6 56.3228 191.162C56.7262 190.571 56.9211 190.341 56.9073 190.472C57.2206 190.255 57.4692 190.082 57.6531 189.954" stroke="#0086B6" stroke-width="2" stroke-linecap="round" stroke-linejoin="round"/>
<path d="M94.9446 172.361C95.2114 172.141 95.3693 172.012 95.4183 171.974C95.4673 171.938 95.4886 171.921 95.4821 171.924C95.6862 171.764 95.7668 171.699 95.7238 171.732C95.7372 171.718 95.7507 171.711 95.7644 171.711C95.4039 172.112 94.6995 173.529 93.6511 175.961C92.6027 178.393 91.2561 181.649 89.6114 185.728C89.4253 185.824 89.6498 185.413 90.2849 184.494C90.9195 183.577 91.3085 183.009 91.452 182.793" stroke="#0086B6" stroke-width="2" stroke-linecap="round" stroke-linejoin="round"/>
<path d="M94.864 172.189C94.9306 172.433 94.8008 172.704 94.4747 173.002C94.4923 173.07 95.2135 172.633 96.6383 171.689C98.0627 170.746 100.366 169.863 103.549 169.04C103.99 168.935 103.544 169.721 102.213 171.397C100.883 173.072 99.738 174.467 98.7794 175.579C97.8212 176.691 97.2549 177.882 97.0805 179.152C97.0169 179.009 98.0066 179.397 100.05 180.315C100.28 181.156 99.7824 182.115 98.557 183.19C97.3316 184.266 96.3195 185.091 95.5208 185.667C94.7225 186.243 94.0002 186.568 93.354 186.642C92.7077 186.715 92.2437 186.714 91.9618 186.639C91.68 186.563 91.4965 186.503 91.4114 186.46" stroke="#0086B6" stroke-width="2" stroke-linecap="round" stroke-linejoin="round"/>
<path d="M116.922 183.311C116.922 183.341 116.953 183.412 117.016 183.524C117.189 183.604 117.311 183.621 117.382 183.576C117.452 183.53 117.826 183.245 118.504 182.719C119.182 182.193 119.77 181.818 120.268 181.594C120.766 181.369 121.259 181.248 121.746 181.231C122.232 181.214 122.544 181.211 122.679 181.221C122.815 181.232 122.928 181.229 123.019 181.213C123.11 181.197 123.408 181.313 123.913 181.559C124.418 181.806 124.717 182.328 124.809 183.127C124.901 183.925 124.795 184.573 124.49 185.07C124.186 185.568 123.658 186.112 122.907 186.701C122.155 187.291 121.427 187.64 120.721 187.749C120.016 187.857 119.401 187.941 118.878 188.001C118.355 188.06 117.957 187.951 117.683 187.674C117.41 187.396 117.22 187.074 117.114 186.709C117.007 186.343 117.008 185.937 117.116 185.492C117.224 185.046 117.46 184.68 117.826 184.392C118.19 184.104 118.458 183.89 118.628 183.748" stroke="#0086B6" stroke-width="2" stroke-linecap="round" stroke-linejoin="round"/>
<path d="M126.487 186.205C126.341 186.218 126.512 186.791 126.998 187.922C127.25 187.901 127.971 186.417 129.162 183.473C130.354 180.528 131.38 178.113 132.241 176.228C133.102 174.343 133.89 172.859 134.605 171.776C135.32 170.694 136.022 169.883 136.71 169.343C137.397 168.804 138.04 168.451 138.637 168.286C139.235 168.121 139.713 168.053 140.071 168.081C140.43 168.108 140.723 168.168 140.952 168.261C141.181 168.353 141.286 168.408 141.267 168.426C141.247 168.443 141.307 168.497 141.446 168.586C141.585 168.677 141.689 168.978 141.757 169.489C141.825 170.001 141.729 170.431 141.471 170.778C141.212 171.126 141.013 171.407 140.874 171.62" stroke="#0086B6" stroke-width="2" stroke-linecap="round" stroke-linejoin="round"/>
<path d="M137.247 176.709C137.213 177.404 135.892 177.958 133.283 178.37C130.674 178.783 127.482 179.028 123.706 179.105C123.706 179.119 123.706 179.156 123.706 179.217C123.765 179.217 123.823 179.217 123.881 179.217" stroke="#0086B6" stroke-width="2" stroke-linecap="round" stroke-linejoin="round"/>
<path d="M158.835 176.018C158.334 176.338 158.086 176.525 158.09 176.581C158.099 176.691 156.185 177.504 152.347 179.019C152.964 179.279 153.649 179.544 154.399 179.815C155.15 180.087 155.676 180.527 155.976 181.138C156.277 181.747 156.379 182.214 156.282 182.538C156.185 182.862 156.157 183.197 156.198 183.544C156.24 183.89 154.459 184.876 150.856 186.5C150.914 186.402 150.972 186.304 151.03 186.205" stroke="#0086B6" stroke-width="2" stroke-linecap="round" stroke-linejoin="round"/>
<path d="M175.815 157.816C175.847 157.789 175.919 157.762 176.031 157.735C175.656 158.065 174.662 159.406 173.049 161.758C171.436 164.111 170.006 166.562 168.76 169.112C167.514 171.662 166.55 173.642 165.867 175.052C165.184 176.462 164.557 177.766 163.986 178.963C163.414 180.161 162.566 181.969 161.442 184.387C161.55 184.376 161.765 184.249 162.087 184.004C162.409 183.758 162.677 183.541 162.892 183.351" stroke="#0086B6" stroke-width="2" stroke-linecap="round" stroke-linejoin="round"/>
<path d="M171.127 172.87C171.196 172.61 171.123 172.241 170.909 171.761C170.695 171.282 167.154 172.444 160.286 175.246C160.331 175.246 160.495 175.196 160.78 175.096C161.064 174.996 161.285 174.904 161.442 174.82" stroke="#0086B6" stroke-width="2" stroke-linecap="round" stroke-linejoin="round"/>
<path d="M166.385 179.776C166.844 180.031 167.044 180.124 166.983 180.055C167.032 180.435 167.587 180.285 168.645 179.607C169.704 178.928 170.567 178.385 171.233 177.978C171.899 177.57 172.461 177.329 172.917 177.255C173.374 177.18 173.833 177.155 174.295 177.179C174.756 177.204 175.105 177.363 175.34 177.657C175.574 177.95 175.726 178.207 175.795 178.427C175.864 178.648 175.889 178.755 175.87 178.749C175.851 178.744 175.882 178.931 175.963 179.31C176.044 179.69 175.928 180.352 175.615 181.297C175.302 182.241 174.669 183.018 173.718 183.626C172.766 184.235 171.945 184.669 171.252 184.927C170.56 185.187 169.894 185.323 169.255 185.336C168.615 185.35 168.195 185.353 167.993 185.345C167.792 185.336 167.597 185.19 167.409 184.905C167.22 184.621 167.097 184.376 167.041 184.171C166.985 183.966 167.001 183.735 167.09 183.478C167.178 183.222 167.318 182.99 167.509 182.784C167.7 182.576 167.881 182.393 168.051 182.234" stroke="#0086B6" stroke-width="2" stroke-linecap="round" stroke-linejoin="round"/>
<path d="M179.577 177.491C179.568 177.664 179.577 178.408 179.604 179.724C179.632 181.039 179.506 182.479 179.227 184.042C179.052 183.999 179.3 183.54 179.972 182.665C180.643 181.789 181.191 181.038 181.617 180.411C182.041 179.784 182.545 179.29 183.127 178.931C183.709 178.571 184.17 178.316 184.509 178.167C184.848 178.018 186.347 178.08 189.007 178.354C188.98 177.706 188.958 177.432 188.943 177.533C188.928 177.634 188.891 177.647 188.832 177.572" stroke="#0086B6" stroke-width="2" stroke-linecap="round" stroke-linejoin="round"/>
<path d="M195.872 177.572C195.749 177.551 195.844 177.563 196.156 177.608C196.468 177.654 196.732 177.57 196.949 177.358C197.165 177.145 197.292 176.935 197.33 176.727C197.368 176.519 197.391 176.424 197.397 176.443C197.404 176.462 197.368 176.264 197.289 175.85C196.93 175.513 196.005 175.966 194.514 177.209C193.022 178.451 191.841 180.219 190.969 182.513C191.5 182.629 192.249 182.421 193.217 181.889C194.185 181.357 195.468 181.076 197.068 181.046C196.56 181.316 196.377 181.397 196.517 181.29C196.476 181.29 196.442 181.268 196.412 181.223C196.384 181.18 196.347 181.114 196.302 181.025" stroke="#0086B6" stroke-width="2" stroke-linecap="round" stroke-linejoin="round"/>
<path d="M202.535 178.181C202.566 178.172 202.84 178.16 203.359 178.145C203.877 178.129 204.185 178.07 204.281 177.968C204.377 177.866 204.449 177.736 204.495 177.58C204.541 177.424 204.585 177.315 204.625 177.254C204.665 177.192 204.676 177.174 204.657 177.199C204.639 177.224 204.585 177.11 204.495 176.857C204.405 176.604 204.175 176.468 203.804 176.449C203.434 176.431 203.085 176.421 202.759 176.419C202.433 176.417 202.084 176.477 201.713 176.601C201.342 176.724 200.755 177.189 199.955 177.995C199.154 178.8 198.803 179.832 198.901 181.091C199.026 181.187 199.507 181.331 200.342 181.522C201.177 181.713 201.982 182.154 202.757 182.843C203.532 183.533 204.042 184.465 204.288 185.641C204.534 186.817 204.683 187.799 204.736 188.586C204.789 189.375 204.642 190.219 204.294 191.12C203.946 192.021 203.365 192.72 202.553 193.218C201.74 193.716 201.078 193.972 200.567 193.986C200.057 194.001 199.613 193.963 199.236 193.871C198.859 193.78 198.648 193.319 198.602 192.488C198.557 191.657 198.574 190.987 198.651 190.479C198.729 189.972 199.118 189.206 199.82 188.18C200.522 187.155 201.808 186.101 203.68 185.018C205.551 183.935 207.192 182.95 208.601 182.063C210.011 181.177 211.258 180.205 212.343 179.15C213.428 178.094 214.217 177.11 214.712 176.198C215.206 175.287 215.487 174.497 215.555 173.828C215.623 173.16 215.588 172.701 215.45 172.451C215.312 172.201 215.168 172.062 215.017 172.034C214.865 172.005 214.756 171.984 214.69 171.97C214.623 171.956 214.499 171.92 214.317 171.864C214.134 171.808 213.681 171.884 212.957 172.093C212.233 172.302 211.511 172.885 210.789 173.844C210.068 174.803 209.532 175.616 209.182 176.284C208.832 176.952 208.545 177.882 208.321 179.073C208.097 180.265 208.021 181.276 208.093 182.108C208.164 182.94 208.782 183.533 209.948 183.885C211.113 184.238 212.224 184.267 213.281 183.972C214.338 183.677 215.305 183.306 216.181 182.86C217.057 182.413 217.545 181.884 217.646 181.273C217.746 180.661 217.746 180.304 217.648 180.203" stroke="#0086B6" stroke-width="2" stroke-linecap="round" stroke-linejoin="round"/>
<path d="M237.704 182.366C237.704 182.75 237.704 182.916 237.704 182.866C237.704 182.815 237.704 183.15 237.704 183.869C237.182 183.795 236.965 183.74 237.053 183.702C236.507 183.52 235.963 182.86 235.42 181.721C234.877 180.582 234.609 179.224 234.617 177.649C234.625 176.073 234.947 174.555 235.583 173.094C236.22 171.634 236.981 170.238 237.867 168.907C238.754 167.576 239.508 166.441 240.13 165.5C240.751 164.559 242.002 164.012 243.884 163.86C243.798 164.129 243.6 164.329 243.289 164.46C242.978 164.592 242.751 164.706 242.608 164.804" stroke="#0086B6" stroke-width="2" stroke-linecap="round" stroke-linejoin="round"/>
<path d="M247.766 170.757C247.571 170.797 247.907 170.743 248.776 170.593C249.645 170.444 251.059 169.723 253.019 168.43C252.711 168.264 251.923 168.37 250.654 168.748C249.384 169.127 248.225 169.906 247.175 171.086C247.22 171.259 247.725 171.493 248.689 171.787C249.653 172.081 250.36 172.484 250.81 172.994C251.26 173.503 251.527 173.941 251.611 174.307C251.696 174.674 251.722 174.987 251.688 175.249C251.655 175.51 251.631 175.73 251.617 175.909C251.602 176.087 251.218 176.698 250.463 177.742C249.708 178.786 248.005 179.63 245.355 180.274C245.317 180.238 245.287 180.154 245.264 180.023C245.241 179.891 245.249 179.791 245.286 179.724C245.323 179.657 245.371 179.573 245.429 179.471" stroke="#0086B6" stroke-width="2" stroke-linecap="round" stroke-linejoin="round"/>
<path d="M259.723 166.917C259.776 166.917 259.933 166.917 260.192 166.917C260.539 167.032 260.105 168.132 258.889 170.216C257.674 172.301 256.462 175.673 255.255 180.335H255.235C255.216 180.098 255.232 179.931 255.284 179.835C255.337 179.738 255.406 179.617 255.491 179.471" stroke="#0086B6" stroke-width="2" stroke-linecap="round" stroke-linejoin="round"/>
<path d="M260.018 168.298C260.16 168.225 260.521 167.946 261.101 167.462C261.68 166.977 262.276 166.695 262.888 166.615C263.501 166.535 264.07 166.456 264.596 166.379C265.122 166.302 265.703 166.532 266.338 167.07C266.973 167.609 267.41 168.372 267.649 169.361C267.887 170.349 267.847 171.413 267.529 172.552C267.21 173.692 266.407 174.944 265.118 176.31C263.828 177.674 262.692 178.719 261.709 179.445C260.727 180.17 259.691 180.801 258.603 181.337C257.515 181.873 256.399 182.179 255.255 182.254C255.246 181.664 255.255 181.42 255.283 181.523C255.775 180.834 255.997 180.531 255.95 180.615C255.903 180.699 255.904 180.71 255.953 180.647C256.003 180.584 256.104 180.48 256.256 180.335" stroke="#0086B6" stroke-width="2" stroke-linecap="round" stroke-linejoin="round"/>
<path d="M282.291 172.615C282.03 173.04 282.388 172.559 283.365 171.173C282.758 170.886 281.905 171.326 280.806 172.491C279.707 173.655 278.824 174.654 278.159 175.486C277.494 176.319 276.995 177.11 276.663 177.861C276.331 178.611 276.135 179.161 276.075 179.509C276.016 179.856 275.947 180.222 275.87 180.607C275.794 180.992 276.229 181.266 277.176 181.429C278.123 181.593 279.073 181.569 280.027 181.355C280.98 181.143 281.779 180.851 282.424 180.48C283.069 180.109 284.2 179.342 285.818 178.181C287.435 177.019 288.741 176.191 289.734 175.697C290.727 175.202 291.484 174.226 292.004 172.768C292.166 172.779 291.907 172.715 291.228 172.576C290.549 172.438 289.893 172.562 289.261 172.949C288.63 173.336 288.152 173.698 287.828 174.036C287.504 174.374 286.886 175.084 285.974 176.167C285.061 177.249 284.362 178.862 283.876 181.005C284.458 181.392 285.57 180.998 287.211 179.823C288.851 178.647 290.869 176.604 293.266 173.692C293.38 173.639 292.851 175.853 291.681 180.335C291.667 180.335 291.654 180.335 291.641 180.335C291.667 180.321 291.694 180.308 291.721 180.294" stroke="#0086B6" stroke-width="2" stroke-linecap="round" stroke-linejoin="round"/>
<path d="M296.719 172.92C296.804 172.773 296.732 173.965 296.504 176.496C296.448 176.697 296.788 176.369 297.523 175.512C298.258 174.655 298.96 173.954 299.628 173.409C300.296 172.865 300.84 172.598 301.259 172.608C301.678 172.618 302.135 172.572 302.632 172.472C303.129 172.372 303.47 172.785 303.657 173.712C303.626 173.726 303.592 173.747 303.556 173.776C303.521 173.804 303.476 173.847 303.422 173.905" stroke="#0086B6" stroke-width="2" stroke-linecap="round" stroke-linejoin="round"/>
<path d="M309.091 173.783C309.045 173.841 309.196 173.766 309.546 173.557C309.897 173.349 310.117 173.136 310.207 172.918C310.297 172.7 310.345 172.489 310.351 172.285C310.357 172.081 310.32 171.843 310.24 171.571C310.159 171.299 309.917 171.102 309.513 170.981C309.109 170.86 308.697 170.82 308.276 170.862C307.855 170.905 307.54 171 307.329 171.147C307.118 171.294 306.986 171.416 306.932 171.511C306.877 171.606 306.79 171.684 306.669 171.743C306.548 171.803 306.187 172.288 305.585 173.198C304.983 174.108 304.581 174.945 304.377 175.707C304.173 176.47 304.015 177.144 303.902 177.729C303.789 178.315 303.88 178.76 304.176 179.065C304.472 179.37 304.757 179.5 305.03 179.455C305.303 179.409 305.655 179.406 306.085 179.445C306.516 179.484 307.153 178.693 307.997 177.072C308.841 175.451 309.64 173.721 310.393 171.883C311.145 170.045 311.985 167.895 312.913 165.431C313.84 162.967 314.537 160.833 315.003 159.027C315.47 157.221 315.845 155.612 316.131 154.201C316.127 154.307 315.649 156.045 314.695 159.415C313.742 162.785 312.232 168.393 310.166 176.241C310.334 175.644 310.578 175.268 310.9 175.113C311.221 174.958 311.46 174.829 311.617 174.728" stroke="#0086B6" stroke-width="2" stroke-linecap="round" stroke-linejoin="round"/>
<path d="M319.382 177.318C319.301 177.553 319.451 178.071 319.831 178.872C319.869 178.827 319.988 178.412 320.188 177.627C320.389 176.842 320.545 176.363 320.658 176.191" stroke="#0086B6" stroke-width="2" stroke-linecap="round" stroke-linejoin="round"/>
<path d="M322.364 169.639C322.35 169.639 322.323 169.639 322.283 169.639C322.316 169.761 322.163 169.819 321.824 169.812C321.485 169.805 321.248 169.619 321.113 169.254C320.979 168.889 320.953 168.599 321.037 168.386C321.121 168.173 321.673 167.419 322.692 166.124C323.71 164.829 324.817 163.393 326.011 161.816C327.206 160.239 328.068 157.757 328.597 154.368C328.004 154.316 327.756 154.301 327.851 154.322C326.882 153.758 325.196 155.858 322.794 160.62C322.865 160.593 322.937 160.566 323.008 160.539" stroke="#0086B6" stroke-width="2" stroke-linecap="round" stroke-linejoin="round"/>
<path d="M331.418 150.493C331.974 150.827 332.165 150.925 331.989 150.788C332.539 150.788 332.745 150.788 332.607 150.788C333.149 150.794 333.371 150.802 333.272 150.813C333.369 150.849 333.51 150.941 333.695 151.088C333.879 151.236 333.968 151.329 333.962 151.37C333.956 151.41 334.024 151.51 334.166 151.669C334.308 151.829 334.503 152.287 334.752 153.043C335.001 153.8 335.161 155.083 335.232 156.894C335.302 158.704 335.094 160.747 334.607 163.021C334.119 165.294 333.026 167.911 331.328 170.871C329.63 173.832 328.017 176.283 326.49 178.226C324.964 180.169 323.503 181.806 322.108 183.138C322.124 183.129 322.13 183.123 322.126 183.118C322.123 183.114 322.241 183.008 322.482 182.798C322.723 182.59 322.967 182.3 323.213 181.93C323.459 181.56 323.612 181.315 323.673 181.194C323.734 181.074 323.741 180.919 323.695 180.73C323.649 180.541 323.604 180.396 323.559 180.294" stroke="#0086B6" stroke-width="2" stroke-linecap="round" stroke-linejoin="round"/>
</g>
</g>
<defs>
<clipPath id="clip0">
<rect width="340" height="200" fill="white"/>
</clipPath>
<clipPath id="clip1">
<rect width="338.027" height="200" fill="white" transform="translate(2)"/>
</clipPath>
</defs>
</svg>
