<svg width="618" height="94" viewBox="0 0 618 94" fill="none" xmlns="http://www.w3.org/2000/svg">
<g clip-path="url(#clip0)">
<path d="M579.5 90.4897C580.282 90.1006 600.607 81.3443 607.056 76.0905C613.701 70.6421 617.218 62.8587 617.218 53.5186V9.73706L616.632 9.54247C600.411 0.786158 580.282 1.36991 579.305 1.36991C578.523 1.36991 558.393 0.786158 542.173 9.54247L541.782 9.73706V53.7132C541.782 63.0533 545.3 70.8367 551.944 76.2851C558.393 81.5388 578.718 90.2952 579.5 90.4897Z" fill="#341B14"/>
<path d="M579.5 91.4628C579.5 91.4628 558.003 82.1227 551.358 76.8689C544.322 71.0314 541 63.0534 541 53.9079V8.37515C558.003 -0.770323 579.5 0.00801391 579.5 0.00801391C579.5 0.00801391 600.997 -0.770323 618 8.37515V53.7134C618 62.8588 614.678 70.8368 607.642 76.6743C600.997 82.1227 579.5 91.4628 579.5 91.4628V91.4628ZM544.127 53.9079C544.127 62.4697 547.254 69.4747 553.312 74.3393C558.784 78.8148 575.005 86.0144 579.5 87.9602C583.995 86.0144 600.411 78.6202 605.688 74.3393C611.746 69.4747 614.873 62.2751 614.873 53.9079V9.15349C592.203 7.01306 565.233 8.18057 544.127 27.639V53.9079V53.9079Z" fill="#FFB406"/>
<path d="M601.193 47.4865C604.124 49.2377 605.297 50.4052 605.492 52.5457C605.492 54.8807 603.929 56.2428 601.388 56.2428C599.239 56.2428 596.698 55.0753 594.939 53.5186V59.7453C597.089 60.9128 599.629 61.8858 602.365 61.8858C609.01 61.8858 612.137 57.2157 612.137 52.9349C612.332 49.0432 611.16 45.9298 605.492 42.6219C602.952 41.0652 600.997 40.0922 600.997 37.7572C600.997 35.4222 603.147 34.4493 604.906 34.4493C607.251 34.4493 609.596 35.8114 610.964 37.1735V31.3359C609.792 30.363 607.251 29.0009 603.538 29.1955C599.043 29.3901 594.353 32.5034 594.353 37.9518C594.548 41.6489 595.721 44.3731 601.193 47.4865ZM578.132 61.4966C578.718 61.6912 579.695 61.8858 581.259 61.8858C588.881 61.8858 593.18 55.0753 593.18 45.346C593.18 35.4222 588.685 29.3901 580.673 29.3901C576.959 29.3901 574.028 30.1684 571.487 31.7251V75.7013H578.132V61.4966ZM578.132 35.033C578.718 34.8385 579.695 34.4493 580.477 34.4493C584.386 34.4493 585.949 37.5626 585.949 45.1515C585.949 52.5457 583.995 56.0482 580.086 56.0482C579.109 56.0482 578.327 55.8536 577.937 55.659V35.033H578.132ZM557.612 61.8858C561.716 61.8858 565.233 60.9128 567.774 59.1616V29.7792H560.934V55.2699C560.152 55.8536 559.175 56.0482 557.807 56.0482C554.68 56.0482 554.289 53.1294 554.289 51.3782V29.7792H547.449V50.989C547.449 58.1886 550.967 61.8858 557.612 61.8858Z" fill="#FFB406"/>
</g>
<g clip-path="url(#clip1)">
<path d="M466.143 22.0131V71.9884H239V22.0131H466.143Z" fill="#FECC00"/>
<path d="M312.236 42.8936C311.243 44.2336 309.582 46.5632 308.572 47.9238C308.059 48.6158 307.132 49.872 310.204 49.872H326.379C326.379 49.872 328.986 46.3364 331.171 43.3793C334.144 39.3567 331.429 30.9867 320.801 30.9867H278.947L271.69 40.8165H311.242C313.239 40.8165 313.212 41.5742 312.236 42.8936V42.8936ZM300.353 52.297C297.281 52.297 298.208 51.0381 298.721 50.3462C299.732 48.9856 301.419 46.6805 302.412 45.3404C303.389 44.021 303.415 43.2634 301.416 43.2634H283.327L268.752 63.0108H304.295C316.034 63.0108 322.57 55.0505 324.585 52.2983L300.353 52.297V52.297ZM323.475 63.0108H344.326L352.23 52.2957L331.382 52.2983C331.376 52.297 323.475 63.0108 323.475 63.0108V63.0108ZM377.272 30.9867L369.275 41.8164H359.969L367.963 30.9867H347.119L333.173 49.872H384.173L398.114 30.9867H377.272ZM353.631 63.0108H374.474L382.383 52.2983H361.54C361.532 52.297 353.631 63.0108 353.631 63.0108ZM239 56.5232V58.7987H268.038L269.716 56.5232H239ZM272.837 52.297H239V54.5699H271.156L272.837 52.297ZM239 63.0108H264.928L266.597 60.7482H239V63.0108ZM435.543 58.7974H466.143V56.5219H437.223L435.543 58.7974ZM432.435 63.0108H466.143V60.7482H434.103L432.435 63.0108ZM440.339 52.297L438.663 54.5724H466.143V52.297H440.339ZM413.038 49.872L426.982 30.9867H404.906C404.898 30.9867 390.952 49.872 390.952 49.872H413.038ZM389.164 52.297C389.164 52.297 387.64 54.3727 386.9 55.3726C384.283 58.8979 386.597 63.0108 395.14 63.0108H428.616L436.524 52.2983H389.164V52.297Z" fill="#D50029"/>
</g>
<g clip-path="url(#clip2)">
<path d="M148.934 70.2319L142.242 62.7386L135.608 70.2319H121.65L135.292 54.9296L121.65 39.6228H136.044L142.804 47.0586L149.309 39.6228H163.2L149.625 54.8653L163.388 70.2319H148.934ZM94.8459 70.2319V22.0129H121.65V32.7608H106.2V39.6228H121.65V49.9649H106.2V59.4569H121.65V70.2319H94.8459Z" fill="#FF5A00"/>
<path d="M83.5343 22.0132V41.747H83.4089C80.9056 38.8746 77.7767 37.8735 74.1488 37.8735C66.7145 37.8735 61.1139 42.9228 59.1481 49.5932C56.9056 42.2419 51.1232 37.736 42.5508 37.736C35.5873 37.736 30.0906 40.8553 27.2192 45.9395V39.622H12.8282V32.7623H28.5347V22.0155H0V70.2323H12.8282V49.9652H25.6147C25.2208 51.5237 25.024 53.1253 25.0287 54.7327C25.0287 64.7861 32.7238 71.8511 42.5485 71.8511C50.8071 71.8511 56.2541 67.9765 59.1323 60.9228H48.1378C46.6518 63.0456 45.5227 63.6724 42.5496 63.6724C39.1035 63.6724 36.1293 60.6692 36.1293 57.1136H58.5158C59.4868 65.1007 65.7197 71.9875 74.2741 71.9875C77.9642 71.9875 81.3426 70.1759 83.4078 67.1152H83.532V70.239H94.8427V22.0155H83.5343V22.0132V22.0132ZM36.4861 50.1095C37.2009 47.0455 39.58 45.0433 42.5496 45.0433C45.8196 45.0433 48.0779 46.9835 48.6707 50.1095H36.4861ZM76.6702 62.8945C72.5025 62.8945 69.9122 59.0176 69.9122 54.9683C69.9122 50.6394 72.166 46.4807 76.6702 46.4807C81.3437 46.4807 83.2057 50.6416 83.2057 54.9683C83.2057 59.0695 81.2342 62.8945 76.6702 62.8945Z" fill="#29007C"/>
</g>
<defs>
<clipPath id="clip0">
<rect width="77" height="94" fill="white" transform="translate(541)"/>
</clipPath>
<clipPath id="clip1">
<rect width="227.143" height="50" fill="white" transform="translate(239 22)"/>
</clipPath>
<clipPath id="clip2">
<rect width="164" height="50" fill="white" transform="translate(0 22)"/>
</clipPath>
</defs>
</svg>
