<svg xmlns="http://www.w3.org/2000/svg" viewBox="0 0 238.31 403.94"><defs><style>.a{fill:#755a3e;stroke:#755a3e;}.a,.aa,.ab,.ac,.ad,.ae,.af,.ag,.ah,.ai,.aj,.ak,.al,.am,.an,.ao,.ap,.aq,.ar,.as,.at,.au,.av,.aw,.ax,.ay,.az,.b,.ba,.bb,.bc,.bd,.be,.bf,.bg,.bh,.bi,.bj,.bk,.bl,.bm,.bn,.bo,.bp,.bq,.br,.bs,.bt,.bu,.bv,.bw,.bx,.by,.bz,.c,.ca,.cb,.cc,.cd,.ce,.cf,.cg,.ch,.ci,.cj,.ck,.cl,.cm,.cn,.co,.cp,.cq,.cr,.cs,.ct,.cu,.cv,.cw,.cx,.cy,.cz,.d,.da,.db,.dc,.dd,.de,.df,.dg,.dh,.di,.dj,.dk,.dl,.dm,.dn,.do,.dp,.dq,.dr,.ds,.dt,.du,.dv,.dw,.dx,.dy,.dz,.e,.ea,.eb,.ec,.ed,.ee,.ef,.eg,.eh,.ei,.ej,.ek,.el,.em,.en,.eo,.ep,.eq,.er,.es,.et,.eu,.ev,.ew,.ex,.ey,.ez,.f,.fa,.fb,.fc,.fd,.fe,.ff,.fg,.fh,.fi,.fj,.fk,.fl,.fm,.fn,.fo,.fp,.fq,.fr,.fs,.ft,.fu,.fv,.fw,.fx,.fy,.fz,.g,.ga,.gb,.gc,.gd,.ge,.gf,.gg,.gh,.gi,.gj,.gk,.gl,.gm,.gn,.go,.gp,.gq,.gr,.gs,.gt,.gu,.gv,.gw,.gx,.gy,.gz,.h,.ha,.hb,.hc,.hd,.he,.hf,.hg,.hh,.hi,.hj,.hk,.hl,.hm,.hn,.ho,.hp,.hq,.hr,.hs,.ht,.hu,.hv,.hw,.hx,.hy,.hz,.i,.ia,.ib,.ic,.id,.ie,.if,.ig,.ih,.ii,.ij,.ik,.il,.im,.in,.io,.ip,.iq,.ir,.is,.it,.iu,.iv,.iw,.ix,.iy,.iz,.j,.ja,.jb,.jc,.jd,.je,.jf,.jg,.jh,.ji,.jj,.jk,.jl,.jm,.jn,.jo,.jp,.jq,.jr,.js,.jt,.ju,.jv,.jw,.jx,.jy,.jz,.k,.ka,.kb,.kc,.kd,.ke,.kf,.kg,.kh,.ki,.kj,.kk,.kl,.km,.kn,.ko,.kp,.kq,.kr,.ks,.kt,.ku,.kv,.kw,.kx,.ky,.kz,.l,.la,.lb,.lc,.ld,.le,.lf,.lg,.lh,.li,.lj,.lk,.ll,.lm,.ln,.lo,.lp,.lq,.lr,.ls,.lt,.lu,.lv,.lw,.lx,.ly,.lz,.m,.ma,.mb,.mc,.md,.me,.mf,.mg,.mh,.mi,.mj,.mk,.ml,.mm,.mn,.mo,.mp,.mq,.mr,.ms,.mt,.mu,.mv,.mw,.mx,.my,.mz,.n,.na,.nb,.nc,.nd,.ne,.nf,.ng,.nh,.ni,.nj,.nk,.nl,.nm,.nn,.no,.np,.nq,.nr,.ns,.nt,.nu,.nv,.nw,.nx,.ny,.nz,.o,.oa,.ob,.oc,.od,.oe,.of,.og,.oh,.oi,.oj,.ok,.ol,.p,.q,.r,.s,.t,.u,.v,.w,.x,.y,.z{stroke-linejoin:round;}.b{fill:#ad8a68;stroke:#ad8a68;}.c{fill:#886b4f;stroke:#886b4f;}.d{fill:#7b5d43;stroke:#7b5d43;}.e{fill:#9e7959;stroke:#9e7959;}.f{fill:#624625;stroke:#624625;}.g{fill:#b8936c;stroke:#b8936c;}.h{fill:#dab78b;stroke:#dab78b;}.i{fill:#eac292;stroke:#eac292;}.j{fill:#977b52;stroke:#977b52;}.k{fill:#a17e55;stroke:#a17e55;}.l{fill:#a08159;stroke:#a08159;}.m{fill:#af8c63;stroke:#af8c63;}.n{fill:#9e7a55;stroke:#9e7a55;}.o{fill:#c9a276;stroke:#c9a276;}.p{fill:#cca776;stroke:#cca776;}.q{fill:#d0a675;stroke:#d0a675;}.r{fill:#f4c999;stroke:#f4c999;}.s{fill:#c3a37d;stroke:#c3a37d;}.t{fill:#be9c74;stroke:#be9c74;}.u{fill:#c2a380;stroke:#c2a380;}.v{fill:#debd96;stroke:#debd96;}.w{fill:#d4ac78;stroke:#d4ac78;}.x{fill:#dab284;stroke:#dab284;}.y{fill:#ecc598;stroke:#ecc598;}.z{fill:#facba0;stroke:#facba0;}.aa{fill:#ffe1b7;stroke:#ffe1b7;}.ab{fill:#e2c8aa;stroke:#e2c8aa;}.ac{fill:#d7bc9f;stroke:#d7bc9f;}.ad{fill:#f5e1c4;stroke:#f5e1c4;}.ae{fill:#ddc6a8;stroke:#ddc6a8;}.af{fill:#f5cda4;stroke:#f5cda4;}.ag{fill:#fbf3e4;stroke:#fbf3e4;}.ah{fill:#edd6ba;stroke:#edd6ba;}.ai{fill:#fef3dd;stroke:#fef3dd;}.aj{fill:#e5c097;stroke:#e5c097;}.ak{fill:#fff;stroke:#fff;}.al{fill:#fefffd;stroke:#fefffd;}.am{fill:#fefdfa;stroke:#fefdfa;}.an{fill:#f5d5af;stroke:#f5d5af;}.ao{fill:#ffe3bf;stroke:#ffe3bf;}.ap{fill:#f9e6cc;stroke:#f9e6cc;}.aq{fill:#fbf8ef;stroke:#fbf8ef;}.ar{fill:#fdf8f1;stroke:#fdf8f1;}.as{fill:#f8e8cd;stroke:#f8e8cd;}.at{fill:#e9d3b9;stroke:#e9d3b9;}.au{fill:#fff7d1;stroke:#fff7d1;}.av{fill:#ffeac8;stroke:#ffeac8;}.aw{fill:#fdeece;stroke:#fdeece;}.ax{fill:#fefcf9;stroke:#fefcf9;}.ay{fill:#fffaf1;stroke:#fffaf1;}.az{fill:#fff3d7;stroke:#fff3d7;}.ba{fill:#efcca3;stroke:#efcca3;}.bb{fill:#ba9669;stroke:#ba9669;}.bc{fill:#ddb484;stroke:#ddb484;}.bd{fill:#a7875a;stroke:#a7875a;}.be{fill:#95754f;stroke:#95754f;}.bf{fill:#856446;stroke:#856446;}.bg{fill:#7a6246;stroke:#7a6246;}.bh{fill:#8e633e;stroke:#8e633e;}.bi{fill:#a47e58;stroke:#a47e58;}.bj{fill:#b0865b;stroke:#b0865b;}.bk{fill:#af8659;stroke:#af8659;}.bl{fill:#bf966c;stroke:#bf966c;}.bm{fill:#d1b08a;stroke:#d1b08a;}.bn{fill:#b28c64;stroke:#b28c64;}.bo{fill:#c19f78;stroke:#c19f78;}.bp{fill:#af8b60;stroke:#af8b60;}.bq{fill:#bd9870;stroke:#bd9870;}.br{fill:#c19a6e;stroke:#c19a6e;}.bs{fill:#be9c73;stroke:#be9c73;}.bt{fill:#cda87d;stroke:#cda87d;}.bu{fill:#caa479;stroke:#caa479;}.bv{fill:#cca57a;stroke:#cca57a;}.bw{fill:#ab8763;stroke:#ab8763;}.bx{fill:#b3916c;stroke:#b3916c;}.by{fill:#a17f5d;stroke:#a17f5d;}.bz{fill:#7d5d3b;stroke:#7d5d3b;}.ca{fill:#b38f69;stroke:#b38f69;}.cb{fill:#9a714a;stroke:#9a714a;}.cc{fill:#b38960;stroke:#b38960;}.cd{fill:#976e46;stroke:#976e46;}.ce{fill:#9f7854;stroke:#9f7854;}.cf{fill:#a07b53;stroke:#a07b53;}.cg{fill:#926c48;stroke:#926c48;}.ch{fill:#906b48;stroke:#906b48;}.ci{fill:#947147;stroke:#947147;}.cj{fill:#a07a53;stroke:#a07a53;}.ck{fill:#977550;stroke:#977550;}.cl{fill:#987251;stroke:#987251;}.cm{fill:#8a6c4c;stroke:#8a6c4c;}.cn{fill:#916f4a;stroke:#916f4a;}.co{fill:#896448;stroke:#896448;}.cp{fill:#95724c;stroke:#95724c;}.cq{fill:#8c6747;stroke:#8c6747;}.cr{fill:#432f22;stroke:#432f22;}.cs{fill:#54321d;stroke:#54321d;}.ct{fill:#3a3122;stroke:#3a3122;}.cu{fill:#413328;stroke:#413328;}.cv{fill:#433228;stroke:#433228;}.cw{fill:#48392d;stroke:#48392d;}.cx{fill:#4c3a2d;stroke:#4c3a2d;}.cy{fill:#48382b;stroke:#48382b;}.cz{fill:#433928;stroke:#433928;}.da{fill:#40352a;stroke:#40352a;}.db{fill:#443a2e;stroke:#443a2e;}.dc{fill:#544332;stroke:#544332;}.dd{fill:#48392e;stroke:#48392e;}.de{fill:#4a3e2e;stroke:#4a3e2e;}.df{fill:#443629;stroke:#443629;}.dg{fill:#48372b;stroke:#48372b;}.dh{fill:#3e3026;stroke:#3e3026;}.di{fill:#41382a;stroke:#41382a;}.dj{fill:#614f38;stroke:#614f38;}.dk{fill:#5c422f;stroke:#5c422f;}.dl{fill:#674b32;stroke:#674b32;}.dm{fill:#6c4e36;stroke:#6c4e36;}.dn{fill:#6f4c35;stroke:#6f4c35;}.do{fill:#7f5c3f;stroke:#7f5c3f;}.dp{fill:#765035;stroke:#765035;}.dq{fill:#835c33;stroke:#835c33;}.dr{fill:#876246;stroke:#876246;}.ds{fill:#7d5e3d;stroke:#7d5e3d;}.dt{fill:#775741;stroke:#775741;}.du{fill:#72543f;stroke:#72543f;}.dv{fill:#6a4e37;stroke:#6a4e37;}.dw{fill:#5d412d;stroke:#5d412d;}.dx{fill:#5a422b;stroke:#5a422b;}.dy{fill:#483425;stroke:#483425;}.dz{fill:#573e2c;stroke:#573e2c;}.ea{fill:#573f2c;stroke:#573f2c;}.eb{fill:#624930;stroke:#624930;}.ec{fill:#684d38;stroke:#684d38;}.ed{fill:#5a452d;stroke:#5a452d;}.ee{fill:#5c4a36;stroke:#5c4a36;}.ef{fill:#664c3a;stroke:#664c3a;}.eg{fill:#68563f;stroke:#68563f;}.eh{fill:#6f5940;stroke:#6f5940;}.ei{fill:#7f644c;stroke:#7f644c;}.ej{fill:#8b6b46;stroke:#8b6b46;}.ek{fill:#92724e;stroke:#92724e;}.el{fill:#816246;stroke:#816246;}.em{fill:#725942;stroke:#725942;}.en{fill:#6e5643;stroke:#6e5643;}.eo{fill:#614e3e;stroke:#614e3e;}.ep{fill:#53453a;stroke:#53453a;}.eq{fill:#584737;stroke:#584737;}.er{fill:#524332;stroke:#524332;}.es{fill:#4f3f32;stroke:#4f3f32;}.et{fill:#aa8e70;stroke:#aa8e70;}.eu{fill:#c4a987;stroke:#c4a987;}.ev{fill:#59452a;stroke:#59452a;}.ew{fill:#65492e;stroke:#65492e;}.ex{fill:#a6835d;stroke:#a6835d;}.ey{fill:#977254;stroke:#977254;}.ez{fill:#8e6851;stroke:#8e6851;}.fa{fill:#7b5c43;stroke:#7b5c43;}.fb{fill:#816146;stroke:#816146;}.fc{fill:#7e6146;stroke:#7e6146;}.fd{fill:#77583f;stroke:#77583f;}.fe{fill:#84624d;stroke:#84624d;}.ff{fill:#825f45;stroke:#825f45;}.fg{fill:#8a6747;stroke:#8a6747;}.fh{fill:#9a734d;stroke:#9a734d;}.fi{fill:#946c4b;stroke:#946c4b;}.fj{fill:#9f7853;stroke:#9f7853;}.fk{fill:#8f6d50;stroke:#8f6d50;}.fl{fill:#89674d;stroke:#89674d;}.fm{fill:#997459;stroke:#997459;}.fn{fill:#976f4e;stroke:#976f4e;}.fo{fill:#8d6950;stroke:#8d6950;}.fp{fill:#926d51;stroke:#926d51;}.fq{fill:#977654;stroke:#977654;}.fr{fill:#856045;stroke:#856045;}.fs{fill:#896849;stroke:#896849;}.ft{fill:#6f5a46;stroke:#6f5a46;}.fu{fill:#846e54;stroke:#846e54;}.fv{fill:#80644a;stroke:#80644a;}.fw{fill:#967755;stroke:#967755;}.fx{fill:#91724e;stroke:#91724e;}.fy{fill:#6d553c;stroke:#6d553c;}.fz{fill:#7c6046;stroke:#7c6046;}.ga{fill:#7b5f3f;stroke:#7b5f3f;}.gb{fill:#7e6141;stroke:#7e6141;}.gc{fill:#71553a;stroke:#71553a;}.gd{fill:#6b543c;stroke:#6b543c;}.ge{fill:#5c432d;stroke:#5c432d;}.gf{fill:#6b4e41;stroke:#6b4e41;}.gg{fill:#705540;stroke:#705540;}.gh{fill:#7a6046;stroke:#7a6046;}.gi{fill:#7e6147;stroke:#7e6147;}.gj{fill:#846446;stroke:#846446;}.gk{fill:#957049;stroke:#957049;}.gl{fill:#9c7450;stroke:#9c7450;}.gm{fill:#9d7d52;stroke:#9d7d52;}.gn{fill:#a17d56;stroke:#a17d56;}.go{fill:#997251;stroke:#997251;}.gp{fill:#6f523a;stroke:#6f523a;}.gq{fill:#684b36;stroke:#684b36;}.gr{fill:#544030;stroke:#544030;}.gs{fill:#614834;stroke:#614834;}.gt{fill:#403527;stroke:#403527;}.gu{fill:#463b2f;stroke:#463b2f;}.gv{fill:#554c3d;stroke:#554c3d;}.gw{fill:#745a43;stroke:#745a43;}.gx{fill:#74563d;stroke:#74563d;}.gy{fill:#685140;stroke:#685140;}.gz{fill:#755d44;stroke:#755d44;}.ha{fill:#68523c;stroke:#68523c;}.hb{fill:#7d634e;stroke:#7d634e;}.hc{fill:#806449;stroke:#806449;}.hd{fill:#7c6246;stroke:#7c6246;}.he{fill:#9f8262;stroke:#9f8262;}.hf{fill:#936e50;stroke:#936e50;}.hg{fill:#8a6a4b;stroke:#8a6a4b;}.hh{fill:#a07f5f;stroke:#a07f5f;}.hi{fill:#907250;stroke:#907250;}.hj{fill:#86674b;stroke:#86674b;}.hk{fill:#8d6b4e;stroke:#8d6b4e;}.hl{fill:#956e48;stroke:#956e48;}.hm{fill:#957553;stroke:#957553;}.hn{fill:#8d6949;stroke:#8d6949;}.ho{fill:#987654;stroke:#987654;}.hp{fill:#9d7c5e;stroke:#9d7c5e;}.hq{fill:#9a785a;stroke:#9a785a;}.hr{fill:#826349;stroke:#826349;}.hs{fill:#a57e5b;stroke:#a57e5b;}.ht{fill:#76593b;stroke:#76593b;}.hu{fill:#7e5d3e;stroke:#7e5d3e;}.hv{fill:#70553c;stroke:#70553c;}.hw{fill:#624a35;stroke:#624a35;}.hx{fill:#6c5137;stroke:#6c5137;}.hy{fill:#65523a;stroke:#65523a;}.hz{fill:#655139;stroke:#655139;}.ia{fill:#685948;stroke:#685948;}.ib{fill:#624a32;stroke:#624a32;}.ic{fill:#7c684a;stroke:#7c684a;}.id{fill:#806145;stroke:#806145;}.ie{fill:#79553f;stroke:#79553f;}.if{fill:#7e5e40;stroke:#7e5e40;}.ig{fill:#936a49;stroke:#936a49;}.ih{fill:#88674c;stroke:#88674c;}.ii{fill:#9e7859;stroke:#9e7859;}.ij{fill:#a7845f;stroke:#a7845f;}.ik{fill:#866145;stroke:#866145;}.il{fill:#876141;stroke:#876141;}.im{fill:#836245;stroke:#836245;}.in{fill:#8e6849;stroke:#8e6849;}.io{fill:#785a43;stroke:#785a43;}.ip{fill:#6b533e;stroke:#6b533e;}.iq{fill:#694c31;stroke:#694c31;}.ir{fill:#7f5f46;stroke:#7f5f46;}.is{fill:#715237;stroke:#715237;}.it{fill:#6c523b;stroke:#6c523b;}.iu{fill:#604937;stroke:#604937;}.iv{fill:#4d3c29;stroke:#4d3c29;}.iw{fill:#603f36;stroke:#603f36;}.ix{fill:#5e493a;stroke:#5e493a;}.iy{fill:#735343;stroke:#735343;}.iz{fill:#785d45;stroke:#785d45;}.ja{fill:#8d6d4b;stroke:#8d6d4b;}.jb{fill:#906543;stroke:#906543;}.jc{fill:#906a49;stroke:#906a49;}.jd{fill:#80634c;stroke:#80634c;}.je{fill:#86694d;stroke:#86694d;}.jf{fill:#8a6f51;stroke:#8a6f51;}.jg{fill:#8e7258;stroke:#8e7258;}.jh{fill:#81664b;stroke:#81664b;}.ji{fill:#937153;stroke:#937153;}.jj{fill:#7a5f43;stroke:#7a5f43;}.jk{fill:#6c5140;stroke:#6c5140;}.jl{fill:#705241;stroke:#705241;}.jm{fill:#916e51;stroke:#916e51;}.jn{fill:#9c7e63;stroke:#9c7e63;}.jo{fill:#6e5542;stroke:#6e5542;}.jp{fill:#795f49;stroke:#795f49;}.jq{fill:#836850;stroke:#836850;}.jr{fill:#755a49;stroke:#755a49;}.js{fill:#997452;stroke:#997452;}.jt{fill:#9e7757;stroke:#9e7757;}.ju{fill:#7e6148;stroke:#7e6148;}.jv{fill:#937156;stroke:#937156;}.jw{fill:#80674c;stroke:#80674c;}.jx{fill:#987850;stroke:#987850;}.jy{fill:#9b835c;stroke:#9b835c;}.jz{fill:#b18c5f;stroke:#b18c5f;}.ka{fill:#795d48;stroke:#795d48;}.kb{fill:#7b5d46;stroke:#7b5d46;}.kc{fill:#816448;stroke:#816448;}.kd{fill:#856c4f;stroke:#856c4f;}.ke{fill:#9a7e64;stroke:#9a7e64;}.kf{fill:#755745;stroke:#755745;}.kg{fill:#957156;stroke:#957156;}.kh{fill:#916952;stroke:#916952;}.ki{fill:#775d48;stroke:#775d48;}.kj{fill:#8f6d4f;stroke:#8f6d4f;}.kk{fill:#85674d;stroke:#85674d;}.kl{fill:#745639;stroke:#745639;}.km{fill:#917050;stroke:#917050;}.kn{fill:#7b5e41;stroke:#7b5e41;}.ko{fill:#906d4f;stroke:#906d4f;}.kp{fill:#987556;stroke:#987556;}.kq{fill:#9a7758;stroke:#9a7758;}.kr{fill:#84644d;stroke:#84644d;}.ks{fill:#a47f5c;stroke:#a47f5c;}.kt{fill:#8f7254;stroke:#8f7254;}.ku{fill:#89664d;stroke:#89664d;}.kv{fill:#866e4f;stroke:#866e4f;}.kw{fill:#a4825d;stroke:#a4825d;}.kx{fill:#9d7a59;stroke:#9d7a59;}.ky{fill:#8e6a50;stroke:#8e6a50;}.kz{fill:#9a7559;stroke:#9a7559;}.la{fill:#8f6f53;stroke:#8f6f53;}.lb{fill:#977250;stroke:#977250;}.lc{fill:#8d6f50;stroke:#8d6f50;}.ld{fill:#916d52;stroke:#916d52;}.le{fill:#7b5f47;stroke:#7b5f47;}.lf{fill:#7f5f45;stroke:#7f5f45;}.lg{fill:#75573f;stroke:#75573f;}.lh{fill:#946f51;stroke:#946f51;}.li{fill:#906e54;stroke:#906e54;}.lj{fill:#997552;stroke:#997552;}.lk{fill:#8f6e52;stroke:#8f6e52;}.ll{fill:#826549;stroke:#826549;}.lm{fill:#775a43;stroke:#775a43;}.ln{fill:#7a5d44;stroke:#7a5d44;}.lo{fill:#9c764d;stroke:#9c764d;}.lp{fill:#7e674c;stroke:#7e674c;}.lq{fill:#a58561;stroke:#a58561;}.lr{fill:#ab8860;stroke:#ab8860;}.ls{fill:#cba47b;stroke:#cba47b;}.lt{fill:#a88254;stroke:#a88254;}.lu{fill:#9e7c58;stroke:#9e7c58;}.lv{fill:#9d7d56;stroke:#9d7d56;}.lw{fill:#9e8157;stroke:#9e8157;}.lx{fill:#967550;stroke:#967550;}.ly{fill:#a07b54;stroke:#a07b54;}.lz{fill:#98744d;stroke:#98744d;}.ma{fill:#97744b;stroke:#97744b;}.mb{fill:#8a6b50;stroke:#8a6b50;}.mc{fill:#93714c;stroke:#93714c;}.md{fill:#947354;stroke:#947354;}.me{fill:#5a483f;stroke:#5a483f;}.mf{fill:#603d33;stroke:#603d33;}.mg{fill:#6d4635;stroke:#6d4635;}.mh{fill:#654b37;stroke:#654b37;}.mi{fill:#6c583d;stroke:#6c583d;}.mj{fill:#6a5036;stroke:#6a5036;}.mk{fill:#765d3e;stroke:#765d3e;}.ml{fill:#634c36;stroke:#634c36;}.mm{fill:#74543c;stroke:#74543c;}.mn{fill:#5d4732;stroke:#5d4732;}.mo{fill:#5a4735;stroke:#5a4735;}.mp{fill:#674e32;stroke:#674e32;}.mq{fill:#6c533f;stroke:#6c533f;}.mr{fill:#6a4d36;stroke:#6a4d36;}.ms{fill:#6a4f36;stroke:#6a4f36;}.mt{fill:#685239;stroke:#685239;}.mu{fill:#654d40;stroke:#654d40;}.mv{fill:#74563b;stroke:#74563b;}.mw{fill:#785e43;stroke:#785e43;}.mx{fill:#796243;stroke:#796243;}.my{fill:#6b503a;stroke:#6b503a;}.mz{fill:#634835;stroke:#634835;}.na{fill:#6a4f3c;stroke:#6a4f3c;}.nb{fill:#664c36;stroke:#664c36;}.nc{fill:#674b38;stroke:#674b38;}.nd{fill:#7a5a3e;stroke:#7a5a3e;}.ne{fill:#74543e;stroke:#74543e;}.nf{fill:#765842;stroke:#765842;}.ng{fill:#765a41;stroke:#765a41;}.nh{fill:#805e44;stroke:#805e44;}.ni{fill:#82593e;stroke:#82593e;}.nj{fill:#846145;stroke:#846145;}.nk{fill:#7d593b;stroke:#7d593b;}.nl{fill:#705135;stroke:#705135;}.nm{fill:#8f6741;stroke:#8f6741;}.nn{fill:#815d3c;stroke:#815d3c;}.no{fill:#8a6544;stroke:#8a6544;}.np{fill:#705638;stroke:#705638;}.nq{fill:#6e5541;stroke:#6e5541;}.nr{fill:#795a3f;stroke:#795a3f;}.ns{fill:#74573d;stroke:#74573d;}.nt{fill:#7b593d;stroke:#7b593d;}.nu{fill:#79593f;stroke:#79593f;}.nv{fill:#6f513b;stroke:#6f513b;}.nw{fill:#775c48;stroke:#775c48;}.nx{fill:#674f3e;stroke:#674f3e;}.ny{fill:#6c5039;stroke:#6c5039;}.nz{fill:#72533a;stroke:#72533a;}.oa{fill:#6b5137;stroke:#6b5137;}.ob{fill:#735a3f;stroke:#735a3f;}.oc{fill:#7c5c3d;stroke:#7c5c3d;}.od{fill:#6e523a;stroke:#6e523a;}.oe{fill:#695138;stroke:#695138;}.of{fill:#6b5741;stroke:#6b5741;}.og{fill:#674f35;stroke:#674f35;}.oh{fill:#7b644e;stroke:#7b644e;}.oi{fill:#775840;stroke:#775840;}.oj{fill:#7e694e;stroke:#7e694e;}.ok{fill:#6c5945;stroke:#6c5945;}.ol{fill:#7d6d54;stroke:#7d6d54;}</style></defs><title>Artboard 1</title><polygon class="a" points="213.94 224.1 228.09 225.1 227.4 214.85 213.94 224.1"/><polygon class="b" points="35.49 264.06 61.14 255.91 53.98 233.45 35.49 264.06"/><polygon class="c" points="50.13 218.16 69.17 213.44 61.14 204.69 50.13 218.16"/><polygon class="d" points="46.16 206.37 61.14 204.69 54.86 196.29 46.16 206.37"/><polygon class="e" points="122.46 224.65 123.94 215.34 115.19 215.34 122.46 224.65"/><polygon class="f" points="51.86 187.77 37.16 189.25 48.56 186.28 51.86 187.77"/><polygon class="g" points="77.5 97.68 40.75 126.53 85.5 125.68 77.5 97.68"/><polygon class="h" points="103.5 89.68 77.5 97.68 112.5 110.68 103.5 89.68"/><polygon class="i" points="145.5 70.68 177.62 70.68 161.5 81.68 145.5 70.68"/><polygon class="j" points="0.5 177.68 4.5 140.68 26.5 159.68 0.5 177.68"/><polygon class="k" points="4.5 140.68 13.5 109.68 60.5 138.68 4.5 140.68"/><polygon class="l" points="4.5 140.68 26.5 159.68 60.5 138.68 4.5 140.68"/><polygon class="m" points="13.5 109.68 25.5 79.68 40.75 126.53 13.5 109.68"/><polygon class="n" points="60.5 138.68 85.5 125.68 40.75 126.53 60.5 138.68"/><polygon class="o" points="85.5 125.68 112.5 110.68 77.5 97.68 85.5 125.68"/><polygon class="p" points="40.75 126.53 51.5 90.68 25.5 79.68 40.75 126.53"/><polygon class="q" points="77.5 97.68 51.5 90.68 40.75 126.53 77.5 97.68"/><polygon class="r" points="112.5 110.68 133.5 97.68 103.5 89.68 112.5 110.68"/><polygon class="s" points="51.5 90.68 78.5 78.68 77.5 97.68 51.5 90.68"/><polygon class="t" points="103.5 89.68 78.5 78.68 77.5 97.68 103.5 89.68"/><polygon class="u" points="51.5 90.68 36.5 59.68 25.5 79.68 51.5 90.68"/><polygon class="v" points="78.5 78.68 36.5 59.68 51.5 90.68 78.5 78.68"/><polygon class="w" points="133.5 97.68 161.5 81.68 145.5 70.68 133.5 97.68"/><polygon class="x" points="103.5 89.68 129.5 73.68 133.5 97.68 103.5 89.68"/><polygon class="y" points="145.5 70.68 129.5 73.68 133.5 97.68 145.5 70.68"/><polygon class="z" points="103.5 89.68 113.5 58.68 129.5 73.68 103.5 89.68"/><polygon class="aa" points="78.5 78.68 113.5 58.68 103.5 89.68 78.5 78.68"/><polygon class="ab" points="36.5 59.68 56.5 31.68 57.5 69.18 36.5 59.68"/><polygon class="ac" points="57.5 69.18 113.5 58.68 78.5 78.68 57.5 69.18"/><polygon class="ad" points="57.5 69.18 76.44 50.43 56.5 31.68 57.5 69.18"/><polygon class="ae" points="113.5 58.68 76.44 50.43 57.5 69.18 113.5 58.68"/><polygon class="af" points="129.5 73.68 145.5 70.68 113.5 58.68 129.5 73.68"/><polygon class="ag" points="56.5 31.68 75.34 14.92 76.44 50.43 56.5 31.68"/><polygon class="ah" points="113.5 58.68 91.19 36.61 76.44 50.43 113.5 58.68"/><polygon class="ai" points="75.34 14.92 91.19 36.61 76.44 50.43 75.34 14.92"/><polygon class="aj" points="161.5 81.68 186.2 96.61 177.62 70.68 161.5 81.68"/><polygon class="ak" points="75.34 14.92 96 4.35 84.8 27.86 75.34 14.92"/><polygon class="al" points="96 4.35 119.27 0.5 84.8 27.86 96 4.35"/><polygon class="ak" points="119.27 0.5 138.53 2.37 127.63 24.94 119.27 0.5"/><polygon class="am" points="138.53 2.37 152.84 8.1 151.74 27.36 138.53 2.37"/><polygon class="an" points="113.5 58.68 131.05 42.66 91.19 36.61 113.5 58.68"/><polygon class="ao" points="131.05 42.66 145.5 70.68 113.5 58.68 131.05 42.66"/><polygon class="ap" points="84.8 27.86 127.63 24.94 91.19 36.61 84.8 27.86"/><polygon class="aq" points="119.27 0.5 127.63 24.94 84.8 27.86 119.27 0.5"/><polygon class="ar" points="151.74 27.36 127.63 24.94 138.53 2.37 151.74 27.36"/><polygon class="as" points="131.05 42.66 127.63 24.94 91.19 36.61 131.05 42.66"/><polygon class="at" points="151.74 27.36 131.05 42.66 127.63 24.94 151.74 27.36"/><polygon class="au" points="145.5 70.68 164.62 48.28 177.62 70.68 145.5 70.68"/><polygon class="av" points="131.05 42.66 164.62 48.28 145.5 70.68 131.05 42.66"/><polygon class="aw" points="151.74 27.36 164.62 48.28 131.05 42.66 151.74 27.36"/><polygon class="ax" points="152.84 8.1 175.74 24.94 151.74 27.36 152.84 8.1"/><polygon class="ay" points="164.62 48.28 175.74 24.94 151.74 27.36 164.62 48.28"/><polygon class="az" points="191.05 44.1 175.74 24.94 164.62 48.28 191.05 44.1"/><polygon class="ba" points="177.62 70.68 191.05 44.1 164.62 48.28 177.62 70.68"/><polygon class="bb" points="186.2 96.61 213.28 82.41 177.62 70.68 186.2 96.61"/><polygon class="bc" points="213.28 82.41 191.05 44.1 177.62 70.68 213.28 82.41"/><polygon class="bd" points="186.2 96.61 212.4 123.25 213.28 82.41 186.2 96.61"/><polygon class="be" points="213.28 82.41 225.17 123.25 212.4 123.25 213.28 82.41"/><polygon class="bf" points="212.4 123.25 223.74 140.21 225.17 123.25 212.4 123.25"/><polygon class="bg" points="225.17 123.25 232.44 158.15 223.74 140.21 225.17 123.25"/><polygon class="bh" points="149.38 201.14 148.88 213.44 133.52 214.85 149.38 201.14"/><polygon class="bi" points="133.52 214.85 133.52 205.44 149.38 201.14 133.52 214.85"/><polygon class="bj" points="133.52 205.44 123.94 215.34 133.52 214.85 133.52 205.44"/><polygon class="bk" points="123.94 215.34 121.06 206.84 133.52 205.44 123.94 215.34"/><polygon class="bl" points="115.19 215.34 121.06 206.84 123.94 215.34 115.19 215.34"/><polygon class="bm" points="121.06 206.84 111.81 206.84 115.19 215.34 121.06 206.84"/><polygon class="bn" points="115.19 215.34 106.85 214.85 111.81 206.84 115.19 215.34"/><polygon class="bo" points="111.81 206.84 103.96 205.44 106.85 214.85 111.81 206.84"/><polygon class="bp" points="106.85 214.85 97.52 213.12 103.96 205.44 106.85 214.85"/><polygon class="bq" points="97.52 213.12 95.95 202.96 103.96 205.44 97.52 213.12"/><polygon class="br" points="97.52 213.12 88.94 209.65 95.95 202.96 97.52 213.12"/><polygon class="bs" points="88.94 209.65 88.94 199.74 95.95 202.96 88.94 209.65"/><polygon class="bt" points="88.94 209.65 81.34 205.44 88.94 199.74 88.94 209.65"/><polygon class="bu" points="81.34 205.44 81.83 195.94 88.94 199.74 81.34 205.44"/><polygon class="bv" points="81.34 205.44 74.65 200.69 81.83 195.94 81.34 205.44"/><polygon class="bw" points="74.65 191.89 81.83 195.94 74.65 200.69 74.65 191.89"/><polygon class="bx" points="74.65 191.89 68.21 195.53 74.65 200.69 74.65 191.89"/><polygon class="by" points="74.65 191.89 67.55 186.84 68.21 195.53 74.65 191.89"/><polygon class="bz" points="170.18 201.14 171.67 213.12 179.27 204.69 170.18 201.14"/><polygon class="ca" points="56.01 186.16 67.55 186.84 68.21 195.53 56.01 186.16"/><polygon class="cb" points="171.67 213.12 180.92 215.34 179.27 204.69 171.67 213.12"/><polygon class="cc" points="179.27 204.69 187.19 207.13 180.92 215.34 179.27 204.69"/><polygon class="cd" points="180.92 215.34 189.01 217.08 187.19 207.13 180.92 215.34"/><polygon class="ce" points="189.01 217.08 194.87 208.04 187.19 207.13 189.01 217.08"/><polygon class="cf" points="189.01 217.08 196.94 218.23 194.87 208.04 189.01 217.08"/><polygon class="cg" points="196.94 218.23 202.88 217.82 194.87 208.04 196.94 218.23"/><polygon class="ch" points="194.87 208.04 201.81 207.13 202.88 217.82 194.87 208.04"/><polygon class="ci" points="202.88 217.82 209.07 214.11 201.81 207.13 202.88 217.82"/><polygon class="cj" points="201.81 207.13 207.92 204.69 209.07 214.11 201.81 207.13"/><polygon class="ck" points="209.07 214.11 214.36 208.82 207.92 204.69 209.07 214.11"/><polygon class="cl" points="214.36 208.82 212.46 201.14 207.92 204.69 214.36 208.82"/><polygon class="cm" points="214.36 208.82 218.32 203.78 212.46 201.14 214.36 208.82"/><polygon class="cn" points="212.46 201.14 216.75 195.94 218.32 203.78 212.46 201.14"/><polygon class="co" points="218.32 203.78 221.38 198.14 216.75 195.94 218.32 203.78"/><polygon class="cp" points="216.75 195.94 219.06 191.89 221.38 198.14 216.75 195.94"/><polygon class="cq" points="221.38 198.14 219.06 191.89 225.01 191.18 221.38 198.14"/><polygon class="cr" points="168.62 194.21 170.18 185.21 173.24 183.22 168.62 194.21"/><polygon class="cs" points="170.18 185.21 174.15 176.21 173.24 183.22 170.18 185.21"/><polygon class="ct" points="173.24 183.22 179.27 176.21 174.15 176.21 173.24 183.22"/><polygon class="cu" points="174.15 176.21 179.27 169.35 179.27 176.21 174.15 176.21"/><polygon class="cv" points="179.27 176.21 184.96 173.56 179.27 169.35 179.27 176.21"/><polygon class="cw" points="179.27 169.35 185.62 163.99 184.96 173.56 179.27 169.35"/><polygon class="cx" points="184.96 173.56 192.06 173.56 185.62 163.99 184.96 173.56"/><polygon class="cy" points="185.62 163.99 192.56 161.92 192.06 173.56 185.62 163.99"/><polygon class="cz" points="192.56 161.92 198.01 161.92 192.06 173.56 192.56 161.92"/><polygon class="da" points="192.06 173.56 198.42 175.46 198.01 161.92 192.06 173.56"/><polygon class="db" points="198.01 161.92 205.44 165.06 198.42 175.46 198.01 161.92"/><polygon class="dc" points="198.42 175.46 206.6 180.71 205.44 165.06 198.42 175.46"/><polygon class="dd" points="205.44 165.06 213.94 173.56 206.6 180.71 205.44 165.06"/><polygon class="de" points="206.6 180.71 212.13 185.21 213.94 173.56 206.6 180.71"/><polygon class="df" points="212.13 185.21 216.75 189.83 213.94 173.56 212.13 185.21"/><polygon class="dg" points="213.94 173.56 222.04 187.52 216.75 189.83 213.94 173.56"/><polygon class="dh" points="216.75 189.83 219.06 191.89 222.04 187.52 216.75 189.83"/><polygon class="di" points="225.01 191.18 222.04 187.52 219.06 191.89 225.01 191.18"/><polygon class="dj" points="164.24 281.98 160.52 282.47 155.65 276.94 164.24 281.98"/><polygon class="dk" points="164.24 281.98 159.45 275.7 155.65 276.94 164.24 281.98"/><polygon class="dl" points="155.65 276.94 151.85 267.94 159.45 275.7 155.65 276.94"/><polygon class="dm" points="159.45 275.7 155.65 265.13 151.85 267.94 159.45 275.7"/><polygon class="dn" points="151.85 267.94 150.12 258.53 155.65 265.13 151.85 267.94"/><polygon class="do" points="155.65 265.13 153.84 254.56 150.12 258.53 155.65 265.13"/><polygon class="dp" points="150.12 258.53 149.38 247.63 153.84 254.56 150.12 258.53"/><polygon class="dq" points="153.84 254.56 153.84 243.66 149.38 247.63 153.84 254.56"/><polygon class="dr" points="149.38 247.63 151.11 234.83 153.84 243.66 149.38 247.63"/><polygon class="ds" points="153.84 243.66 155.07 231.12 151.11 234.83 153.84 243.66"/><polygon class="dt" points="151.11 234.83 151.85 222.78 155.07 231.12 151.11 234.83"/><polygon class="du" points="155.07 231.12 156.06 217.08 151.85 222.78 155.07 231.12"/><polygon class="dv" points="151.85 222.78 151.61 210.39 156.06 217.08 151.85 222.78"/><polygon class="dw" points="156.06 217.08 156.06 202.3 151.61 210.39 156.06 217.08"/><polygon class="dx" points="151.61 210.39 150.12 199.86 156.06 202.3 151.61 210.39"/><polygon class="dy" points="150.12 199.86 147.06 189.83 156.06 202.3 150.12 199.86"/><polygon class="dz" points="156.06 202.3 153.96 188.72 147.06 189.83 156.06 202.3"/><polygon class="ea" points="147.06 189.83 142.44 181.33 153.96 188.72 147.06 189.83"/><polygon class="eb" points="153.96 188.72 149.38 176.21 142.44 181.33 153.96 188.72"/><polygon class="ec" points="142.44 181.33 134.84 174.56 149.38 176.21 142.44 181.33"/><polygon class="ed" points="134.84 174.56 137.9 163.99 149.38 176.21 134.84 174.56"/><polygon class="ee" points="134.84 174.56 127.29 171 137.9 163.99 134.84 174.56"/><polygon class="ef" points="137.9 163.99 130.22 160.6 127.29 171 137.9 163.99"/><polygon class="eg" points="127.29 171 119.57 170.1 130.22 160.6 127.29 171"/><polygon class="eh" points="119.57 170.1 121.63 159.18 130.22 160.6 119.57 170.1"/><polygon class="ei" points="121.63 159.18 113.54 159.18 119.57 170.1 121.63 159.18"/><polygon class="ej" points="119.57 170.1 111.02 170.59 113.54 159.18 119.57 170.1"/><polygon class="ek" points="113.54 159.18 103.96 161.1 111.02 170.59 113.54 159.18"/><polygon class="el" points="111.02 170.59 102.19 172.78 103.96 161.1 111.02 170.59"/><polygon class="em" points="103.96 161.1 88.94 167.74 102.19 172.78 103.96 161.1"/><polygon class="en" points="102.19 172.78 87.28 177.94 88.94 167.74 102.19 172.78"/><polygon class="eo" points="88.94 167.74 77.87 173.98 87.28 177.94 88.94 167.74"/><polygon class="ep" points="87.28 177.94 77.05 182.81 77.87 173.98 87.28 177.94"/><polygon class="eq" points="77.87 173.98 67.55 179.38 77.05 182.81 77.87 173.98"/><polygon class="er" points="77.05 182.81 67.55 186.84 67.55 179.38 77.05 182.81"/><polygon class="es" points="67.55 186.84 56.01 186.16 67.55 179.38 67.55 186.84"/><polygon class="et" points="56.01 186.16 48.56 186.28 63.61 181.7 56.01 186.16"/><polygon class="eu" points="48.56 186.28 37.16 186.84 37.16 189.25 48.56 186.28"/><polygon class="ev" points="56.01 186.16 51.86 187.77 60.63 189.71 56.01 186.16"/><polygon class="ew" points="51.86 187.77 48.56 186.28 56.01 186.16 51.86 187.77"/><polygon class="ex" points="164.24 281.98 170.18 272.87 159.45 275.7 164.24 281.98"/><polygon class="ey" points="170.18 272.87 172.16 260.65 159.45 275.7 170.18 272.87"/><polygon class="ez" points="159.45 275.7 155.65 265.13 172.16 260.65 159.45 275.7"/><polygon class="fa" points="155.65 265.13 153.84 254.56 172.16 260.65 155.65 265.13"/><polygon class="fb" points="172.16 260.65 172.16 247.22 153.84 254.56 172.16 260.65"/><polygon class="fc" points="153.84 254.56 153.84 243.66 172.16 247.22 153.84 254.56"/><polygon class="fd" points="172.16 247.22 170.18 233.12 153.84 243.66 172.16 247.22"/><polygon class="fe" points="170.18 233.12 153.84 243.66 155.07 231.12 170.18 233.12"/><polygon class="ff" points="170.18 233.12 168.15 217.08 155.07 231.12 170.18 233.12"/><polygon class="fg" points="155.07 231.12 168.15 217.08 156.06 217.08 155.07 231.12"/><polygon class="fh" points="156.06 202.3 168.15 217.08 156.06 217.08 156.06 202.3"/><polygon class="fi" points="168.15 217.08 167.38 201.64 156.06 202.3 168.15 217.08"/><polygon class="fj" points="167.38 201.64 168.62 194.21 156.06 202.3 167.38 201.64"/><polygon class="fk" points="153.96 188.72 168.62 194.21 156.06 202.3 153.96 188.72"/><polygon class="fl" points="153.96 188.72 170.18 185.21 168.62 194.21 153.96 188.72"/><polygon class="fm" points="153.96 188.72 149.38 176.21 170.18 185.21 153.96 188.72"/><polygon class="cn" points="174.15 176.21 170.18 185.21 149.38 176.21 163 176.21 174.15 176.21"/><polygon class="fn" points="137.9 163.99 149.38 176.21 162.01 176.21 137.9 163.99"/><polygon class="fo" points="162.01 176.21 179.27 169.35 174.15 176.21 162.01 176.21"/><polygon class="fp" points="162.01 176.21 162.34 160.6 179.27 169.35 162.01 176.21"/><polygon class="fq" points="162.01 176.21 162.34 160.6 137.9 163.99 162.01 176.21"/><polygon class="fr" points="179.27 169.35 174.72 155.73 185.62 163.99 179.27 169.35"/><polygon class="fs" points="162.34 160.6 174.72 155.73 179.27 169.35 162.34 160.6"/><polygon class="ft" points="0.5 177.68 5.76 183.22 26.5 159.68 0.5 177.68"/><polygon class="fu" points="5.76 183.22 9.84 192.39 23.82 183.99 5.76 183.22"/><polygon class="fv" points="23.82 183.99 26.5 159.68 5.76 183.22 23.82 183.99"/><polygon class="fw" points="9.84 192.39 12.81 208.82 32.5 202.96 9.84 192.39"/><polygon class="fx" points="23.82 183.99 32.5 202.96 9.84 192.39 23.82 183.99"/><polygon class="fy" points="26.5 159.68 36.59 177.94 23.82 183.99 26.5 159.68"/><polygon class="fz" points="37.16 186.84 36.59 177.94 23.82 183.99 37.16 186.84"/><polygon class="ga" points="37.16 189.25 32.5 202.96 23.82 183.99 37.16 189.25"/><polygon class="gb" points="37.16 186.84 37.16 189.25 23.82 183.99 37.16 186.84"/><polygon class="gc" points="36.59 177.94 48.56 186.28 37.16 186.84 36.59 177.94"/><polygon class="gd" points="36.59 177.94 50.79 169.35 26.5 159.68 36.59 177.94"/><polygon class="ge" points="50.79 169.35 60.5 138.68 26.5 159.68 50.79 169.35"/><polygon class="gf" points="50.79 169.35 73.91 156.83 60.5 138.68 50.79 169.35"/><polygon class="gg" points="73.91 156.83 85.5 125.68 60.5 138.68 73.91 156.83"/><polygon class="gh" points="73.91 156.83 98.35 144.83 85.5 125.68 73.91 156.83"/><polygon class="gi" points="98.35 144.83 112.5 110.68 85.5 125.68 98.35 144.83"/><polygon class="gj" points="98.35 144.83 131.5 134.37 112.5 110.68 98.35 144.83"/><polygon class="gk" points="131.5 134.37 133.5 97.68 112.5 110.68 131.5 134.37"/><polygon class="gl" points="131.5 134.37 154.5 119.73 133.5 97.68 131.5 134.37"/><polygon class="gm" points="154.5 119.73 161.5 81.68 133.5 97.68 154.5 119.73"/><polygon class="gn" points="154.5 119.73 186.2 96.61 161.5 81.68 154.5 119.73"/><polygon class="go" points="154.5 119.73 184.96 122.7 186.2 96.61 154.5 119.73"/><polygon class="gp" points="184.96 122.7 212.4 123.25 186.2 96.61 184.96 122.7"/><polygon class="gq" points="184.96 122.7 207.56 140.21 212.4 123.25 184.96 122.7"/><polygon class="gr" points="207.56 140.21 223.74 140.21 212.4 123.25 207.56 140.21"/><polygon class="gs" points="207.56 140.21 222.64 159.68 223.74 140.21 207.56 140.21"/><polygon class="gt" points="222.64 159.68 232.44 158.15 223.74 140.21 222.64 159.68"/><polygon class="gu" points="232.44 158.15 233.43 166.41 222.64 159.68 232.44 158.15"/><polygon class="gv" points="233.43 166.41 231.01 171.83 222.64 159.68 233.43 166.41"/><polygon class="gw" points="48.56 186.28 50.79 169.35 36.59 177.94 48.56 186.28"/><polygon class="gx" points="63.61 181.7 50.79 169.35 48.56 186.28 63.61 181.7"/><polygon class="gy" points="63.61 181.7 67.55 179.38 50.79 169.35 63.61 181.7"/><polygon class="gz" points="67.55 179.38 73.91 156.83 50.79 169.35 67.55 179.38"/><polygon class="ha" points="67.55 179.38 77.87 173.98 73.91 156.83 67.55 179.38"/><polygon class="hb" points="77.87 173.98 88.94 167.74 86.13 150.83 77.87 173.98"/><polygon class="hc" points="77.87 173.98 73.91 156.83 86.13 150.83 77.87 173.98"/><polygon class="hc" points="88.94 167.74 103.96 161.1 98.35 144.83 88.94 167.74"/><polygon class="hd" points="88.94 167.74 86.13 150.83 98.35 144.83 88.94 167.74"/><polygon class="he" points="103.96 161.1 113.54 159.18 114.92 139.6 103.96 161.1"/><polygon class="hf" points="103.96 161.1 98.35 144.83 114.92 139.6 103.96 161.1"/><polygon class="hg" points="121.63 159.18 131.5 134.37 113.54 159.18 121.63 159.18"/><polygon class="hh" points="113.54 159.18 114.92 139.6 131.5 134.37 113.54 159.18"/><polygon class="hi" points="130.22 160.6 131.5 134.37 121.63 159.18 130.22 160.6"/><polygon class="hj" points="130.22 160.6 144.7 142.63 131.5 134.37 130.22 160.6"/><polygon class="hk" points="137.9 163.99 144.7 142.63 130.22 160.6 137.9 163.99"/><polygon class="hl" points="131.5 134.37 154.5 119.73 144.7 142.63 131.5 134.37"/><polygon class="hm" points="144.7 142.63 162.34 160.6 137.9 163.99 144.7 142.63"/><polygon class="hn" points="144.7 142.63 165.5 140.21 154.5 119.73 144.7 142.63"/><polygon class="ho" points="165.5 140.21 184.96 122.7 154.5 119.73 165.5 140.21"/><polygon class="hp" points="165.5 140.21 162.34 160.6 144.7 142.63 165.5 140.21"/><polygon class="hq" points="165.5 140.21 174.72 155.73 162.34 160.6 165.5 140.21"/><polygon class="hr" points="192.56 161.92 185.62 163.99 174.72 155.73 192.56 161.92"/><polygon class="hs" points="174.72 155.73 184.96 122.7 165.5 140.21 174.72 155.73"/><polygon class="ht" points="174.72 155.73 192.56 161.92 207.56 140.21 174.72 155.73"/><polygon class="hu" points="174.72 155.73 207.56 140.21 184.96 122.7 174.72 155.73"/><polygon class="hv" points="198.01 161.92 207.56 140.21 192.56 161.92 198.01 161.92"/><polygon class="hw" points="205.44 165.06 222.64 159.68 198.01 161.92 205.44 165.06"/><polygon class="hx" points="207.56 140.21 198.01 161.92 222.64 159.68 207.56 140.21"/><polygon class="hy" points="213.94 173.56 222.64 159.68 205.44 165.06 213.94 173.56"/><polygon class="hz" points="213.94 173.56 222.04 187.52 228.09 173.98 213.94 173.56"/><polygon class="ia" points="228.09 173.98 231.01 171.83 222.64 159.68 228.09 173.98"/><polygon class="ib" points="228.09 173.98 222.64 159.68 213.94 173.56 228.09 173.98"/><polygon class="ic" points="225.01 191.18 226.92 180.54 228.09 173.98 222.04 187.52 225.01 191.18"/><polygon class="id" points="148.88 213.44 149.38 241.82 121.06 242.81 148.88 213.44"/><polygon class="ie" points="149.38 241.82 149.95 259.85 128.73 261.75 149.38 241.82"/><polygon class="if" points="149.38 241.82 121.06 242.81 128.73 261.75 149.38 241.82"/><polygon class="ig" points="121.06 242.81 122.46 224.65 148.88 213.44 121.06 242.81"/><polygon class="ih" points="122.46 224.65 133.52 214.85 148.88 213.44 122.46 224.65"/><polygon class="ii" points="122.46 224.65 123.94 215.34 133.52 214.85 122.46 224.65"/><polygon class="ij" points="122.46 224.65 111.81 224.1 115.19 215.34 122.46 224.65"/><polygon class="ik" points="128.73 261.75 133.03 283.22 149.95 259.85 128.73 261.75"/><polygon class="il" points="133.03 283.22 151.85 282.47 149.95 259.85 133.03 283.22"/><polygon class="im" points="151.85 282.47 153.5 305.34 131.5 307.77 151.85 282.47"/><polygon class="in" points="133.03 283.22 131.5 307.77 151.85 282.47 133.03 283.22"/><polygon class="gx" points="153.5 305.34 155.65 331.11 134.35 331.11 153.5 305.34"/><polygon class="io" points="134.35 331.11 131.5 307.77 153.5 305.34 134.35 331.11"/><polygon class="ip" points="134.35 331.11 138.42 353.78 155.65 331.11 134.35 331.11"/><polygon class="iq" points="138.42 353.78 157.69 352.02 155.65 331.11 138.42 353.78"/><polygon class="ir" points="138.42 353.78 143.71 375.36 157.69 352.02 138.42 353.78"/><polygon class="is" points="143.71 375.36 159.94 372.06 157.69 352.02 143.71 375.36"/><polygon class="it" points="143.71 375.36 150.12 386.37 159.94 372.06 143.71 375.36"/><polygon class="iu" points="159.94 372.06 162.2 389.23 150.12 386.37 159.94 372.06"/><polygon class="iv" points="162.2 389.23 163.41 399.25 160.66 400.24 162.2 389.23"/><polygon class="iw" points="160.66 400.24 150.12 396.17 162.2 389.23 160.66 400.24"/><polygon class="ix" points="150.12 396.17 150.12 386.37 162.2 389.23 150.12 396.17"/><polygon class="iy" points="150.12 396.17 136.88 389.78 150.12 386.37 150.12 396.17"/><polygon class="iz" points="136.88 389.78 143.71 375.36 150.12 386.37 136.88 389.78"/><polygon class="ja" points="136.88 389.78 121.25 381.53 143.71 375.36 136.88 389.78"/><polygon class="jb" points="121.25 381.53 138.42 353.78 143.71 375.36 121.25 381.53"/><polygon class="jc" points="121.25 381.53 98.79 367.66 138.42 353.78 121.25 381.53"/><polygon class="jd" points="98.79 367.66 76.44 352.02 111.12 344.87 98.79 367.66"/><polygon class="je" points="76.44 352.02 111.12 344.87 78.75 325.05 76.44 352.02"/><polygon class="jf" points="76.44 352.02 58.49 339.14 78.75 325.05 76.44 352.02"/><polygon class="jg" points="58.49 339.14 43.08 325.05 62.9 310.85 58.49 339.14"/><polygon class="jh" points="58.49 339.14 78.75 325.05 62.9 310.85 58.49 339.14"/><polygon class="ji" points="98.79 367.66 138.42 353.78 111.12 344.87 98.79 367.66"/><polygon class="jj" points="134.35 331.11 111.12 344.87 138.42 353.78 134.35 331.11"/><polygon class="jk" points="131.5 307.77 111.12 344.87 134.35 331.11 131.5 307.77"/><polygon class="jl" points="131.5 307.77 104.95 312.83 111.12 344.87 131.5 307.77"/><polygon class="jm" points="131.5 307.77 133.03 283.22 100.66 286.41 131.5 307.77"/><polygon class="jn" points="104.95 312.83 131.5 307.77 100.66 286.41 104.95 312.83"/><polygon class="jo" points="78.75 325.05 104.95 312.83 111.12 344.87 78.75 325.05"/><polygon class="jp" points="78.75 325.05 104.95 312.83 79.3 298.63 78.75 325.05"/><polygon class="jq" points="100.66 286.41 79.3 298.63 104.95 312.83 100.66 286.41"/><polygon class="jr" points="78.75 325.05 62.9 310.85 79.3 298.63 78.75 325.05"/><polygon class="js" points="100.66 286.41 128.73 261.75 133.03 283.22 100.66 286.41"/><polygon class="jt" points="128.73 261.75 93.78 264.06 100.66 286.41 128.73 261.75"/><polygon class="ju" points="121.06 242.81 90.31 241.23 128.73 261.75 121.06 242.81"/><polygon class="jv" points="93.78 264.06 90.31 241.23 128.73 261.75 93.78 264.06"/><polygon class="jw" points="43.08 325.05 26.35 307.77 48.7 292.79 43.08 325.05"/><polygon class="jx" points="26.35 307.77 16.22 288.83 39.12 277.42 26.35 307.77"/><polygon class="jy" points="16.22 288.83 12.81 281.01 25.8 274.74 16.22 288.83"/><polygon class="jz" points="12.81 281.01 12.81 268.17 25.03 265.93 12.81 281.01"/><polygon class="ka" points="48.7 292.79 62.9 310.85 43.08 325.05 48.7 292.79"/><polygon class="kb" points="39.12 277.42 48.7 292.79 26.35 307.77 39.12 277.42"/><polygon class="kc" points="16.22 288.83 39.12 277.42 25.8 274.74 16.22 288.83"/><polygon class="kd" points="12.81 281.01 25.8 274.74 25.03 265.93 12.81 281.01"/><polygon class="ke" points="62.9 310.85 71.1 274.74 79.3 298.63 62.9 310.85"/><polygon class="kf" points="48.7 292.79 71.1 274.74 62.9 310.85 48.7 292.79"/><polygon class="kg" points="79.3 298.63 93.78 264.06 100.66 286.41 79.3 298.63"/><polygon class="kh" points="71.1 274.74 93.78 264.06 79.3 298.63 71.1 274.74"/><polygon class="ki" points="48.7 292.79 61.14 255.91 71.1 274.74 48.7 292.79"/><polygon class="kj" points="71.1 274.74 90.31 241.23 93.78 264.06 71.1 274.74"/><polygon class="kk" points="39.12 277.42 61.14 255.91 48.7 292.79 39.12 277.42"/><polygon class="kl" points="39.12 277.42 35.49 264.06 25.8 274.74 39.12 277.42"/><polygon class="km" points="25.03 265.93 35.49 264.06 25.8 274.74 25.03 265.93"/><polygon class="kn" points="39.12 277.42 35.49 264.06 61.14 255.91 39.12 277.42"/><polygon class="ko" points="71.1 274.74 90.31 241.23 61.14 255.91 71.1 274.74"/><polygon class="kp" points="122.46 224.65 111.81 224.1 121.06 242.81 122.46 224.65"/><polygon class="kq" points="106.85 214.85 111.81 224.1 115.19 215.34 106.85 214.85"/><polygon class="kr" points="90.31 241.23 111.81 224.1 121.06 242.81 90.31 241.23"/><polygon class="ks" points="111.81 224.1 97.52 223.22 106.85 214.85 111.81 224.1"/><polygon class="kt" points="90.31 241.23 97.52 223.22 111.81 224.1 90.31 241.23"/><polygon class="ku" points="90.31 241.23 79.3 221.34 61.14 255.91 90.31 241.23"/><polygon class="kv" points="90.31 241.23 97.52 223.22 79.3 221.34 90.31 241.23"/><polygon class="kw" points="97.52 223.22 97.52 213.12 106.85 214.85 97.52 223.22"/><polygon class="kx" points="79.3 221.34 97.52 213.12 97.52 223.22 79.3 221.34"/><polygon class="ky" points="79.3 221.34 88.94 209.65 97.52 213.12 79.3 221.34"/><polygon class="kz" points="79.3 221.34 81.34 205.44 88.94 209.65 79.3 221.34"/><polygon class="la" points="79.3 221.34 69.17 213.44 81.34 205.44 79.3 221.34"/><polygon class="lb" points="69.17 213.44 74.65 200.69 81.34 205.44 69.17 213.44"/><polygon class="lc" points="69.17 213.44 61.14 204.69 74.65 200.69 69.17 213.44"/><polygon class="ld" points="61.14 204.69 68.21 195.53 74.65 200.69 61.14 204.69"/><polygon class="le" points="61.14 204.69 54.86 196.29 68.21 195.53 61.14 204.69"/><polygon class="lf" points="54.86 196.29 60.63 189.71 68.21 195.53 54.86 196.29"/><polygon class="lg" points="54.86 196.29 51.86 187.77 60.63 189.71 54.86 196.29"/><polygon class="lh" points="79.3 221.34 53.98 233.45 61.14 255.91 79.3 221.34"/><polygon class="li" points="53.98 233.45 50.13 218.16 69.17 213.44 53.98 233.45"/><polygon class="lj" points="53.98 233.45 79.3 221.34 69.17 213.44 53.98 233.45"/><polygon class="lk" points="50.13 218.16 46.16 206.37 61.14 204.69 50.13 218.16"/><polygon class="ll" points="46.16 206.37 44.51 198.14 54.86 196.29 46.16 206.37"/><polygon class="lm" points="44.51 198.14 51.86 187.77 54.86 196.29 44.51 198.14"/><polygon class="ln" points="44.51 198.14 37.16 189.25 51.86 187.77 44.51 198.14"/><polygon class="lo" points="44.51 198.14 32.5 202.96 37.16 189.25 44.51 198.14"/><polygon class="lp" points="44.51 198.14 46.16 206.37 32.5 202.96 44.51 198.14"/><polygon class="lq" points="35.49 264.06 32.46 239.51 53.98 233.45 35.49 264.06"/><polygon class="lr" points="25.03 265.93 23.38 250.19 35.49 264.06 25.03 265.93"/><polygon class="ls" points="12.81 268.17 13.5 249.12 25.03 265.93 12.81 268.17"/><polygon class="lt" points="13.5 249.12 23.38 250.19 25.03 265.93 13.5 249.12"/><polygon class="lu" points="35.49 264.06 32.46 239.51 23.38 250.19 35.49 264.06"/><polygon class="lv" points="13.5 249.12 32.46 239.51 23.38 250.19 13.5 249.12"/><polygon class="lw" points="13.5 249.12 14.02 228.8 32.46 239.51 13.5 249.12"/><polygon class="lx" points="14.02 228.8 12.81 208.82 28.55 217.08 14.02 228.8"/><polygon class="ly" points="28.55 217.08 32.46 239.51 14.02 228.8 28.55 217.08"/><polygon class="lz" points="28.55 217.08 32.5 202.96 12.81 208.82 28.55 217.08"/><polygon class="ma" points="28.55 217.08 46.16 206.37 32.5 202.96 28.55 217.08"/><polygon class="mb" points="28.55 217.08 50.13 218.16 46.16 206.37 28.55 217.08"/><polygon class="mc" points="32.46 239.51 50.13 218.16 28.55 217.08 32.46 239.51"/><polygon class="md" points="53.98 233.45 50.13 218.16 32.46 239.51 53.98 233.45"/><polygon class="me" points="166.16 402.56 170.02 403.44 178.61 396.83 166.16 402.56"/><polygon class="mf" points="166.16 402.56 166.16 387.25 178.61 396.83 166.16 402.56"/><polygon class="mg" points="178.61 396.83 188.51 388.46 166.16 387.25 178.61 396.83"/><polygon class="mh" points="166.16 387.25 167.05 372.06 188.51 388.46 166.16 387.25"/><polygon class="mi" points="188.51 388.46 201.06 374.81 167.05 372.06 188.51 388.46"/><polygon class="mj" points="167.6 352.02 167.05 372.06 183.04 373.35 167.6 352.02"/><polygon class="mk" points="201.06 374.81 210.75 362.69 183.04 373.35 201.06 374.81"/><polygon class="ml" points="167.6 352.02 189.28 355.66 183.04 373.35 167.6 352.02"/><polygon class="mm" points="210.75 362.69 189.28 355.66 183.04 373.35 210.75 362.69"/><polygon class="mn" points="167.6 352.02 168.59 331.11 189.28 355.66 167.6 352.02"/><polygon class="mo" points="189.28 355.66 193.69 331.55 168.59 331.11 189.28 355.66"/><polygon class="mp" points="168.59 331.11 169.58 308.92 193.69 331.55 168.59 331.11"/><polygon class="mq" points="193.69 331.55 198.86 308.92 169.58 308.92 193.69 331.55"/><polygon class="mr" points="193.69 331.55 226.06 338.54 189.28 355.66 193.69 331.55"/><polygon class="ms" points="210.75 362.69 226.06 338.54 189.28 355.66 210.75 362.69"/><polygon class="mt" points="226.06 338.54 232.61 318.8 193.69 331.55 226.06 338.54"/><polygon class="mu" points="198.86 308.92 232.61 318.8 193.69 331.55 198.86 308.92"/><polygon class="mv" points="198.86 308.92 236.07 302.29 232.61 318.8 198.86 308.92"/><polygon class="mw" points="214.85 306.07 237.81 279.71 236.07 302.29 214.85 306.07"/><polygon class="lm" points="214.85 306.07 215.6 283.22 237.81 279.71 214.85 306.07"/><polygon class="mx" points="237.81 279.71 235 261.75 215.6 283.22 237.81 279.71"/><polygon class="my" points="215.6 283.22 213.78 259.85 235 261.75 215.6 283.22"/><polygon class="mz" points="169.58 308.92 170.18 286.41 198.86 308.92 169.58 308.92"/><polygon class="na" points="198.86 308.92 215.6 283.22 214.85 306.07 198.86 308.92"/><polygon class="nb" points="198.86 308.92 195.2 282.47 170.18 286.41 198.86 308.92"/><polygon class="nc" points="198.86 308.92 215.6 283.22 195.2 282.47 198.86 308.92"/><polygon class="nd" points="170.18 286.41 171.34 272.44 195.2 282.47 170.18 286.41"/><polygon class="ne" points="195.2 282.47 213.78 259.85 215.6 283.22 195.2 282.47"/><polygon class="gx" points="195.2 282.47 194.62 260.65 171.34 272.44 195.2 282.47"/><polygon class="nf" points="195.2 282.47 213.78 259.85 194.62 260.65 195.2 282.47"/><polygon class="ng" points="171.34 272.44 172.16 257.29 194.62 260.65 171.34 272.44"/><polygon class="nh" points="172.16 257.29 172.16 240.17 194.62 260.65 172.16 257.29"/><polygon class="ni" points="172.16 240.17 172.16 225.42 192.23 240.69 172.16 240.17"/><polygon class="nj" points="172.16 225.42 171.67 213.12 184.22 225.1 172.16 225.42"/><polygon class="nk" points="194.62 260.65 192.23 240.69 172.16 240.17 194.62 260.65"/><polygon class="nl" points="184.22 225.1 192.23 240.69 172.16 225.42 184.22 225.1"/><polygon class="nm" points="184.22 225.1 180.92 215.34 171.67 213.12 184.22 225.1"/><polygon class="nn" points="184.22 225.1 189.01 217.08 180.92 215.34 184.22 225.1"/><polygon class="no" points="184.22 225.1 192.97 226.41 189.01 217.08 184.22 225.1"/><polygon class="np" points="184.22 225.1 192.23 240.69 192.97 226.41 184.22 225.1"/><polygon class="nq" points="192.97 226.41 196.94 218.23 189.01 217.08 192.97 226.41"/><polygon class="nr" points="192.97 226.41 201.31 226.41 196.94 218.23 192.97 226.41"/><polygon class="ns" points="192.23 240.69 201.31 226.41 192.97 226.41 192.23 240.69"/><polygon class="nt" points="192.23 240.69 208.25 240.17 194.62 260.65 192.23 240.69"/><polygon class="nu" points="192.23 240.69 201.31 226.41 208.25 240.17 192.23 240.69"/><polygon class="nv" points="213.78 259.85 208.25 240.17 194.62 260.65 213.78 259.85"/><polygon class="nw" points="213.78 259.85 229.96 241.23 235 261.75 213.78 259.85"/><polygon class="mt" points="208.25 240.17 229.96 241.23 228.09 225.1 208.25 240.17"/><polygon class="nx" points="208.25 240.17 213.78 259.85 229.96 241.23 208.25 240.17"/><polygon class="ny" points="208.25 240.17 213.94 224.1 201.31 226.41 208.25 240.17"/><polygon class="nz" points="213.94 224.1 228.09 225.1 208.25 240.17 213.94 224.1"/><polygon class="oa" points="213.94 224.1 227.4 214.85 214.36 208.82 213.94 224.1"/><polygon class="ob" points="209.07 214.11 214.08 219.05 214.36 208.82 209.07 214.11"/><polygon class="oc" points="201.31 226.41 202.88 217.82 196.94 218.23 201.31 226.41"/><polygon class="nq" points="202.88 217.82 213.94 224.1 201.31 226.41 202.88 217.82"/><polygon class="od" points="209.07 214.11 213.94 224.1 202.88 217.82 209.07 214.11"/><polygon class="oe" points="214.08 219.05 213.94 224.1 209.07 214.11 214.08 219.05"/><polygon class="of" points="214.36 208.82 227.4 204.98 227.4 214.85 214.36 208.82"/><polygon class="og" points="218.32 203.78 227.4 204.98 214.36 208.82 218.32 203.78"/><polygon class="oh" points="227.4 204.98 227.07 197.76 218.32 203.78 227.4 204.98"/><polygon class="oi" points="221.38 198.14 227.07 197.76 218.32 203.78 221.38 198.14"/><polygon class="oj" points="227.07 197.76 227.07 190.68 221.38 198.14 227.07 197.76"/><polygon class="ok" points="225.01 191.18 227.07 190.68 221.38 198.14 225.01 191.18"/><polygon class="ol" points="227.07 190.68 226.92 180.54 225.01 191.18 227.07 190.68"/></svg>