<svg xmlns="http://www.w3.org/2000/svg" viewBox="0 0 237.31 402.94"><defs><style>.a{fill:#755a3e;}.b{fill:#ad8a68;}.c{fill:#886b4f;}.d{fill:#7b5d43;}.e{fill:#9e7959;}.f{fill:#624625;}.g{fill:#b8936c;}.h{fill:#dab78b;}.i{fill:#eac292;}.j{fill:#977b52;}.k{fill:#a17e55;}.l{fill:#a08159;}.m{fill:#af8c63;}.n{fill:#9e7a55;}.o{fill:#c9a276;}.p{fill:#cca776;}.q{fill:#d0a675;}.r{fill:#f4c999;}.s{fill:#c3a37d;}.t{fill:#be9c74;}.u{fill:#c2a380;}.v{fill:#debd96;}.w{fill:#d4ac78;}.x{fill:#dab284;}.y{fill:#ecc598;}.z{fill:#facba0;}.aa{fill:#ffe1b7;}.ab{fill:#e2c8aa;}.ac{fill:#d7bc9f;}.ad{fill:#f5e1c4;}.ae{fill:#ddc6a8;}.af{fill:#f5cda4;}.ag{fill:#fbf3e4;}.ah{fill:#edd6ba;}.ai{fill:#fef3dd;}.aj{fill:#e5c097;}.ak{fill:#fff;}.al{fill:#fefffd;}.am{fill:#fefdfa;}.an{fill:#f5d5af;}.ao{fill:#ffe3bf;}.ap{fill:#f9e6cc;}.aq{fill:#fbf8ef;}.ar{fill:#fdf8f1;}.as{fill:#f8e8cd;}.at{fill:#e9d3b9;}.au{fill:#fff7d1;}.av{fill:#ffeac8;}.aw{fill:#fdeece;}.ax{fill:#fefcf9;}.ay{fill:#fffaf1;}.az{fill:#fff3d7;}.ba{fill:#efcca3;}.bb{fill:#ba9669;}.bc{fill:#ddb484;}.bd{fill:#a7875a;}.be{fill:#95754f;}.bf{fill:#856446;}.bg{fill:#7a6246;}.bh{fill:#8e633e;}.bi{fill:#a47e58;}.bj{fill:#b0865b;}.bk{fill:#af8659;}.bl{fill:#bf966c;}.bm{fill:#d1b08a;}.bn{fill:#b28c64;}.bo{fill:#c19f78;}.bp{fill:#af8b60;}.bq{fill:#bd9870;}.br{fill:#c19a6e;}.bs{fill:#be9c73;}.bt{fill:#cda87d;}.bu{fill:#caa479;}.bv{fill:#cca57a;}.bw{fill:#ab8763;}.bx{fill:#b3916c;}.by{fill:#a17f5d;}.bz{fill:#7d5d3b;}.ca{fill:#b38f69;}.cb{fill:#9a714a;}.cc{fill:#b38960;}.cd{fill:#976e46;}.ce{fill:#9f7854;}.cf{fill:#a07b53;}.cg{fill:#926c48;}.ch{fill:#906b48;}.ci{fill:#947147;}.cj{fill:#a07a53;}.ck{fill:#977550;}.cl{fill:#987251;}.cm{fill:#8a6c4c;}.cn{fill:#916f4a;}.co{fill:#896448;}.cp{fill:#95724c;}.cq{fill:#8c6747;}.cr{fill:#432f22;}.cs{fill:#54321d;}.ct{fill:#3a3122;}.cu{fill:#413328;}.cv{fill:#433228;}.cw{fill:#48392d;}.cx{fill:#4c3a2d;}.cy{fill:#48382b;}.cz{fill:#433928;}.da{fill:#40352a;}.db{fill:#443a2e;}.dc{fill:#544332;}.dd{fill:#48392e;}.de{fill:#4a3e2e;}.df{fill:#443629;}.dg{fill:#48372b;}.dh{fill:#3e3026;}.di{fill:#41382a;}.dj{fill:#614f38;}.dk{fill:#5c422f;}.dl{fill:#674b32;}.dm{fill:#6c4e36;}.dn{fill:#6f4c35;}.do{fill:#7f5c3f;}.dp{fill:#765035;}.dq{fill:#835c33;}.dr{fill:#876246;}.ds{fill:#7d5e3d;}.dt{fill:#775741;}.du{fill:#72543f;}.dv{fill:#6a4e37;}.dw{fill:#5d412d;}.dx{fill:#5a422b;}.dy{fill:#483425;}.dz{fill:#573e2c;}.ea{fill:#573f2c;}.eb{fill:#624930;}.ec{fill:#684d38;}.ed{fill:#5a452d;}.ee{fill:#5c4a36;}.ef{fill:#664c3a;}.eg{fill:#68563f;}.eh{fill:#6f5940;}.ei{fill:#7f644c;}.ej{fill:#8b6b46;}.ek{fill:#92724e;}.el{fill:#816246;}.em{fill:#725942;}.en{fill:#6e5643;}.eo{fill:#614e3e;}.ep{fill:#53453a;}.eq{fill:#584737;}.er{fill:#524332;}.es{fill:#4f3f32;}.et{fill:#aa8e70;}.eu{fill:#c4a987;}.ev{fill:#59452a;}.ew{fill:#65492e;}.ex{fill:#a6835d;}.ey{fill:#977254;}.ez{fill:#8e6851;}.fa{fill:#7b5c43;}.fb{fill:#816146;}.fc{fill:#7e6146;}.fd{fill:#77583f;}.fe{fill:#84624d;}.ff{fill:#825f45;}.fg{fill:#8a6747;}.fh{fill:#9a734d;}.fi{fill:#946c4b;}.fj{fill:#9f7853;}.fk{fill:#8f6d50;}.fl{fill:#89674d;}.fm{fill:#997459;}.fn{fill:#976f4e;}.fo{fill:#8d6950;}.fp{fill:#926d51;}.fq{fill:#977654;}.fr{fill:#856045;}.fs{fill:#896849;}.ft{fill:#6f5a46;}.fu{fill:#846e54;}.fv{fill:#80644a;}.fw{fill:#967755;}.fx{fill:#91724e;}.fy{fill:#6d553c;}.fz{fill:#7c6046;}.ga{fill:#7b5f3f;}.gb{fill:#7e6141;}.gc{fill:#71553a;}.gd{fill:#6b543c;}.ge{fill:#5c432d;}.gf{fill:#6b4e41;}.gg{fill:#705540;}.gh{fill:#7a6046;}.gi{fill:#7e6147;}.gj{fill:#846446;}.gk{fill:#957049;}.gl{fill:#9c7450;}.gm{fill:#9d7d52;}.gn{fill:#a17d56;}.go{fill:#997251;}.gp{fill:#6f523a;}.gq{fill:#684b36;}.gr{fill:#544030;}.gs{fill:#614834;}.gt{fill:#403527;}.gu{fill:#463b2f;}.gv{fill:#554c3d;}.gw{fill:#745a43;}.gx{fill:#74563d;}.gy{fill:#685140;}.gz{fill:#755d44;}.ha{fill:#68523c;}.hb{fill:#7d634e;}.hc{fill:#806449;}.hd{fill:#7c6246;}.he{fill:#9f8262;}.hf{fill:#936e50;}.hg{fill:#8a6a4b;}.hh{fill:#a07f5f;}.hi{fill:#907250;}.hj{fill:#86674b;}.hk{fill:#8d6b4e;}.hl{fill:#956e48;}.hm{fill:#957553;}.hn{fill:#8d6949;}.ho{fill:#987654;}.hp{fill:#9d7c5e;}.hq{fill:#9a785a;}.hr{fill:#826349;}.hs{fill:#a57e5b;}.ht{fill:#76593b;}.hu{fill:#7e5d3e;}.hv{fill:#70553c;}.hw{fill:#624a35;}.hx{fill:#6c5137;}.hy{fill:#65523a;}.hz{fill:#655139;}.ia{fill:#685948;}.ib{fill:#624a32;}.ic{fill:#7c684a;}.id{fill:#806145;}.ie{fill:#79553f;}.if{fill:#7e5e40;}.ig{fill:#936a49;}.ih{fill:#88674c;}.ii{fill:#9e7859;}.ij{fill:#a7845f;}.ik{fill:#866145;}.il{fill:#876141;}.im{fill:#836245;}.in{fill:#8e6849;}.io{fill:#785a43;}.ip{fill:#6b533e;}.iq{fill:#694c31;}.ir{fill:#7f5f46;}.is{fill:#715237;}.it{fill:#6c523b;}.iu{fill:#604937;}.iv{fill:#4d3c29;}.iw{fill:#603f36;}.ix{fill:#5e493a;}.iy{fill:#735343;}.iz{fill:#785d45;}.ja{fill:#8d6d4b;}.jb{fill:#906543;}.jc{fill:#906a49;}.jd{fill:#80634c;}.je{fill:#86694d;}.jf{fill:#8a6f51;}.jg{fill:#8e7258;}.jh{fill:#81664b;}.ji{fill:#937153;}.jj{fill:#7a5f43;}.jk{fill:#6c5140;}.jl{fill:#705241;}.jm{fill:#916e51;}.jn{fill:#9c7e63;}.jo{fill:#6e5542;}.jp{fill:#795f49;}.jq{fill:#836850;}.jr{fill:#755a49;}.js{fill:#997452;}.jt{fill:#9e7757;}.ju{fill:#7e6148;}.jv{fill:#937156;}.jw{fill:#80674c;}.jx{fill:#987850;}.jy{fill:#9b835c;}.jz{fill:#b18c5f;}.ka{fill:#795d48;}.kb{fill:#7b5d46;}.kc{fill:#816448;}.kd{fill:#856c4f;}.ke{fill:#9a7e64;}.kf{fill:#755745;}.kg{fill:#957156;}.kh{fill:#916952;}.ki{fill:#775d48;}.kj{fill:#8f6d4f;}.kk{fill:#85674d;}.kl{fill:#745639;}.km{fill:#917050;}.kn{fill:#7b5e41;}.ko{fill:#906d4f;}.kp{fill:#987556;}.kq{fill:#9a7758;}.kr{fill:#84644d;}.ks{fill:#a47f5c;}.kt{fill:#8f7254;}.ku{fill:#89664d;}.kv{fill:#866e4f;}.kw{fill:#a4825d;}.kx{fill:#9d7a59;}.ky{fill:#8e6a50;}.kz{fill:#9a7559;}.la{fill:#8f6f53;}.lb{fill:#977250;}.lc{fill:#8d6f50;}.ld{fill:#916d52;}.le{fill:#7b5f47;}.lf{fill:#7f5f45;}.lg{fill:#75573f;}.lh{fill:#946f51;}.li{fill:#906e54;}.lj{fill:#997552;}.lk{fill:#8f6e52;}.ll{fill:#826549;}.lm{fill:#775a43;}.ln{fill:#7a5d44;}.lo{fill:#9c764d;}.lp{fill:#7e674c;}.lq{fill:#a58561;}.lr{fill:#ab8860;}.ls{fill:#cba47b;}.lt{fill:#a88254;}.lu{fill:#9e7c58;}.lv{fill:#9d7d56;}.lw{fill:#9e8157;}.lx{fill:#967550;}.ly{fill:#a07b54;}.lz{fill:#98744d;}.ma{fill:#97744b;}.mb{fill:#8a6b50;}.mc{fill:#93714c;}.md{fill:#947354;}.me{fill:#5a483f;}.mf{fill:#603d33;}.mg{fill:#6d4635;}.mh{fill:#654b37;}.mi{fill:#6c583d;}.mj{fill:#6a5036;}.mk{fill:#765d3e;}.ml{fill:#634c36;}.mm{fill:#74543c;}.mn{fill:#5d4732;}.mo{fill:#5a4735;}.mp{fill:#674e32;}.mq{fill:#6c533f;}.mr{fill:#6a4d36;}.ms{fill:#6a4f36;}.mt{fill:#685239;}.mu{fill:#654d40;}.mv{fill:#74563b;}.mw{fill:#785e43;}.mx{fill:#796243;}.my{fill:#6b503a;}.mz{fill:#634835;}.na{fill:#6a4f3c;}.nb{fill:#664c36;}.nc{fill:#674b38;}.nd{fill:#7a5a3e;}.ne{fill:#74543e;}.nf{fill:#765842;}.ng{fill:#765a41;}.nh{fill:#805e44;}.ni{fill:#82593e;}.nj{fill:#846145;}.nk{fill:#7d593b;}.nl{fill:#705135;}.nm{fill:#8f6741;}.nn{fill:#815d3c;}.no{fill:#8a6544;}.np{fill:#705638;}.nq{fill:#6e5541;}.nr{fill:#795a3f;}.ns{fill:#74573d;}.nt{fill:#7b593d;}.nu{fill:#79593f;}.nv{fill:#6f513b;}.nw{fill:#775c48;}.nx{fill:#674f3e;}.ny{fill:#6c5039;}.nz{fill:#72533a;}.oa{fill:#6b5137;}.ob{fill:#735a3f;}.oc{fill:#7c5c3d;}.od{fill:#6e523a;}.oe{fill:#695138;}.of{fill:#6b5741;}.og{fill:#674f35;}.oh{fill:#7b644e;}.oi{fill:#775840;}.oj{fill:#7e694e;}.ok{fill:#6c5945;}.ol{fill:#7d6d54;}</style></defs><title>Artboard 1</title><polygon class="a" points="213.44 223.6 227.59 224.6 226.9 214.35 213.44 223.6"/><polygon class="b" points="34.99 263.56 60.64 255.41 53.48 232.95 34.99 263.56"/><polygon class="c" points="49.63 217.66 68.67 212.94 60.64 204.19 49.63 217.66"/><polygon class="d" points="45.66 205.87 60.64 204.19 54.36 195.79 45.66 205.87"/><polygon class="e" points="121.96 224.15 123.44 214.84 114.69 214.84 121.96 224.15"/><polygon class="f" points="51.36 187.27 36.66 188.75 48.06 185.78 51.36 187.27"/><polygon class="g" points="77 97.18 40.25 126.03 85 125.18 77 97.18"/><polygon class="h" points="103 89.18 77 97.18 112 110.18 103 89.18"/><polygon class="i" points="145 70.18 177.12 70.18 161 81.18 145 70.18"/><polygon class="j" points="0 177.18 4 140.18 26 159.18 0 177.18"/><polygon class="k" points="4 140.18 13 109.18 60 138.18 4 140.18"/><polygon class="l" points="4 140.18 26 159.18 60 138.18 4 140.18"/><polygon class="m" points="13 109.18 25 79.18 40.25 126.03 13 109.18"/><polygon class="n" points="60 138.18 85 125.18 40.25 126.03 60 138.18"/><polygon class="o" points="85 125.18 112 110.18 77 97.18 85 125.18"/><polygon class="p" points="40.25 126.03 51 90.18 25 79.18 40.25 126.03"/><polygon class="q" points="77 97.18 51 90.18 40.25 126.03 77 97.18"/><polygon class="r" points="112 110.18 133 97.18 103 89.18 112 110.18"/><polygon class="s" points="51 90.18 78 78.18 77 97.18 51 90.18"/><polygon class="t" points="103 89.18 78 78.18 77 97.18 103 89.18"/><polygon class="u" points="51 90.18 36 59.18 25 79.18 51 90.18"/><polygon class="v" points="78 78.18 36 59.18 51 90.18 78 78.18"/><polygon class="w" points="133 97.18 161 81.18 145 70.18 133 97.18"/><polygon class="x" points="103 89.18 129 73.18 133 97.18 103 89.18"/><polygon class="y" points="145 70.18 129 73.18 133 97.18 145 70.18"/><polygon class="z" points="103 89.18 113 58.18 129 73.18 103 89.18"/><polygon class="aa" points="78 78.18 113 58.18 103 89.18 78 78.18"/><polygon class="ab" points="36 59.18 56 31.18 57 68.68 36 59.18"/><polygon class="ac" points="57 68.68 113 58.18 78 78.18 57 68.68"/><polygon class="ad" points="57 68.68 75.94 49.93 56 31.18 57 68.68"/><polygon class="ae" points="113 58.18 75.94 49.93 57 68.68 113 58.18"/><polygon class="af" points="129 73.18 145 70.18 113 58.18 129 73.18"/><polygon class="ag" points="56 31.18 74.84 14.42 75.94 49.93 56 31.18"/><polygon class="ah" points="113 58.18 90.69 36.11 75.94 49.93 113 58.18"/><polygon class="ai" points="74.84 14.42 90.69 36.11 75.94 49.93 74.84 14.42"/><polygon class="aj" points="161 81.18 185.7 96.11 177.12 70.18 161 81.18"/><polygon class="ak" points="74.84 14.42 95.5 3.85 84.3 27.36 74.84 14.42"/><polygon class="al" points="95.5 3.85 118.77 0 84.3 27.36 95.5 3.85"/><polygon class="ak" points="118.77 0 138.03 1.87 127.13 24.44 118.77 0"/><polygon class="am" points="138.03 1.87 152.34 7.6 151.24 26.86 138.03 1.87"/><polygon class="an" points="113 58.18 130.55 42.16 90.69 36.11 113 58.18"/><polygon class="ao" points="130.55 42.16 145 70.18 113 58.18 130.55 42.16"/><polygon class="ap" points="84.3 27.36 127.13 24.44 90.69 36.11 84.3 27.36"/><polygon class="aq" points="118.77 0 127.13 24.44 84.3 27.36 118.77 0"/><polygon class="ar" points="151.24 26.86 127.13 24.44 138.03 1.87 151.24 26.86"/><polygon class="as" points="130.55 42.16 127.13 24.44 90.69 36.11 130.55 42.16"/><polygon class="at" points="151.24 26.86 130.55 42.16 127.13 24.44 151.24 26.86"/><polygon class="au" points="145 70.18 164.12 47.78 177.12 70.18 145 70.18"/><polygon class="av" points="130.55 42.16 164.12 47.78 145 70.18 130.55 42.16"/><polygon class="aw" points="151.24 26.86 164.12 47.78 130.55 42.16 151.24 26.86"/><polygon class="ax" points="152.34 7.6 175.24 24.44 151.24 26.86 152.34 7.6"/><polygon class="ay" points="164.12 47.78 175.24 24.44 151.24 26.86 164.12 47.78"/><polygon class="az" points="190.55 43.6 175.24 24.44 164.12 47.78 190.55 43.6"/><polygon class="ba" points="177.12 70.18 190.55 43.6 164.12 47.78 177.12 70.18"/><polygon class="bb" points="185.7 96.11 212.78 81.91 177.12 70.18 185.7 96.11"/><polygon class="bc" points="212.78 81.91 190.55 43.6 177.12 70.18 212.78 81.91"/><polygon class="bd" points="185.7 96.11 211.9 122.75 212.78 81.91 185.7 96.11"/><polygon class="be" points="212.78 81.91 224.67 122.75 211.9 122.75 212.78 81.91"/><polygon class="bf" points="211.9 122.75 223.24 139.71 224.67 122.75 211.9 122.75"/><polygon class="bg" points="224.67 122.75 231.94 157.65 223.24 139.71 224.67 122.75"/><polygon class="bh" points="148.88 200.64 148.38 212.94 133.02 214.35 148.88 200.64"/><polygon class="bi" points="133.02 214.35 133.02 204.94 148.88 200.64 133.02 214.35"/><polygon class="bj" points="133.02 204.94 123.44 214.84 133.02 214.35 133.02 204.94"/><polygon class="bk" points="123.44 214.84 120.56 206.34 133.02 204.94 123.44 214.84"/><polygon class="bl" points="114.69 214.84 120.56 206.34 123.44 214.84 114.69 214.84"/><polygon class="bm" points="120.56 206.34 111.31 206.34 114.69 214.84 120.56 206.34"/><polygon class="bn" points="114.69 214.84 106.35 214.35 111.31 206.34 114.69 214.84"/><polygon class="bo" points="111.31 206.34 103.46 204.94 106.35 214.35 111.31 206.34"/><polygon class="bp" points="106.35 214.35 97.02 212.62 103.46 204.94 106.35 214.35"/><polygon class="bq" points="97.02 212.62 95.45 202.46 103.46 204.94 97.02 212.62"/><polygon class="br" points="97.02 212.62 88.44 209.15 95.45 202.46 97.02 212.62"/><polygon class="bs" points="88.44 209.15 88.44 199.24 95.45 202.46 88.44 209.15"/><polygon class="bt" points="88.44 209.15 80.84 204.94 88.44 199.24 88.44 209.15"/><polygon class="bu" points="80.84 204.94 81.33 195.44 88.44 199.24 80.84 204.94"/><polygon class="bv" points="80.84 204.94 74.15 200.19 81.33 195.44 80.84 204.94"/><polygon class="bw" points="74.15 191.39 81.33 195.44 74.15 200.19 74.15 191.39"/><polygon class="bx" points="74.15 191.39 67.71 195.03 74.15 200.19 74.15 191.39"/><polygon class="by" points="74.15 191.39 67.05 186.34 67.71 195.03 74.15 191.39"/><polygon class="bz" points="169.68 200.64 171.17 212.62 178.77 204.19 169.68 200.64"/><polygon class="ca" points="55.51 185.66 67.05 186.34 67.71 195.03 55.51 185.66"/><polygon class="cb" points="171.17 212.62 180.42 214.84 178.77 204.19 171.17 212.62"/><polygon class="cc" points="178.77 204.19 186.69 206.63 180.42 214.84 178.77 204.19"/><polygon class="cd" points="180.42 214.84 188.51 216.58 186.69 206.63 180.42 214.84"/><polygon class="ce" points="188.51 216.58 194.37 207.54 186.69 206.63 188.51 216.58"/><polygon class="cf" points="188.51 216.58 196.44 217.73 194.37 207.54 188.51 216.58"/><polygon class="cg" points="196.44 217.73 202.38 217.32 194.37 207.54 196.44 217.73"/><polygon class="ch" points="194.37 207.54 201.31 206.63 202.38 217.32 194.37 207.54"/><polygon class="ci" points="202.38 217.32 208.57 213.61 201.31 206.63 202.38 217.32"/><polygon class="cj" points="201.31 206.63 207.42 204.19 208.57 213.61 201.31 206.63"/><polygon class="ck" points="208.57 213.61 213.86 208.32 207.42 204.19 208.57 213.61"/><polygon class="cl" points="213.86 208.32 211.96 200.64 207.42 204.19 213.86 208.32"/><polygon class="cm" points="213.86 208.32 217.82 203.28 211.96 200.64 213.86 208.32"/><polygon class="cn" points="211.96 200.64 216.25 195.44 217.82 203.28 211.96 200.64"/><polygon class="co" points="217.82 203.28 220.88 197.64 216.25 195.44 217.82 203.28"/><polygon class="cp" points="216.25 195.44 218.56 191.39 220.88 197.64 216.25 195.44"/><polygon class="cq" points="220.88 197.64 218.56 191.39 224.51 190.68 220.88 197.64"/><polygon class="cr" points="168.12 193.71 169.68 184.71 172.74 182.72 168.12 193.71"/><polygon class="cs" points="169.68 184.71 173.65 175.71 172.74 182.72 169.68 184.71"/><polygon class="ct" points="172.74 182.72 178.77 175.71 173.65 175.71 172.74 182.72"/><polygon class="cu" points="173.65 175.71 178.77 168.85 178.77 175.71 173.65 175.71"/><polygon class="cv" points="178.77 175.71 184.46 173.06 178.77 168.85 178.77 175.71"/><polygon class="cw" points="178.77 168.85 185.12 163.49 184.46 173.06 178.77 168.85"/><polygon class="cx" points="184.46 173.06 191.56 173.06 185.12 163.49 184.46 173.06"/><polygon class="cy" points="185.12 163.49 192.06 161.42 191.56 173.06 185.12 163.49"/><polygon class="cz" points="192.06 161.42 197.51 161.42 191.56 173.06 192.06 161.42"/><polygon class="da" points="191.56 173.06 197.92 174.96 197.51 161.42 191.56 173.06"/><polygon class="db" points="197.51 161.42 204.94 164.56 197.92 174.96 197.51 161.42"/><polygon class="dc" points="197.92 174.96 206.1 180.21 204.94 164.56 197.92 174.96"/><polygon class="dd" points="204.94 164.56 213.44 173.06 206.1 180.21 204.94 164.56"/><polygon class="de" points="206.1 180.21 211.63 184.71 213.44 173.06 206.1 180.21"/><polygon class="df" points="211.63 184.71 216.25 189.33 213.44 173.06 211.63 184.71"/><polygon class="dg" points="213.44 173.06 221.54 187.02 216.25 189.33 213.44 173.06"/><polygon class="dh" points="216.25 189.33 218.56 191.39 221.54 187.02 216.25 189.33"/><polygon class="di" points="224.51 190.68 221.54 187.02 218.56 191.39 224.51 190.68"/><polygon class="dj" points="163.74 281.48 160.02 281.97 155.15 276.44 163.74 281.48"/><polygon class="dk" points="163.74 281.48 158.95 275.2 155.15 276.44 163.74 281.48"/><polygon class="dl" points="155.15 276.44 151.35 267.44 158.95 275.2 155.15 276.44"/><polygon class="dm" points="158.95 275.2 155.15 264.63 151.35 267.44 158.95 275.2"/><polygon class="dn" points="151.35 267.44 149.62 258.03 155.15 264.63 151.35 267.44"/><polygon class="do" points="155.15 264.63 153.34 254.06 149.62 258.03 155.15 264.63"/><polygon class="dp" points="149.62 258.03 148.88 247.13 153.34 254.06 149.62 258.03"/><polygon class="dq" points="153.34 254.06 153.34 243.16 148.88 247.13 153.34 254.06"/><polygon class="dr" points="148.88 247.13 150.61 234.33 153.34 243.16 148.88 247.13"/><polygon class="ds" points="153.34 243.16 154.57 230.62 150.61 234.33 153.34 243.16"/><polygon class="dt" points="150.61 234.33 151.35 222.28 154.57 230.62 150.61 234.33"/><polygon class="du" points="154.57 230.62 155.56 216.58 151.35 222.28 154.57 230.62"/><polygon class="dv" points="151.35 222.28 151.11 209.89 155.56 216.58 151.35 222.28"/><polygon class="dw" points="155.56 216.58 155.56 201.8 151.11 209.89 155.56 216.58"/><polygon class="dx" points="151.11 209.89 149.62 199.36 155.56 201.8 151.11 209.89"/><polygon class="dy" points="149.62 199.36 146.56 189.33 155.56 201.8 149.62 199.36"/><polygon class="dz" points="155.56 201.8 153.46 188.22 146.56 189.33 155.56 201.8"/><polygon class="ea" points="146.56 189.33 141.94 180.83 153.46 188.22 146.56 189.33"/><polygon class="eb" points="153.46 188.22 148.88 175.71 141.94 180.83 153.46 188.22"/><polygon class="ec" points="141.94 180.83 134.34 174.06 148.88 175.71 141.94 180.83"/><polygon class="ed" points="134.34 174.06 137.4 163.49 148.88 175.71 134.34 174.06"/><polygon class="ee" points="134.34 174.06 126.79 170.5 137.4 163.49 134.34 174.06"/><polygon class="ef" points="137.4 163.49 129.72 160.1 126.79 170.5 137.4 163.49"/><polygon class="eg" points="126.79 170.5 119.07 169.6 129.72 160.1 126.79 170.5"/><polygon class="eh" points="119.07 169.6 121.13 158.68 129.72 160.1 119.07 169.6"/><polygon class="ei" points="121.13 158.68 113.04 158.68 119.07 169.6 121.13 158.68"/><polygon class="ej" points="119.07 169.6 110.52 170.09 113.04 158.68 119.07 169.6"/><polygon class="ek" points="113.04 158.68 103.46 160.6 110.52 170.09 113.04 158.68"/><polygon class="el" points="110.52 170.09 101.69 172.28 103.46 160.6 110.52 170.09"/><polygon class="em" points="103.46 160.6 88.44 167.24 101.69 172.28 103.46 160.6"/><polygon class="en" points="101.69 172.28 86.78 177.44 88.44 167.24 101.69 172.28"/><polygon class="eo" points="88.44 167.24 77.37 173.48 86.78 177.44 88.44 167.24"/><polygon class="ep" points="86.78 177.44 76.55 182.31 77.37 173.48 86.78 177.44"/><polygon class="eq" points="77.37 173.48 67.05 178.88 76.55 182.31 77.37 173.48"/><polygon class="er" points="76.55 182.31 67.05 186.34 67.05 178.88 76.55 182.31"/><polygon class="es" points="67.05 186.34 55.51 185.66 67.05 178.88 67.05 186.34"/><polygon class="et" points="55.51 185.66 48.06 185.78 63.11 181.2 55.51 185.66"/><polygon class="eu" points="48.06 185.78 36.66 186.34 36.66 188.75 48.06 185.78"/><polygon class="ev" points="55.51 185.66 51.36 187.27 60.13 189.21 55.51 185.66"/><polygon class="ew" points="51.36 187.27 48.06 185.78 55.51 185.66 51.36 187.27"/><polygon class="ex" points="163.74 281.48 169.68 272.37 158.95 275.2 163.74 281.48"/><polygon class="ey" points="169.68 272.37 171.66 260.15 158.95 275.2 169.68 272.37"/><polygon class="ez" points="158.95 275.2 155.15 264.63 171.66 260.15 158.95 275.2"/><polygon class="fa" points="155.15 264.63 153.34 254.06 171.66 260.15 155.15 264.63"/><polygon class="fb" points="171.66 260.15 171.66 246.72 153.34 254.06 171.66 260.15"/><polygon class="fc" points="153.34 254.06 153.34 243.16 171.66 246.72 153.34 254.06"/><polygon class="fd" points="171.66 246.72 169.68 232.62 153.34 243.16 171.66 246.72"/><polygon class="fe" points="169.68 232.62 153.34 243.16 154.57 230.62 169.68 232.62"/><polygon class="ff" points="169.68 232.62 167.65 216.58 154.57 230.62 169.68 232.62"/><polygon class="fg" points="154.57 230.62 167.65 216.58 155.56 216.58 154.57 230.62"/><polygon class="fh" points="155.56 201.8 167.65 216.58 155.56 216.58 155.56 201.8"/><polygon class="fi" points="167.65 216.58 166.88 201.14 155.56 201.8 167.65 216.58"/><polygon class="fj" points="166.88 201.14 168.12 193.71 155.56 201.8 166.88 201.14"/><polygon class="fk" points="153.46 188.22 168.12 193.71 155.56 201.8 153.46 188.22"/><polygon class="fl" points="153.46 188.22 169.68 184.71 168.12 193.71 153.46 188.22"/><polygon class="fm" points="153.46 188.22 148.88 175.71 169.68 184.71 153.46 188.22"/><polygon class="cn" points="173.65 175.71 169.68 184.71 148.88 175.71 162.5 175.71 173.65 175.71"/><polygon class="fn" points="137.4 163.49 148.88 175.71 161.51 175.71 137.4 163.49"/><polygon class="fo" points="161.51 175.71 178.77 168.85 173.65 175.71 161.51 175.71"/><polygon class="fp" points="161.51 175.71 161.84 160.1 178.77 168.85 161.51 175.71"/><polygon class="fq" points="161.51 175.71 161.84 160.1 137.4 163.49 161.51 175.71"/><polygon class="fr" points="178.77 168.85 174.22 155.23 185.12 163.49 178.77 168.85"/><polygon class="fs" points="161.84 160.1 174.22 155.23 178.77 168.85 161.84 160.1"/><polygon class="ft" points="0 177.18 5.26 182.72 26 159.18 0 177.18"/><polygon class="fu" points="5.26 182.72 9.34 191.89 23.32 183.49 5.26 182.72"/><polygon class="fv" points="23.32 183.49 26 159.18 5.26 182.72 23.32 183.49"/><polygon class="fw" points="9.34 191.89 12.31 208.32 32 202.46 9.34 191.89"/><polygon class="fx" points="23.32 183.49 32 202.46 9.34 191.89 23.32 183.49"/><polygon class="fy" points="26 159.18 36.09 177.44 23.32 183.49 26 159.18"/><polygon class="fz" points="36.66 186.34 36.09 177.44 23.32 183.49 36.66 186.34"/><polygon class="ga" points="36.66 188.75 32 202.46 23.32 183.49 36.66 188.75"/><polygon class="gb" points="36.66 186.34 36.66 188.75 23.32 183.49 36.66 186.34"/><polygon class="gc" points="36.09 177.44 48.06 185.78 36.66 186.34 36.09 177.44"/><polygon class="gd" points="36.09 177.44 50.29 168.85 26 159.18 36.09 177.44"/><polygon class="ge" points="50.29 168.85 60 138.18 26 159.18 50.29 168.85"/><polygon class="gf" points="50.29 168.85 73.41 156.33 60 138.18 50.29 168.85"/><polygon class="gg" points="73.41 156.33 85 125.18 60 138.18 73.41 156.33"/><polygon class="gh" points="73.41 156.33 97.85 144.33 85 125.18 73.41 156.33"/><polygon class="gi" points="97.85 144.33 112 110.18 85 125.18 97.85 144.33"/><polygon class="gj" points="97.85 144.33 131 133.87 112 110.18 97.85 144.33"/><polygon class="gk" points="131 133.87 133 97.18 112 110.18 131 133.87"/><polygon class="gl" points="131 133.87 154 119.23 133 97.18 131 133.87"/><polygon class="gm" points="154 119.23 161 81.18 133 97.18 154 119.23"/><polygon class="gn" points="154 119.23 185.7 96.11 161 81.18 154 119.23"/><polygon class="go" points="154 119.23 184.46 122.2 185.7 96.11 154 119.23"/><polygon class="gp" points="184.46 122.2 211.9 122.75 185.7 96.11 184.46 122.2"/><polygon class="gq" points="184.46 122.2 207.06 139.71 211.9 122.75 184.46 122.2"/><polygon class="gr" points="207.06 139.71 223.24 139.71 211.9 122.75 207.06 139.71"/><polygon class="gs" points="207.06 139.71 222.14 159.18 223.24 139.71 207.06 139.71"/><polygon class="gt" points="222.14 159.18 231.94 157.65 223.24 139.71 222.14 159.18"/><polygon class="gu" points="231.94 157.65 232.93 165.91 222.14 159.18 231.94 157.65"/><polygon class="gv" points="232.93 165.91 230.51 171.33 222.14 159.18 232.93 165.91"/><polygon class="gw" points="48.06 185.78 50.29 168.85 36.09 177.44 48.06 185.78"/><polygon class="gx" points="63.11 181.2 50.29 168.85 48.06 185.78 63.11 181.2"/><polygon class="gy" points="63.11 181.2 67.05 178.88 50.29 168.85 63.11 181.2"/><polygon class="gz" points="67.05 178.88 73.41 156.33 50.29 168.85 67.05 178.88"/><polygon class="ha" points="67.05 178.88 77.37 173.48 73.41 156.33 67.05 178.88"/><polygon class="hb" points="77.37 173.48 88.44 167.24 85.63 150.33 77.37 173.48"/><polygon class="hc" points="77.37 173.48 73.41 156.33 85.63 150.33 77.37 173.48"/><polygon class="hc" points="88.44 167.24 103.46 160.6 97.85 144.33 88.44 167.24"/><polygon class="hd" points="88.44 167.24 85.63 150.33 97.85 144.33 88.44 167.24"/><polygon class="he" points="103.46 160.6 113.04 158.68 114.42 139.1 103.46 160.6"/><polygon class="hf" points="103.46 160.6 97.85 144.33 114.42 139.1 103.46 160.6"/><polygon class="hg" points="121.13 158.68 131 133.87 113.04 158.68 121.13 158.68"/><polygon class="hh" points="113.04 158.68 114.42 139.1 131 133.87 113.04 158.68"/><polygon class="hi" points="129.72 160.1 131 133.87 121.13 158.68 129.72 160.1"/><polygon class="hj" points="129.72 160.1 144.2 142.13 131 133.87 129.72 160.1"/><polygon class="hk" points="137.4 163.49 144.2 142.13 129.72 160.1 137.4 163.49"/><polygon class="hl" points="131 133.87 154 119.23 144.2 142.13 131 133.87"/><polygon class="hm" points="144.2 142.13 161.84 160.1 137.4 163.49 144.2 142.13"/><polygon class="hn" points="144.2 142.13 165 139.71 154 119.23 144.2 142.13"/><polygon class="ho" points="165 139.71 184.46 122.2 154 119.23 165 139.71"/><polygon class="hp" points="165 139.71 161.84 160.1 144.2 142.13 165 139.71"/><polygon class="hq" points="165 139.71 174.22 155.23 161.84 160.1 165 139.71"/><polygon class="hr" points="192.06 161.42 185.12 163.49 174.22 155.23 192.06 161.42"/><polygon class="hs" points="174.22 155.23 184.46 122.2 165 139.71 174.22 155.23"/><polygon class="ht" points="174.22 155.23 192.06 161.42 207.06 139.71 174.22 155.23"/><polygon class="hu" points="174.22 155.23 207.06 139.71 184.46 122.2 174.22 155.23"/><polygon class="hv" points="197.51 161.42 207.06 139.71 192.06 161.42 197.51 161.42"/><polygon class="hw" points="204.94 164.56 222.14 159.18 197.51 161.42 204.94 164.56"/><polygon class="hx" points="207.06 139.71 197.51 161.42 222.14 159.18 207.06 139.71"/><polygon class="hy" points="213.44 173.06 222.14 159.18 204.94 164.56 213.44 173.06"/><polygon class="hz" points="213.44 173.06 221.54 187.02 227.59 173.48 213.44 173.06"/><polygon class="ia" points="227.59 173.48 230.51 171.33 222.14 159.18 227.59 173.48"/><polygon class="ib" points="227.59 173.48 222.14 159.18 213.44 173.06 227.59 173.48"/><polygon class="ic" points="224.51 190.68 226.42 180.04 227.59 173.48 221.54 187.02 224.51 190.68"/><polygon class="id" points="148.38 212.94 148.88 241.32 120.56 242.31 148.38 212.94"/><polygon class="ie" points="148.88 241.32 149.45 259.35 128.23 261.25 148.88 241.32"/><polygon class="if" points="148.88 241.32 120.56 242.31 128.23 261.25 148.88 241.32"/><polygon class="ig" points="120.56 242.31 121.96 224.15 148.38 212.94 120.56 242.31"/><polygon class="ih" points="121.96 224.15 133.02 214.35 148.38 212.94 121.96 224.15"/><polygon class="ii" points="121.96 224.15 123.44 214.84 133.02 214.35 121.96 224.15"/><polygon class="ij" points="121.96 224.15 111.31 223.6 114.69 214.84 121.96 224.15"/><polygon class="ik" points="128.23 261.25 132.53 282.72 149.45 259.35 128.23 261.25"/><polygon class="il" points="132.53 282.72 151.35 281.97 149.45 259.35 132.53 282.72"/><polygon class="im" points="151.35 281.97 153 304.84 131 307.27 151.35 281.97"/><polygon class="in" points="132.53 282.72 131 307.27 151.35 281.97 132.53 282.72"/><polygon class="gx" points="153 304.84 155.15 330.61 133.85 330.61 153 304.84"/><polygon class="io" points="133.85 330.61 131 307.27 153 304.84 133.85 330.61"/><polygon class="ip" points="133.85 330.61 137.92 353.28 155.15 330.61 133.85 330.61"/><polygon class="iq" points="137.92 353.28 157.19 351.52 155.15 330.61 137.92 353.28"/><polygon class="ir" points="137.92 353.28 143.21 374.86 157.19 351.52 137.92 353.28"/><polygon class="is" points="143.21 374.86 159.44 371.56 157.19 351.52 143.21 374.86"/><polygon class="it" points="143.21 374.86 149.62 385.87 159.44 371.56 143.21 374.86"/><polygon class="iu" points="159.44 371.56 161.7 388.73 149.62 385.87 159.44 371.56"/><polygon class="iv" points="161.7 388.73 162.91 398.75 160.16 399.74 161.7 388.73"/><polygon class="iw" points="160.16 399.74 149.62 395.67 161.7 388.73 160.16 399.74"/><polygon class="ix" points="149.62 395.67 149.62 385.87 161.7 388.73 149.62 395.67"/><polygon class="iy" points="149.62 395.67 136.38 389.28 149.62 385.87 149.62 395.67"/><polygon class="iz" points="136.38 389.28 143.21 374.86 149.62 385.87 136.38 389.28"/><polygon class="ja" points="136.38 389.28 120.75 381.03 143.21 374.86 136.38 389.28"/><polygon class="jb" points="120.75 381.03 137.92 353.28 143.21 374.86 120.75 381.03"/><polygon class="jc" points="120.75 381.03 98.29 367.16 137.92 353.28 120.75 381.03"/><polygon class="jd" points="98.29 367.16 75.94 351.52 110.62 344.37 98.29 367.16"/><polygon class="je" points="75.94 351.52 110.62 344.37 78.25 324.55 75.94 351.52"/><polygon class="jf" points="75.94 351.52 57.99 338.64 78.25 324.55 75.94 351.52"/><polygon class="jg" points="57.99 338.64 42.58 324.55 62.4 310.35 57.99 338.64"/><polygon class="jh" points="57.99 338.64 78.25 324.55 62.4 310.35 57.99 338.64"/><polygon class="ji" points="98.29 367.16 137.92 353.28 110.62 344.37 98.29 367.16"/><polygon class="jj" points="133.85 330.61 110.62 344.37 137.92 353.28 133.85 330.61"/><polygon class="jk" points="131 307.27 110.62 344.37 133.85 330.61 131 307.27"/><polygon class="jl" points="131 307.27 104.45 312.33 110.62 344.37 131 307.27"/><polygon class="jm" points="131 307.27 132.53 282.72 100.16 285.91 131 307.27"/><polygon class="jn" points="104.45 312.33 131 307.27 100.16 285.91 104.45 312.33"/><polygon class="jo" points="78.25 324.55 104.45 312.33 110.62 344.37 78.25 324.55"/><polygon class="jp" points="78.25 324.55 104.45 312.33 78.8 298.13 78.25 324.55"/><polygon class="jq" points="100.16 285.91 78.8 298.13 104.45 312.33 100.16 285.91"/><polygon class="jr" points="78.25 324.55 62.4 310.35 78.8 298.13 78.25 324.55"/><polygon class="js" points="100.16 285.91 128.23 261.25 132.53 282.72 100.16 285.91"/><polygon class="jt" points="128.23 261.25 93.28 263.56 100.16 285.91 128.23 261.25"/><polygon class="ju" points="120.56 242.31 89.81 240.73 128.23 261.25 120.56 242.31"/><polygon class="jv" points="93.28 263.56 89.81 240.73 128.23 261.25 93.28 263.56"/><polygon class="jw" points="42.58 324.55 25.85 307.27 48.2 292.29 42.58 324.55"/><polygon class="jx" points="25.85 307.27 15.72 288.33 38.62 276.92 25.85 307.27"/><polygon class="jy" points="15.72 288.33 12.31 280.51 25.3 274.24 15.72 288.33"/><polygon class="jz" points="12.31 280.51 12.31 267.67 24.53 265.43 12.31 280.51"/><polygon class="ka" points="48.2 292.29 62.4 310.35 42.58 324.55 48.2 292.29"/><polygon class="kb" points="38.62 276.92 48.2 292.29 25.85 307.27 38.62 276.92"/><polygon class="kc" points="15.72 288.33 38.62 276.92 25.3 274.24 15.72 288.33"/><polygon class="kd" points="12.31 280.51 25.3 274.24 24.53 265.43 12.31 280.51"/><polygon class="ke" points="62.4 310.35 70.6 274.24 78.8 298.13 62.4 310.35"/><polygon class="kf" points="48.2 292.29 70.6 274.24 62.4 310.35 48.2 292.29"/><polygon class="kg" points="78.8 298.13 93.28 263.56 100.16 285.91 78.8 298.13"/><polygon class="kh" points="70.6 274.24 93.28 263.56 78.8 298.13 70.6 274.24"/><polygon class="ki" points="48.2 292.29 60.64 255.41 70.6 274.24 48.2 292.29"/><polygon class="kj" points="70.6 274.24 89.81 240.73 93.28 263.56 70.6 274.24"/><polygon class="kk" points="38.62 276.92 60.64 255.41 48.2 292.29 38.62 276.92"/><polygon class="kl" points="38.62 276.92 34.99 263.56 25.3 274.24 38.62 276.92"/><polygon class="km" points="24.53 265.43 34.99 263.56 25.3 274.24 24.53 265.43"/><polygon class="kn" points="38.62 276.92 34.99 263.56 60.64 255.41 38.62 276.92"/><polygon class="ko" points="70.6 274.24 89.81 240.73 60.64 255.41 70.6 274.24"/><polygon class="kp" points="121.96 224.15 111.31 223.6 120.56 242.31 121.96 224.15"/><polygon class="kq" points="106.35 214.35 111.31 223.6 114.69 214.84 106.35 214.35"/><polygon class="kr" points="89.81 240.73 111.31 223.6 120.56 242.31 89.81 240.73"/><polygon class="ks" points="111.31 223.6 97.02 222.72 106.35 214.35 111.31 223.6"/><polygon class="kt" points="89.81 240.73 97.02 222.72 111.31 223.6 89.81 240.73"/><polygon class="ku" points="89.81 240.73 78.8 220.84 60.64 255.41 89.81 240.73"/><polygon class="kv" points="89.81 240.73 97.02 222.72 78.8 220.84 89.81 240.73"/><polygon class="kw" points="97.02 222.72 97.02 212.62 106.35 214.35 97.02 222.72"/><polygon class="kx" points="78.8 220.84 97.02 212.62 97.02 222.72 78.8 220.84"/><polygon class="ky" points="78.8 220.84 88.44 209.15 97.02 212.62 78.8 220.84"/><polygon class="kz" points="78.8 220.84 80.84 204.94 88.44 209.15 78.8 220.84"/><polygon class="la" points="78.8 220.84 68.67 212.94 80.84 204.94 78.8 220.84"/><polygon class="lb" points="68.67 212.94 74.15 200.19 80.84 204.94 68.67 212.94"/><polygon class="lc" points="68.67 212.94 60.64 204.19 74.15 200.19 68.67 212.94"/><polygon class="ld" points="60.64 204.19 67.71 195.03 74.15 200.19 60.64 204.19"/><polygon class="le" points="60.64 204.19 54.36 195.79 67.71 195.03 60.64 204.19"/><polygon class="lf" points="54.36 195.79 60.13 189.21 67.71 195.03 54.36 195.79"/><polygon class="lg" points="54.36 195.79 51.36 187.27 60.13 189.21 54.36 195.79"/><polygon class="lh" points="78.8 220.84 53.48 232.95 60.64 255.41 78.8 220.84"/><polygon class="li" points="53.48 232.95 49.63 217.66 68.67 212.94 53.48 232.95"/><polygon class="lj" points="53.48 232.95 78.8 220.84 68.67 212.94 53.48 232.95"/><polygon class="lk" points="49.63 217.66 45.66 205.87 60.64 204.19 49.63 217.66"/><polygon class="ll" points="45.66 205.87 44.01 197.64 54.36 195.79 45.66 205.87"/><polygon class="lm" points="44.01 197.64 51.36 187.27 54.36 195.79 44.01 197.64"/><polygon class="ln" points="44.01 197.64 36.66 188.75 51.36 187.27 44.01 197.64"/><polygon class="lo" points="44.01 197.64 32 202.46 36.66 188.75 44.01 197.64"/><polygon class="lp" points="44.01 197.64 45.66 205.87 32 202.46 44.01 197.64"/><polygon class="lq" points="34.99 263.56 31.96 239.01 53.48 232.95 34.99 263.56"/><polygon class="lr" points="24.53 265.43 22.88 249.69 34.99 263.56 24.53 265.43"/><polygon class="ls" points="12.31 267.67 13 248.62 24.53 265.43 12.31 267.67"/><polygon class="lt" points="13 248.62 22.88 249.69 24.53 265.43 13 248.62"/><polygon class="lu" points="34.99 263.56 31.96 239.01 22.88 249.69 34.99 263.56"/><polygon class="lv" points="13 248.62 31.96 239.01 22.88 249.69 13 248.62"/><polygon class="lw" points="13 248.62 13.52 228.3 31.96 239.01 13 248.62"/><polygon class="lx" points="13.52 228.3 12.31 208.32 28.05 216.58 13.52 228.3"/><polygon class="ly" points="28.05 216.58 31.96 239.01 13.52 228.3 28.05 216.58"/><polygon class="lz" points="28.05 216.58 32 202.46 12.31 208.32 28.05 216.58"/><polygon class="ma" points="28.05 216.58 45.66 205.87 32 202.46 28.05 216.58"/><polygon class="mb" points="28.05 216.58 49.63 217.66 45.66 205.87 28.05 216.58"/><polygon class="mc" points="31.96 239.01 49.63 217.66 28.05 216.58 31.96 239.01"/><polygon class="md" points="53.48 232.95 49.63 217.66 31.96 239.01 53.48 232.95"/><polygon class="me" points="165.66 402.06 169.52 402.94 178.11 396.33 165.66 402.06"/><polygon class="mf" points="165.66 402.06 165.66 386.75 178.11 396.33 165.66 402.06"/><polygon class="mg" points="178.11 396.33 188.01 387.96 165.66 386.75 178.11 396.33"/><polygon class="mh" points="165.66 386.75 166.55 371.56 188.01 387.96 165.66 386.75"/><polygon class="mi" points="188.01 387.96 200.56 374.31 166.55 371.56 188.01 387.96"/><polygon class="mj" points="167.1 351.52 166.55 371.56 182.54 372.85 167.1 351.52"/><polygon class="mk" points="200.56 374.31 210.25 362.19 182.54 372.85 200.56 374.31"/><polygon class="ml" points="167.1 351.52 188.78 355.16 182.54 372.85 167.1 351.52"/><polygon class="mm" points="210.25 362.19 188.78 355.16 182.54 372.85 210.25 362.19"/><polygon class="mn" points="167.1 351.52 168.09 330.61 188.78 355.16 167.1 351.52"/><polygon class="mo" points="188.78 355.16 193.19 331.05 168.09 330.61 188.78 355.16"/><polygon class="mp" points="168.09 330.61 169.08 308.42 193.19 331.05 168.09 330.61"/><polygon class="mq" points="193.19 331.05 198.36 308.42 169.08 308.42 193.19 331.05"/><polygon class="mr" points="193.19 331.05 225.56 338.04 188.78 355.16 193.19 331.05"/><polygon class="ms" points="210.25 362.19 225.56 338.04 188.78 355.16 210.25 362.19"/><polygon class="mt" points="225.56 338.04 232.11 318.3 193.19 331.05 225.56 338.04"/><polygon class="mu" points="198.36 308.42 232.11 318.3 193.19 331.05 198.36 308.42"/><polygon class="mv" points="198.36 308.42 235.57 301.79 232.11 318.3 198.36 308.42"/><polygon class="mw" points="214.35 305.57 237.31 279.21 235.57 301.79 214.35 305.57"/><polygon class="lm" points="214.35 305.57 215.1 282.72 237.31 279.21 214.35 305.57"/><polygon class="mx" points="237.31 279.21 234.5 261.25 215.1 282.72 237.31 279.21"/><polygon class="my" points="215.1 282.72 213.28 259.35 234.5 261.25 215.1 282.72"/><polygon class="mz" points="169.08 308.42 169.68 285.91 198.36 308.42 169.08 308.42"/><polygon class="na" points="198.36 308.42 215.1 282.72 214.35 305.57 198.36 308.42"/><polygon class="nb" points="198.36 308.42 194.7 281.97 169.68 285.91 198.36 308.42"/><polygon class="nc" points="198.36 308.42 215.1 282.72 194.7 281.97 198.36 308.42"/><polygon class="nd" points="169.68 285.91 170.84 271.94 194.7 281.97 169.68 285.91"/><polygon class="ne" points="194.7 281.97 213.28 259.35 215.1 282.72 194.7 281.97"/><polygon class="gx" points="194.7 281.97 194.12 260.15 170.84 271.94 194.7 281.97"/><polygon class="nf" points="194.7 281.97 213.28 259.35 194.12 260.15 194.7 281.97"/><polygon class="ng" points="170.84 271.94 171.66 256.79 194.12 260.15 170.84 271.94"/><polygon class="nh" points="171.66 256.79 171.66 239.67 194.12 260.15 171.66 256.79"/><polygon class="ni" points="171.66 239.67 171.66 224.92 191.73 240.19 171.66 239.67"/><polygon class="nj" points="171.66 224.92 171.17 212.62 183.72 224.6 171.66 224.92"/><polygon class="nk" points="194.12 260.15 191.73 240.19 171.66 239.67 194.12 260.15"/><polygon class="nl" points="183.72 224.6 191.73 240.19 171.66 224.92 183.72 224.6"/><polygon class="nm" points="183.72 224.6 180.42 214.84 171.17 212.62 183.72 224.6"/><polygon class="nn" points="183.72 224.6 188.51 216.58 180.42 214.84 183.72 224.6"/><polygon class="no" points="183.72 224.6 192.47 225.91 188.51 216.58 183.72 224.6"/><polygon class="np" points="183.72 224.6 191.73 240.19 192.47 225.91 183.72 224.6"/><polygon class="nq" points="192.47 225.91 196.44 217.73 188.51 216.58 192.47 225.91"/><polygon class="nr" points="192.47 225.91 200.81 225.91 196.44 217.73 192.47 225.91"/><polygon class="ns" points="191.73 240.19 200.81 225.91 192.47 225.91 191.73 240.19"/><polygon class="nt" points="191.73 240.19 207.75 239.67 194.12 260.15 191.73 240.19"/><polygon class="nu" points="191.73 240.19 200.81 225.91 207.75 239.67 191.73 240.19"/><polygon class="nv" points="213.28 259.35 207.75 239.67 194.12 260.15 213.28 259.35"/><polygon class="nw" points="213.28 259.35 229.46 240.73 234.5 261.25 213.28 259.35"/><polygon class="mt" points="207.75 239.67 229.46 240.73 227.59 224.6 207.75 239.67"/><polygon class="nx" points="207.75 239.67 213.28 259.35 229.46 240.73 207.75 239.67"/><polygon class="ny" points="207.75 239.67 213.44 223.6 200.81 225.91 207.75 239.67"/><polygon class="nz" points="213.44 223.6 227.59 224.6 207.75 239.67 213.44 223.6"/><polygon class="oa" points="213.44 223.6 226.9 214.35 213.86 208.32 213.44 223.6"/><polygon class="ob" points="208.57 213.61 213.58 218.55 213.86 208.32 208.57 213.61"/><polygon class="oc" points="200.81 225.91 202.38 217.32 196.44 217.73 200.81 225.91"/><polygon class="nq" points="202.38 217.32 213.44 223.6 200.81 225.91 202.38 217.32"/><polygon class="od" points="208.57 213.61 213.44 223.6 202.38 217.32 208.57 213.61"/><polygon class="oe" points="213.58 218.55 213.44 223.6 208.57 213.61 213.58 218.55"/><polygon class="of" points="213.86 208.32 226.9 204.48 226.9 214.35 213.86 208.32"/><polygon class="og" points="217.82 203.28 226.9 204.48 213.86 208.32 217.82 203.28"/><polygon class="oh" points="226.9 204.48 226.57 197.26 217.82 203.28 226.9 204.48"/><polygon class="oi" points="220.88 197.64 226.57 197.26 217.82 203.28 220.88 197.64"/><polygon class="oj" points="226.57 197.26 226.57 190.18 220.88 197.64 226.57 197.26"/><polygon class="ok" points="224.51 190.68 226.57 190.18 220.88 197.64 224.51 190.68"/><polygon class="ol" points="226.57 190.18 226.42 180.04 224.51 190.68 226.57 190.18"/></svg>