<svg width="1270" height="228" viewBox="0 0 1270 228" fill="none" xmlns="http://www.w3.org/2000/svg">
<path d="M321.743 172.9C349.673 172.9 369.243 158.08 369.243 133.19V132.81C369.243 110.77 354.803 100.7 326.683 93.86C301.033 87.78 294.953 83.22 294.953 72.96V72.58C294.953 63.84 302.933 56.81 316.613 56.81C328.773 56.81 340.743 61.56 352.713 70.49L365.253 52.82C351.763 41.99 336.373 36.1 316.993 36.1C290.583 36.1 271.583 51.87 271.583 74.67V75.05C271.583 99.56 287.543 107.92 315.853 114.76C340.553 120.46 345.873 125.59 345.873 135.09V135.47C345.873 145.35 336.753 152.19 322.313 152.19C305.973 152.19 293.053 145.92 280.323 134.9L266.263 151.62C282.223 165.87 301.413 172.9 321.743 172.9ZM406.226 171H429.596V128.25H456.006C485.266 128.25 509.206 112.67 509.206 82.84V82.46C509.206 55.67 489.826 38 458.666 38H406.226V171ZM429.596 107.16V59.28H456.766C474.246 59.28 485.456 67.45 485.456 83.03V83.41C485.456 97.28 474.436 107.16 456.766 107.16H429.596ZM542.64 171H642.2V150.1H566.01V114.38H632.7V93.48H566.01V58.9H641.25V38H542.64V171ZM741.175 173.28C766.065 173.28 781.265 164.16 795.135 149.72L780.125 134.52C768.725 145.16 758.275 151.62 741.935 151.62C716.475 151.62 698.045 130.53 698.045 104.5V104.12C698.045 78.09 716.665 57.19 741.935 57.19C757.135 57.19 768.535 63.84 779.175 73.72L794.185 56.43C781.455 44.27 766.635 35.72 742.125 35.72C701.845 35.72 673.535 66.69 673.535 104.5V104.88C673.535 143.07 702.415 173.28 741.175 173.28ZM830.529 171H853.899V38H830.529V171ZM899.001 171H922.371V116.85H989.441V95.57H922.371V59.28H997.991V38H899.001V171ZM1034.52 171H1057.89V38H1034.52V171ZM1164.74 173.28C1189.63 173.28 1204.83 164.16 1218.7 149.72L1203.69 134.52C1192.29 145.16 1181.84 151.62 1165.5 151.62C1140.04 151.62 1121.61 130.53 1121.61 104.5V104.12C1121.61 78.09 1140.23 57.19 1165.5 57.19C1180.7 57.19 1192.1 63.84 1202.74 73.72L1217.75 56.43C1205.02 44.27 1190.2 35.72 1165.69 35.72C1125.41 35.72 1097.1 66.69 1097.1 104.5V104.88C1097.1 143.07 1125.98 173.28 1164.74 173.28Z" fill="white"/>
<path d="M100.5 4L187.103 54V154L100.5 204L13.8975 154V54L100.5 4Z" fill="white"/>
<path d="M100.5 34L161.122 69V139L100.5 174L39.8782 139V69L100.5 34Z" fill="#1E1E20"/>
<path d="M100.5 64L135.141 84V124L100.5 144L65.859 124V84L100.5 64Z" fill="white"/>
</svg>
