<svg width="1219" height="200" viewBox="0 0 1219 200" fill="none" xmlns="http://www.w3.org/2000/svg">
<path d="M321.742 168.9C349.672 168.9 369.242 154.08 369.242 129.19V128.81C369.242 106.77 354.802 96.7 326.682 89.86C301.032 83.78 294.952 79.22 294.952 68.96V68.58C294.952 59.84 302.932 52.81 316.612 52.81C328.772 52.81 340.742 57.56 352.712 66.49L365.252 48.82C351.762 37.99 336.372 32.1 316.992 32.1C290.582 32.1 271.582 47.87 271.582 70.67V71.05C271.582 95.56 287.542 103.92 315.852 110.76C340.552 116.46 345.872 121.59 345.872 131.09V131.47C345.872 141.35 336.752 148.19 322.312 148.19C305.972 148.19 293.052 141.92 280.322 130.9L266.262 147.62C282.222 161.87 301.412 168.9 321.742 168.9Z" fill="#1E1E20"/>
<path d="M406.226 167H429.596V124.25H456.006C485.266 124.25 509.206 108.67 509.206 78.84V78.46C509.206 51.67 489.826 34 458.666 34H406.226V167ZM429.596 103.16V55.28H456.766C474.246 55.28 485.456 63.45 485.456 79.03V79.41C485.456 93.28 474.436 103.16 456.766 103.16H429.596Z" fill="#1E1E20"/>
<path d="M542.64 167H642.2V146.1H566.01V110.38H632.7V89.48H566.01V54.9H641.25V34H542.64V167Z" fill="#1E1E20"/>
<path d="M741.175 169.28C766.065 169.28 781.265 160.16 795.135 145.72L780.125 130.52C768.725 141.16 758.275 147.62 741.935 147.62C716.475 147.62 698.045 126.53 698.045 100.5V100.12C698.045 74.09 716.665 53.19 741.935 53.19C757.135 53.19 768.535 59.84 779.175 69.72L794.185 52.43C781.455 40.27 766.635 31.72 742.125 31.72C701.845 31.72 673.535 62.69 673.535 100.5V100.88C673.535 139.07 702.415 169.28 741.175 169.28Z" fill="#1E1E20"/>
<path d="M830.528 167H853.898V34H830.528V167Z" fill="#1E1E20"/>
<path d="M899.001 167H922.371V112.85H989.441V91.57H922.371V55.28H997.991V34H899.001V167Z" fill="#1E1E20"/>
<path d="M1034.52 167H1057.89V34H1034.52V167Z" fill="#1E1E20"/>
<path d="M1164.74 169.28C1189.63 169.28 1204.83 160.16 1218.7 145.72L1203.69 130.52C1192.29 141.16 1181.84 147.62 1165.5 147.62C1140.04 147.62 1121.61 126.53 1121.61 100.5V100.12C1121.61 74.09 1140.23 53.19 1165.5 53.19C1180.7 53.19 1192.1 59.84 1202.74 69.72L1217.75 52.43C1205.02 40.27 1190.2 31.72 1165.69 31.72C1125.41 31.72 1097.1 62.69 1097.1 100.5V100.88C1097.1 139.07 1125.98 169.28 1164.74 169.28Z" fill="#1E1E20"/>
<path d="M100.5 0L187.103 50V150L100.5 200L13.8975 150V50L100.5 0Z" fill="#1E1E20"/>
<path d="M100.5 30L161.122 65V135L100.5 170L39.8782 135V65L100.5 30Z" fill="white"/>
<path d="M100.5 60L135.141 80V120L100.5 140L65.859 120V80L100.5 60Z" fill="#1E1E20"/>
</svg>
